<?xml version="1.0" standalone="no"?>
<!DOCTYPE svg PUBLIC "-//W3C//DTD SVG 1.1//EN" "http://www.w3.org/Graphics/SVG/1.1/DTD/svg11.dtd" >
<svg>
<metadata>
Created by FontForge 20090622 at Wed Mar 30 13:16:28 2016
 By deploy user
Copyright (c) JT Types Ltd, 2006. All rights reserved.
</metadata>
<defs>
<font id="BlissPro-ExtraLight" horiz-adv-x="360" >
  <font-face 
    font-family="Bliss Pro ExtraLight"
    font-weight="200"
    font-stretch="normal"
    units-per-em="1000"
    panose-1="2 0 5 6 4 0 0 2 0 4"
    ascent="800"
    descent="-200"
    x-height="473"
    cap-height="659"
    bbox="-180 -241 1085 953"
    underline-thickness="50"
    underline-position="-50"
    unicode-range="U+0020-U+FB02"
  />
<missing-glyph horiz-adv-x="550" 
d="M50 0v659h450v-659h-450zM101 48h348v563h-348v-563zM231 222q-29 29 -29 60q0 25 20.5 48.5t44.5 38.5t44.5 37.5t20.5 47.5q0 21 -15.5 34t-39.5 13q-41 0 -85 -39l-27 35q49 51 117 51q48 0 77 -25.5t29 -65.5q0 -31 -20.5 -59t-45.5 -45t-45.5 -35.5t-20.5 -32.5
q0 -16 17 -35zM255 107q-16 0 -27 11t-11 28t11 28.5t27 11.5t26.5 -11.5t10.5 -28.5t-10.5 -28t-26.5 -11z" />
    <glyph glyph-name="fi" unicode="fi" horiz-adv-x="501" 
d="M101 0v427h-59v46h59v90q0 80 38 112.5t88 32.5q34 0 61 -12l-12 -45q-23 10 -49 10q-73 0 -73 -94v-94h118l-18 -46h-100v-427h-53zM365 0v473h53v-473h-53zM391 593q-17 0 -27.5 11.5t-10.5 28.5t10.5 28.5t27.5 11.5q18 0 28.5 -11t10.5 -29t-11 -29t-28 -11z" />
    <glyph glyph-name="fl" unicode="fl" horiz-adv-x="505" 
d="M101 0v427h-59v46h59v90q0 80 38 112.5t88 32.5q34 0 61 -12l-12 -45q-23 10 -49 10q-73 0 -73 -94v-94h118l-18 -46h-100v-427h-53zM355 77v631h53v-612q0 -30 8.5 -41.5t28.5 -11.5q15 0 29 7l12 -43q-26 -12 -56 -12q-75 0 -75 82z" />
    <glyph glyph-name=".notdef" horiz-adv-x="550" 
d="M50 0v659h450v-659h-450zM101 48h348v563h-348v-563zM231 222q-29 29 -29 60q0 25 20.5 48.5t44.5 38.5t44.5 37.5t20.5 47.5q0 21 -15.5 34t-39.5 13q-41 0 -85 -39l-27 35q49 51 117 51q48 0 77 -25.5t29 -65.5q0 -31 -20.5 -59t-45.5 -45t-45.5 -35.5t-20.5 -32.5
q0 -16 17 -35zM255 107q-16 0 -27 11t-11 28t11 28.5t27 11.5t26.5 -11.5t10.5 -28.5t-10.5 -28t-26.5 -11z" />
    <glyph glyph-name=".null" horiz-adv-x="0" 
 />
    <glyph glyph-name="nonmarkingreturn" horiz-adv-x="333" 
 />
    <glyph glyph-name="space" unicode=" " horiz-adv-x="230" 
 />
    <glyph glyph-name="exclam" unicode="!" horiz-adv-x="266" 
d="M121 167q-7 63 -10 125t-3.5 109t-0.5 206v52h53v-53q0 -202 -2 -275.5t-13 -163.5h-24zM133 -7q-16 0 -27.5 12t-11.5 29t11.5 29t27.5 12t27.5 -12t11.5 -29t-11.5 -29t-27.5 -12z" />
    <glyph glyph-name="quotedbl" unicode="&#x22;" horiz-adv-x="316" 
d="M77 495l-11 213h57l-9 -213h-37zM206 495l-11 213h57l-9 -213h-37z" />
    <glyph glyph-name="numbersign" unicode="#" horiz-adv-x="648" 
d="M133 0l38 185h-131v48h141l40 192h-129v48h139l38 185h52l-38 -185h139l38 185h52l-38 -185h131v-48h-141l-40 -192h129v-48h-139l-38 -185h-52l38 185h-139l-38 -185h-52zM233 233h139l40 192h-139z" />
    <glyph glyph-name="dollar" unicode="$" horiz-adv-x="513" 
d="M223 -78v96q-80 4 -142 43l23 42q57 -38 131 -38q51 0 90.5 25t39.5 78q0 43 -28 77t-68 57l-80 47t-68 62t-28 87q0 57 38 99t105 49v92h49v-91q65 -6 110 -26v-49q-56 29 -126 29q-53 0 -87 -25.5t-34 -75.5q0 -33 20 -61.5t50.5 -46.5l65.5 -40.5t65.5 -44.5t50.5 -57
t20 -79q0 -61 -38.5 -100.5t-109.5 -51.5v-97h-49z" />
    <glyph glyph-name="percent" unicode="%" horiz-adv-x="800" 
d="M203 320q-61 0 -102 45.5t-41 126.5t41 126.5t102 45.5t102 -45.5t41 -126.5t-41 -126.5t-102 -45.5zM203 363q44 0 69 35.5t25 93.5t-25 93.5t-69 35.5t-69 -35.5t-25 -93.5t25 -93.5t69 -35.5zM597 -10q-61 0 -102 45.5t-41 126.5t41 126.5t102 45.5t102 -45.5
t41 -126.5t-41 -126.5t-102 -45.5zM597 33q44 0 69 35.5t25 93.5t-25 93.5t-69 35.5t-69 -35.5t-25 -93.5t25 -93.5t69 -35.5zM169 0l410 659h52l-410 -659h-52z" />
    <glyph glyph-name="ampersand" unicode="&#x26;" horiz-adv-x="694" 
d="M473 82q-108 -92 -228 -92q-87 0 -136 53t-49 126q0 69 35.5 116.5t113.5 81.5q-48 56 -66 88.5t-18 74.5q0 57 43.5 95.5t112.5 38.5q71 0 113.5 -37t42.5 -99q0 -57 -36.5 -98.5t-110.5 -78.5q82 -104 185 -200q67 70 105 163l47 -12q-43 -108 -117 -185
q41 -39 69.5 -57t59.5 -18q12 0 21 3l14 -45q-16 -6 -41 -6q-38 0 -75.5 22t-84.5 66zM251 38q92 0 184 77q-110 109 -197 215q-67 -29 -94.5 -67t-27.5 -87q0 -62 36.5 -100t98.5 -38zM260 388q121 56 121 138q0 33 -23.5 62.5t-75.5 29.5q-49 0 -75 -26.5t-26 -61.5
q0 -31 19 -62t60 -80z" />
    <glyph glyph-name="quotesingle" unicode="'" horiz-adv-x="186" 
d="M76 495l-11 213h57l-9 -213h-37z" />
    <glyph glyph-name="parenleft" unicode="(" horiz-adv-x="298" 
d="M234 -236q-154 190 -154 504t154 504l38 -26q-74 -108 -106 -212.5t-32 -265.5t32 -265.5t106 -212.5z" />
    <glyph glyph-name="parenright" unicode=")" horiz-adv-x="298" 
d="M26 -210q74 108 106 212.5t32 265.5t-32 265.5t-106 212.5l38 26q154 -190 154 -504t-154 -504z" />
    <glyph glyph-name="asterisk" unicode="*" horiz-adv-x="468" 
d="M210 340q0 25 10 160q-107 -74 -133 -89l-24 41q19 11 43.5 23.5t55 26.5t45.5 22q-14 7 -45 21t-55 26t-44 24l23 41q19 -11 41.5 -26l52 -35.5l41.5 -28.5q-11 140 -11 162h48q0 -29 -4.5 -90t-5.5 -71q116 78 135 89l23 -41q-11 -7 -146 -71q127 -61 146 -72l-24 -41
q-18 10 -135 91q11 -140 11 -162h-48z" />
    <glyph glyph-name="plus" unicode="+" horiz-adv-x="511" 
d="M230 0v231h-212v47h212v225h51v-225h212v-47h-212v-231h-51z" />
    <glyph glyph-name="comma" unicode="," horiz-adv-x="206" 
d="M41 -115q46 74 46 148q0 35 -7 67l58 12q6 -33 6 -64q0 -99 -80 -179z" />
    <glyph glyph-name="hyphen" unicode="-" horiz-adv-x="351" 
d="M55 222v50h243v-50h-243z" />
    <glyph glyph-name="period" unicode="." horiz-adv-x="206" 
d="M103 -7q-16 0 -27.5 12t-11.5 29t11.5 29t27.5 12t27.5 -12t11.5 -29t-11.5 -29t-27.5 -12z" />
    <glyph glyph-name="slash" unicode="/" horiz-adv-x="333" 
d="M19 -32l247 728h50l-247 -728h-50z" />
    <glyph glyph-name="zero" unicode="0" horiz-adv-x="543" 
d="M271 -10q-96 0 -156 89t-60 248t60 248t156 89t156.5 -89t60.5 -248t-60.5 -248t-156.5 -89zM271 38q72 0 116.5 78.5t44.5 210.5t-44 210.5t-116 78.5t-116.5 -78.5t-44.5 -210.5t44 -210.5t116 -78.5z" />
    <glyph glyph-name="one" unicode="1" horiz-adv-x="394" 
d="M216 0v604l-156 -80l-20 44l182 96h47v-664h-53z" />
    <glyph glyph-name="two" unicode="2" horiz-adv-x="490" 
d="M45 0q6 72 27.5 130.5t50 95.5t62.5 67.5t66 53t58.5 45t43 51t16.5 63.5q0 55 -35 82.5t-90 27.5q-84 0 -157 -44l-19 43q78 49 176 49q88 0 134.5 -44.5t46.5 -113.5q0 -42 -15.5 -75.5t-41 -57.5t-56.5 -46t-63.5 -47.5t-61 -55.5t-50 -75.5t-28.5 -102.5h312v-46
h-376z" />
    <glyph glyph-name="three" unicode="3" horiz-adv-x="513" 
d="M40 20l15 46q64 -28 139 -28q76 0 129 36.5t53 108.5q0 97 -105 120q-32 7 -87 7h-65v48h57q183 0 183 136q0 56 -32.5 89t-96.5 33q-79 0 -156 -44l-19 43q85 49 176 49q88 0 135.5 -47.5t47.5 -119.5q0 -114 -109 -157v-2q59 -12 93 -51.5t34 -102.5q0 -84 -62 -139
t-181 -55q-81 0 -149 30z" />
    <glyph glyph-name="four" unicode="4" horiz-adv-x="529" 
d="M51 181v44l310 439h37v-437h96v-46h-96v-181h-53v181h-294zM108 227h79h158v187q0 87 5 157z" />
    <glyph glyph-name="five" unicode="5" horiz-adv-x="496" 
d="M54 14l15 46q49 -22 116 -22q79 0 129.5 40.5t50.5 115.5q0 96 -90 130q-37 14 -112 14h-68v321h324l-12 -46h-259v-228h26q73 0 115 -13q132 -41 132 -178q0 -91 -61 -147.5t-180 -56.5q-73 0 -126 24z" />
    <glyph glyph-name="six" unicode="6" horiz-adv-x="521" 
d="M276 -10q-96 0 -158.5 79.5t-62.5 231.5t74.5 257.5t199.5 105.5q57 0 108 -23l-16 -46q-43 21 -92 21q-87 0 -146.5 -71.5t-69.5 -192.5q84 52 167 52q86 0 141 -53t55 -149q0 -98 -55.5 -155t-144.5 -57zM274 38q69 0 107.5 41.5t38.5 119.5q0 72 -39.5 114.5
t-102.5 42.5q-82 0 -166 -58q-2 -114 42 -187t120 -73z" />
    <glyph glyph-name="seven" unicode="7" horiz-adv-x="454" 
d="M89 0q57 325 262 613h-309l-12 46h389v-26q-218 -311 -274 -633h-56z" />
    <glyph glyph-name="eight" unicode="8" horiz-adv-x="537" 
d="M263 -10q-97 0 -152.5 47.5t-55.5 128.5q0 66 38.5 111t97.5 63v2q-115 45 -115 153q0 74 53 121.5t140 47.5q88 0 138 -48t50 -118q0 -109 -111 -158v-2q136 -47 136 -168q0 -79 -60.5 -129.5t-158.5 -50.5zM265 38q66 0 113.5 34t47.5 96q0 33 -13 57.5t-41 42
t-54 27.5t-68 22q-58 -16 -98.5 -52t-40.5 -92q0 -66 44 -100.5t110 -34.5zM286 361q48 16 81.5 49.5t33.5 85.5t-36 86t-96 34t-98.5 -31t-38.5 -83q0 -31 12.5 -55t36 -40t47.5 -26.5t58 -19.5z" />
    <glyph glyph-name="nine" unicode="9" horiz-adv-x="514" 
d="M191 -10q-67 0 -128 24l15 47q56 -23 116 -23q94 0 149.5 72.5t61.5 204.5h-2q-72 -65 -164 -65q-77 0 -135.5 50t-58.5 152q0 92 55 152t142 60q102 0 159.5 -80t57.5 -231q0 -168 -69.5 -265.5t-198.5 -97.5zM248 298q45 0 87.5 23.5t66.5 57.5q0 109 -43.5 173.5
t-117.5 64.5q-64 0 -102 -46t-38 -115q0 -73 38 -115.5t109 -42.5z" />
    <glyph glyph-name="colon" unicode=":" horiz-adv-x="206" 
d="M103 355q-16 0 -27.5 12t-11.5 29t11.5 29t27.5 12t27.5 -12t11.5 -29t-11.5 -29t-27.5 -12zM103 -7q-16 0 -27.5 12t-11.5 29t11.5 29t27.5 12t27.5 -12t11.5 -29t-11.5 -29t-27.5 -12z" />
    <glyph glyph-name="semicolon" unicode=";" horiz-adv-x="206" 
d="M103 355q-16 0 -27.5 12t-11.5 29t11.5 29t27.5 12t27.5 -12t11.5 -29t-11.5 -29t-27.5 -12zM41 -115q46 74 46 148q0 35 -7 67l58 12q6 -33 6 -64q0 -99 -80 -179z" />
    <glyph glyph-name="less" unicode="&#x3c;" horiz-adv-x="614" 
d="M80 234v52l414 193v-51l-360 -167v-2l360 -167v-51z" />
    <glyph glyph-name="equal" unicode="=" horiz-adv-x="511" 
d="M18 154v47h475v-47h-475zM18 309v47h475v-47h-475z" />
    <glyph glyph-name="greater" unicode="&#x3e;" horiz-adv-x="614" 
d="M120 41v51l360 167v2l-360 167v51l414 -193v-52z" />
    <glyph glyph-name="question" unicode="?" horiz-adv-x="444" 
d="M167 169q-41 41 -41 89q0 34 21 63.5t51 51l59.5 43t50.5 50t21 61.5q0 43 -27 66.5t-69 23.5q-74 0 -136 -59l-27 37q67 69 166 69q67 0 107.5 -37.5t40.5 -97.5q0 -40 -21 -74t-51 -57t-60 -43.5t-51 -44t-21 -48.5q0 -33 27 -61zM191 -7q-16 0 -27.5 12t-11.5 29
t11.5 29t27.5 12t27.5 -12t11.5 -29t-11.5 -29t-27.5 -12z" />
    <glyph glyph-name="at" unicode="@" horiz-adv-x="764" 
d="M472 -72l14 -42q-63 -26 -144 -26q-133 0 -217.5 90.5t-84.5 239.5q0 170 103 275t250 105q143 0 237 -87t94 -224q0 -110 -47 -169.5t-119 -59.5q-39 0 -64.5 22.5t-29.5 62.5h-2q-16 -33 -52 -58t-82 -25q-50 0 -84 36.5t-34 116.5q0 98 56 161t138 63q67 0 128 -39
l-22 -167q-4 -36 -4 -50q0 -76 57 -76q48 0 78.5 49.5t30.5 130.5q0 109 -75 188.5t-206 79.5q-126 0 -212 -91t-86 -242q0 -134 72.5 -210.5t184.5 -76.5q70 0 122 23zM467 254l11 88q-31 22 -74 22q-60 0 -100 -50t-40 -127q0 -52 19.5 -80t53.5 -28q44 0 81 38.5
t49 136.5z" />
    <glyph glyph-name="A" unicode="A" horiz-adv-x="568" 
d="M21 0l247 661h32l247 -661h-58l-66 182h-278l-66 -182h-58zM163 228h242l-78 216l-42 119h-2q-2 -6 -42 -119z" />
    <glyph glyph-name="B" unicode="B" horiz-adv-x="520" 
d="M89 0v659h135q99 0 150 -47t51 -120q0 -53 -24 -91.5t-66 -54.5v-2q56 -11 93 -54.5t37 -106.5q0 -86 -57.5 -134.5t-163.5 -48.5h-155zM142 46h107q160 0 160 134q0 61 -42 98t-110 37h-115v-269zM142 361h79q73 0 111 33.5t38 95.5q0 57 -35 90t-109 33h-84v-252z" />
    <glyph glyph-name="C" unicode="C" horiz-adv-x="574" 
d="M519 77l15 -44q-82 -43 -173 -43q-140 0 -223 92t-83 239q0 146 89.5 244.5t228.5 98.5q100 0 158 -36v-52q-75 40 -158 40q-114 0 -188 -83.5t-74 -206.5q0 -129 69 -208.5t185 -79.5q79 0 154 39z" />
    <glyph glyph-name="D" unicode="D" horiz-adv-x="626" 
d="M89 0v659h137q170 0 257.5 -90.5t87.5 -236.5q0 -70 -20.5 -129t-61 -105t-108 -72t-155.5 -26h-137zM142 46h82q79 0 137 23t91 64t48 91.5t15 112.5q0 124 -73 200t-219 76h-81v-567z" />
    <glyph glyph-name="E" unicode="E" horiz-adv-x="453" 
d="M89 0v659h298l-20 -46h-225v-252h220v-46h-220v-269h253v-46h-306z" />
    <glyph glyph-name="F" unicode="F" horiz-adv-x="432" 
d="M89 0v659h298l-20 -46h-225v-252h220v-46h-220v-315h-53z" />
    <glyph glyph-name="G" unicode="G" horiz-adv-x="657" 
d="M578 307v-268q-91 -49 -206 -49q-141 0 -229 92.5t-88 238.5q0 153 91.5 248t239.5 95q96 0 175 -37v-51q-80 41 -173 41q-129 0 -203 -79.5t-74 -208.5q0 -135 73.5 -213t196.5 -78q88 0 144 30v239h53z" />
    <glyph glyph-name="H" unicode="H" horiz-adv-x="665" 
d="M89 0v659h53v-298h381v298h53v-659h-53v315h-381v-315h-53z" />
    <glyph glyph-name="I" unicode="I" horiz-adv-x="231" 
d="M89 0v659h53v-659h-53z" />
    <glyph glyph-name="J" unicode="J" horiz-adv-x="270" 
d="M-24 -174l9 47q19 -6 46 -6q55 0 76 29t21 87v676h53v-691q0 -149 -153 -149q-28 0 -52 7z" />
    <glyph glyph-name="K" unicode="K" horiz-adv-x="510" 
d="M89 0v659h53v-311h2l261 311h66l-279 -329l298 -330h-70l-276 306h-2v-306h-53z" />
    <glyph glyph-name="L" unicode="L" horiz-adv-x="417" 
d="M89 0v659h53v-613h250v-46h-303z" />
    <glyph glyph-name="M" unicode="M" horiz-adv-x="778" 
d="M89 0v659h51l189 -289q48 -73 64 -100h2l64 103l179 286h51v-659h-53v446q0 83 2 122h-2q-17 -32 -48 -82l-178 -286h-31l-191 290q-34 51 -46 76h-2q2 -34 2 -120v-446h-53z" />
    <glyph glyph-name="N" unicode="N" horiz-adv-x="702" 
d="M613 0h-41l-330 436q-53 69 -100 139h-2q2 -72 2 -118v-457h-53v659h49l317 -420q61 -80 105 -147h2q-2 72 -2 118v449h53v-659z" />
    <glyph glyph-name="O" unicode="O" horiz-adv-x="742" 
d="M371 -10q-137 0 -226.5 92t-89.5 244q0 149 89.5 243.5t226.5 94.5q138 0 227 -95.5t89 -242.5q0 -152 -90.5 -244t-225.5 -92zM371 38q118 0 189 80t71 208q0 124 -69 207t-191 83q-117 0 -188.5 -81t-71.5 -209t71 -208t189 -80z" />
    <glyph glyph-name="P" unicode="P" horiz-adv-x="483" 
d="M89 0v659h108q90 0 141 -31q90 -55 90 -174q0 -126 -103 -178q-52 -26 -133 -26h-50v-250h-53zM142 296h55q63 0 104 22q72 38 72 136q0 94 -67 135q-40 24 -107 24h-57v-317z" />
    <glyph glyph-name="Q" unicode="Q" horiz-adv-x="742" 
d="M292 -1q-106 25 -171.5 112t-65.5 215q0 149 89.5 243.5t226.5 94.5q138 0 227 -95.5t89 -242.5q0 -153 -90.5 -244.5t-229.5 -91.5q41 -51 81.5 -74.5t95.5 -23.5q46 0 82 12l13 -44q-45 -16 -104 -16q-76 0 -131.5 40t-111.5 115zM371 38q118 0 189 80t71 208
q0 124 -69 207t-191 83q-117 0 -188.5 -81t-71.5 -209t71 -208t189 -80z" />
    <glyph glyph-name="R" unicode="R" horiz-adv-x="519" 
d="M89 0v659h114q98 0 152 -38q68 -49 68 -138q0 -135 -136 -176v-2q20 -10 78 -104l124 -201h-64l-124 202q-49 80 -77 88h-82v-290h-53zM142 336h66q56 0 99 25q61 35 61 117q0 65 -40 99q-41 36 -119 36h-67v-277z" />
    <glyph glyph-name="S" unicode="S" horiz-adv-x="473" 
d="M55 37l24 43q64 -42 141 -42q63 0 103 29t40 90q0 47 -30 82t-73.5 58.5l-86.5 48t-73 64t-30 93.5q0 70 50 115.5t136 45.5q77 0 135 -29v-51q-57 33 -134 33q-55 0 -93.5 -26.5t-38.5 -81.5q0 -37 21.5 -67.5t54.5 -49.5l70.5 -42l70.5 -45t54.5 -60t21.5 -85
q0 -80 -54.5 -125t-146.5 -45q-90 0 -162 47z" />
    <glyph glyph-name="T" unicode="T" horiz-adv-x="478" 
d="M211 0v613h-189v46h452l-20 -46h-190v-613h-53z" />
    <glyph glyph-name="U" unicode="U" horiz-adv-x="633" 
d="M316 -10q-178 0 -221 146q-11 40 -11 96v427h53v-421q0 -57 12 -93q37 -108 168 -108q130 0 167 108q12 36 12 97v417h53v-427q0 -57 -13 -99q-45 -143 -220 -143z" />
    <glyph glyph-name="V" unicode="V" horiz-adv-x="589" 
d="M277 -3l-258 662h59l163 -420q23 -58 54 -148h2q30 90 54 151l161 417h58l-259 -662h-34z" />
    <glyph glyph-name="W" unicode="W" horiz-adv-x="880" 
d="M237 -3l-218 662h60l130 -403q39 -122 50 -164h2q21 70 53 162l102 295l-37 110h61l136 -409q40 -124 49 -158h2q19 73 46 156l130 411h58l-216 -662h-40l-108 323q-38 113 -51 155h-2q-18 -58 -52 -156l-112 -322h-43z" />
    <glyph glyph-name="X" unicode="X" horiz-adv-x="569" 
d="M25 0l228 332l-216 327h65l187 -285l191 285h64l-222 -326l221 -333h-63l-193 291l-199 -291h-63z" />
    <glyph glyph-name="Y" unicode="Y" horiz-adv-x="514" 
d="M233 0v264l-214 395h61l180 -337h2l174 337h59l-209 -396v-263h-53z" />
    <glyph glyph-name="Z" unicode="Z" horiz-adv-x="535" 
d="M60 0l333 613h-320l-16 46h418l-332 -613h355v-46h-438z" />
    <glyph glyph-name="bracketleft" unicode="[" horiz-adv-x="265" 
d="M94 -232v1002h143v-43h-94v-916h94v-43h-143z" />
    <glyph glyph-name="backslash" unicode="\" horiz-adv-x="345" 
d="M270 -32l-247 728h51l247 -728h-51z" />
    <glyph glyph-name="bracketright" unicode="]" horiz-adv-x="265" 
d="M30 -232v43h94v916h-94v43h143v-1002h-143z" />
    <glyph glyph-name="asciicircum" unicode="^" horiz-adv-x="614" 
d="M117 287l164 372h52l164 -372h-51l-138 318h-2l-138 -318h-51z" />
    <glyph glyph-name="underscore" unicode="_" horiz-adv-x="450" 
d="M0 -110v44h450v-44h-450z" />
    <glyph glyph-name="grave" unicode="`" horiz-adv-x="350" 
d="M167 531l-81 147h67l58 -147h-44z" />
    <glyph glyph-name="a" unicode="a" horiz-adv-x="448" 
d="M344 0l-12 57q-67 -67 -145 -67q-65 0 -106 38.5t-41 105.5q0 91 80 128q38 18 116 21l95 3v36q0 57 -29.5 86t-77.5 29q-65 0 -133 -41l-23 41q73 48 158 48q70 0 114 -38t44 -118v-150q0 -141 10 -179h-50zM331 240l-92 -3q-61 -1 -97 -20q-46 -24 -46 -81
q0 -43 25.5 -70.5t69.5 -27.5q71 0 140 74v128z" />
    <glyph glyph-name="b" unicode="b" horiz-adv-x="486" 
d="M194 -10q-74 0 -121 27v691h53v-249q55 26 113 26q90 0 147.5 -61.5t57.5 -174.5q0 -121 -69.5 -190t-180.5 -69zM201 38q84 0 135.5 57t51.5 153q0 86 -39.5 137.5t-115.5 51.5q-16 0 -31 -2t-27.5 -6t-19.5 -7t-17.5 -8.5t-11.5 -5.5v-355q37 -15 75 -15z" />
    <glyph glyph-name="c" unicode="c" horiz-adv-x="415" 
d="M260 -10q-102 0 -160 69t-58 172q0 107 61 180.5t168 73.5q62 0 113 -27v-50q-53 30 -113 30q-78 0 -125.5 -56t-47.5 -144q0 -94 45 -147t122 -53q58 0 116 33l18 -40q-64 -41 -139 -41z" />
    <glyph glyph-name="d" unicode="d" horiz-adv-x="493" 
d="M279 -10q-102 0 -169.5 62.5t-67.5 177.5q0 113 69 184t169 71q47 0 87 -12v235h53v-687q-54 -31 -141 -31zM285 38q49 0 82 15v370q-41 15 -83 15q-78 0 -132 -55.5t-54 -150.5q0 -89 49 -141.5t138 -52.5z" />
    <glyph glyph-name="e" unicode="e" horiz-adv-x="450" 
d="M407 232h-309q1 -84 45 -139t123 -55q58 0 115 32l18 -39q-61 -41 -143 -41q-101 0 -157.5 72t-56.5 183q0 107 52.5 173.5t133.5 66.5q85 0 132 -64t47 -175v-14zM99 278h250q-2 66 -33 113t-87 47q-57 0 -92.5 -45.5t-37.5 -114.5z" />
    <glyph glyph-name="f" unicode="f" horiz-adv-x="282" 
d="M101 0v427h-59v46h59v90q0 80 38 112.5t88 32.5q34 0 61 -12l-12 -45q-23 10 -49 10q-73 0 -73 -94v-94h118l-18 -46h-100v-427h-53z" />
    <glyph glyph-name="g" unicode="g" horiz-adv-x="461" 
d="M224 -237q-92 0 -147 35.5t-55 99.5q0 79 89 125q-34 19 -34 59q0 49 47 95q-71 49 -71 141q0 72 48.5 119t117.5 47q46 0 86 -17q7 -3 10 0q36 38 90 38q15 0 27 -3l-15 -46q-12 3 -24 3q-28 0 -50 -16q58 -49 58 -126q0 -75 -48.5 -122t-127.5 -47q-34 0 -64 11
q-31 -32 -31 -63q0 -22 23 -35.5t58 -17.5t75 -12t75 -18.5t58 -37.5t23 -68q0 -67 -59.5 -105.5t-158.5 -38.5zM226 -191q79 0 119.5 26.5t40.5 66.5q0 27 -14.5 44t-41.5 26t-54 13l-64.5 9.5t-60.5 11.5q-77 -45 -77 -100q0 -45 42 -71t110 -26zM226 196q52 0 85 32
t33 89q0 53 -33.5 86t-84.5 33q-53 0 -85 -32.5t-32 -85.5q0 -55 32 -88.5t85 -33.5z" />
    <glyph glyph-name="h" unicode="h" horiz-adv-x="496" 
d="M73 0v708h53v-298q89 75 166 75q59 0 97.5 -41.5t38.5 -122.5v-321h-53v302q0 134 -91 134q-68 0 -158 -81v-355h-53z" />
    <glyph glyph-name="i" unicode="i" horiz-adv-x="219" 
d="M83 0v473h53v-473h-53zM109 593q-17 0 -27.5 11.5t-10.5 28.5t10.5 28.5t27.5 11.5q18 0 28.5 -11t10.5 -29t-11 -29t-28 -11z" />
    <glyph glyph-name="j" unicode="j" horiz-adv-x="229" 
d="M-43 -225l12 46q24 -10 46 -10q41 0 59.5 26t18.5 84v552h53v-564q0 -75 -36 -110.5t-90 -35.5q-38 0 -63 12zM119 593q-17 0 -27.5 11.5t-10.5 28.5t10.5 28.5t27.5 11.5q18 0 28.5 -11t10.5 -29t-11 -29t-28 -11z" />
    <glyph glyph-name="k" unicode="k" horiz-adv-x="416" 
d="M73 0v708h53v-414h2l191 179h68l-213 -197l238 -276h-68l-216 253h-2v-253h-53z" />
    <glyph glyph-name="l" unicode="l" horiz-adv-x="223" 
d="M73 77v631h53v-612q0 -30 8.5 -41.5t28.5 -11.5q15 0 29 7l12 -43q-26 -12 -56 -12q-75 0 -75 82z" />
    <glyph glyph-name="m" unicode="m" horiz-adv-x="788" 
d="M70 0v473h44l8 -64q88 76 167 76q89 0 120 -85q93 85 178 85q59 0 96 -41.5t37 -122.5v-321h-53v302q0 134 -88 134q-69 0 -159 -81q2 -22 2 -34v-321h-53v302q0 134 -88 134q-68 0 -158 -81v-355h-53z" />
    <glyph glyph-name="n" unicode="n" horiz-adv-x="493" 
d="M70 0v473h44l8 -64q88 76 167 76q59 0 97.5 -41.5t38.5 -122.5v-321h-53v302q0 134 -91 134q-68 0 -158 -81v-355h-53z" />
    <glyph glyph-name="o" unicode="o" horiz-adv-x="505" 
d="M252 -10q-94 0 -152 71t-58 176q0 106 58 177t153 71q94 0 152 -71t58 -177q0 -105 -58 -176t-153 -71zM252 38q69 0 112 55.5t43 143.5q0 89 -42.5 144.5t-111.5 55.5t-112 -55.5t-43 -144.5q0 -88 42.5 -143.5t111.5 -55.5z" />
    <glyph glyph-name="p" unicode="p" horiz-adv-x="489" 
d="M70 -237v694q72 28 145 28q108 0 170 -64t62 -181q0 -115 -67 -182.5t-168 -67.5q-48 0 -89 19v-246h-53zM123 61q43 -23 89 -23q85 0 132 55t47 149q0 97 -49.5 146.5t-127.5 49.5q-46 0 -91 -15v-362z" />
    <glyph glyph-name="q" unicode="q" horiz-adv-x="491" 
d="M240 -10q-83 0 -140.5 63.5t-57.5 170.5q0 122 70 191.5t177 69.5q70 0 134 -27v-695h-53v266q-58 -39 -130 -39zM245 38q69 0 125 47v336q-36 17 -83 17q-88 0 -138.5 -58.5t-50.5 -152.5q0 -84 41.5 -136.5t105.5 -52.5z" />
    <glyph glyph-name="r" unicode="r" horiz-adv-x="301" 
d="M70 0v473h44l7 -63q67 75 135 75q28 0 44 -9l-19 -52q-19 7 -35 7q-50 0 -123 -77v-354h-53z" />
    <glyph glyph-name="s" unicode="s" horiz-adv-x="361" 
d="M28 28l18 43q57 -33 114 -33q47 0 78 21.5t31 65.5q0 31 -23 52.5t-55.5 35t-64.5 29.5t-55 45.5t-23 72.5q0 53 39.5 89t111.5 36q56 0 109 -22v-49q-54 24 -106 24q-42 0 -71.5 -17.5t-29.5 -57.5q0 -33 23 -54.5t55.5 -35.5t65 -29.5t55.5 -45t23 -73.5
q0 -65 -46.5 -100t-120.5 -35q-70 0 -128 38z" />
    <glyph glyph-name="t" unicode="t" horiz-adv-x="330" 
d="M196 -10q-94 0 -94 103v334h-77v46h77v106l53 19v-125h140l-18 -46h-122v-330q0 -59 50 -59q40 0 80 28l22 -39q-52 -37 -111 -37z" />
    <glyph glyph-name="u" unicode="u" horiz-adv-x="492" 
d="M200 -10q-39 0 -72.5 20.5t-47.5 65.5q-10 32 -10 80v317h53v-297q0 -55 8 -80q17 -57 81 -57q44 0 85.5 23.5t63.5 53.5v357h53v-294q0 -141 10 -179h-50l-12 57q-77 -67 -162 -67z" />
    <glyph glyph-name="v" unicode="v" horiz-adv-x="430" 
d="M191 -3l-179 476h58l147 -402h2l142 402h57l-176 -476h-51z" />
    <glyph glyph-name="w" unicode="w" horiz-adv-x="664" 
d="M162 -3l-150 476h58l118 -402h2l112 402h59l117 -402h2l115 402h57l-149 -476h-54l-116 404h-2l-115 -404h-54z" />
    <glyph glyph-name="x" unicode="x" horiz-adv-x="422" 
d="M12 0l169 237l-161 236h64l131 -196l135 196h60l-164 -234l162 -239h-62l-135 199l-137 -199h-62z" />
    <glyph glyph-name="y" unicode="y" horiz-adv-x="443" 
d="M431 473l-175 -519q-38 -113 -86 -152t-112 -39q-42 0 -74 13l12 47q29 -12 63 -12q106 0 158 183l-206 479h59l170 -404h2l132 404h57z" />
    <glyph glyph-name="z" unicode="z" horiz-adv-x="368" 
d="M24 0l249 427h-222l-13 46h317l-247 -427h245v-46h-329z" />
    <glyph glyph-name="braceleft" unicode="{" horiz-adv-x="291" 
d="M254 -220q-79 16 -110 57.5t-31 117.5v215q0 73 -69 77v52q69 4 69 77v215q0 76 31 117.5t110 57.5l11 -51q-53 -9 -75.5 -39t-22.5 -84v-202q0 -102 -63 -116v-2q63 -14 63 -116v-202q0 -54 22.5 -84t75.5 -39z" />
    <glyph glyph-name="bar" unicode="|" horiz-adv-x="226" 
d="M89 -237v1017h49v-1017h-49z" />
    <glyph glyph-name="braceright" unicode="}" horiz-adv-x="291" 
d="M28 -169q53 9 75.5 39t22.5 84v202q0 102 63 116v2q-63 14 -63 116v202q0 54 -22.5 84t-75.5 39l11 51q79 -16 110 -57.5t31 -117.5v-215q0 -73 69 -77v-52q-69 -4 -69 -77v-215q0 -76 -31 -117.5t-110 -57.5z" />
    <glyph glyph-name="asciitilde" unicode="~" horiz-adv-x="511" 
d="M62 217l-33 30q59 62 118 62q35 0 114 -31.5t104 -31.5q23 0 40.5 10t43.5 35l33 -30q-59 -62 -118 -62q-32 0 -113 31.5t-105 31.5q-23 0 -40.5 -10t-43.5 -35z" />
    <glyph glyph-name="exclamdown" unicode="&#xa1;" horiz-adv-x="266" 
d="M133 402q-16 0 -27.5 12t-11.5 29t11.5 29t27.5 12t27.5 -12t11.5 -29t-11.5 -29t-27.5 -12zM106 -180v53q0 202 2 275t13 163h24q7 -63 10 -124.5t3.5 -108.5t0.5 -206v-52h-53z" />
    <glyph glyph-name="cent" unicode="&#xa2;" horiz-adv-x="513" 
d="M253 0v105q-79 10 -127.5 73t-48.5 149q0 85 48.5 151t127.5 81v100h49v-96q58 -1 102 -25v-48q-50 27 -113 27q-68 0 -114 -52t-46 -131q0 -86 44 -135.5t111 -49.5q59 0 115 30l17 -40q-49 -31 -116 -35v-104h-49z" />
    <glyph glyph-name="sterling" unicode="&#xa3;" horiz-adv-x="513" 
d="M72 0v43q52 31 72 110t20 162h-82v46h82v98q0 62 18.5 105.5t48.5 63.5t57 28t56 8q45 0 99 -16l-10 -45q-48 14 -85 14q-55 0 -93 -36.5t-38 -124.5v-95h192l-18 -46h-174q0 -189 -73 -267v-2h87h211v-46h-370z" />
    <glyph glyph-name="currency" unicode="&#xa4;" horiz-adv-x="513" 
d="M459 90l-63 63q-60 -49 -140 -49q-78 0 -140 49l-63 -63l-36 36l63 63q-50 61 -50 141t49 140l-63 63l36 36l63 -63q63 50 141 50t141 -50l63 63l36 -36l-63 -63q49 -62 49 -140t-50 -141l63 -63zM256 155q72 0 121 51.5t49 123.5t-49 123.5t-121 51.5t-121 -51.5
t-49 -123.5t49 -123.5t121 -51.5z" />
    <glyph glyph-name="yen" unicode="&#xa5;" horiz-adv-x="513" 
d="M230 0v128h-155v46h155v89h-155v46h135l-168 350h57l157 -337h1l157 337h57l-168 -350h135v-46h-155v-89h155v-46h-155v-128h-53z" />
    <glyph glyph-name="brokenbar" unicode="&#xa6;" horiz-adv-x="226" 
d="M89 -237v350h49v-350h-49zM89 430v350h49v-350h-49z" />
    <glyph glyph-name="section" unicode="&#xa7;" horiz-adv-x="512" 
d="M50 -118l24 43q64 -42 141 -42q59 0 100.5 25.5t41.5 87.5q0 43 -30 74t-73 51.5l-86 42.5t-73 59t-30 89q0 44 24 82.5t64 61.5q-49 44 -49 111t50 111.5t130 44.5q83 0 141 -29v-51q-57 33 -137 33q-52 0 -90 -26.5t-38 -77.5q0 -43 30 -74t73 -51.5l86 -43t73 -62.5
t30 -96q0 -87 -81 -140q42 -42 42 -107q0 -79 -56 -121t-143 -42q-92 0 -164 47zM340 131q57 43 57 110q0 40 -22.5 70.5t-49 45.5t-72.5 38t-68 37q-65 -35 -65 -108q0 -31 13.5 -55.5t39 -42.5t51 -31.5l60 -31t56.5 -32.5z" />
    <glyph glyph-name="dieresis" unicode="&#xa8;" horiz-adv-x="350" 
d="M89 568q-15 0 -25.5 10.5t-10.5 25.5t10.5 25.5t25.5 10.5t25.5 -10.5t10.5 -25.5t-10.5 -25.5t-25.5 -10.5zM261 568q-15 0 -25.5 10.5t-10.5 25.5t10.5 25.5t25.5 10.5t25.5 -10.5t10.5 -25.5t-10.5 -25.5t-25.5 -10.5z" />
    <glyph glyph-name="copyright" unicode="&#xa9;" horiz-adv-x="784" 
d="M392 -10q-142 0 -237 97.5t-95 239.5t95 239.5t237 97.5t237 -97.5t95 -239.5t-95 -239.5t-237 -97.5zM392 27q124 0 206 86t82 214t-82 213.5t-206 85.5t-206 -85.5t-82 -213.5t82 -214t206 -86zM495 194l14 -33q-50 -33 -112 -33q-82 0 -128.5 55.5t-46.5 138.5
q0 85 49 144.5t135 59.5q50 0 91 -22v-42q-41 24 -91 24q-63 0 -101 -44t-38 -115q0 -76 36 -118t98 -42q46 0 94 27z" />
    <glyph glyph-name="ordfeminine" unicode="&#xaa;" horiz-adv-x="345" 
d="M27 143v43h287v-43h-287zM250 270l-8 36q-47 -43 -102 -43q-47 0 -77 27.5t-30 75.5q0 105 150 108l55 1v19q0 36 -20.5 54.5t-54.5 18.5q-44 0 -91 -27l-21 36q53 35 115 35q53 0 86.5 -28.5t33.5 -89.5v-95q0 -93 11 -128h-47zM238 355v78l-62 -2q-93 -3 -93 -63
q0 -27 16 -44t43 -17q48 0 96 48z" />
    <glyph glyph-name="guillemotleft" unicode="&#xab;" horiz-adv-x="528" 
d="M254 420l-139 -179l139 -179l-38 -28l-164 207l164 207zM447 420l-139 -179l139 -179l-38 -28l-164 207l164 207z" />
    <glyph glyph-name="logicalnot" unicode="&#xac;" horiz-adv-x="511" 
d="M442 0v231h-424v47h475v-278h-51z" />
    <glyph glyph-name="registered" unicode="&#xae;" horiz-adv-x="582" 
d="M290 180q-103 0 -170.5 69.5t-67.5 172.5t67.5 172.5t170.5 69.5t170.5 -69.5t67.5 -172.5t-67.5 -172.5t-170.5 -69.5zM290 213q89 0 145.5 59.5t56.5 149.5t-56.5 149.5t-145.5 59.5t-145.5 -59.5t-56.5 -149.5t56.5 -149.5t145.5 -59.5zM217 299v257h60q30 0 49 -7
q43 -16 43 -63q0 -55 -62 -67v-2q18 -14 78 -118h-38q-58 103 -76 111h-22v-111h-32zM249 437h22q62 0 62 48q0 28 -22 38q-13 6 -41 6h-21v-92z" />
    <glyph glyph-name="macron" unicode="&#xaf;" horiz-adv-x="350" 
d="M59 576v46h232v-46h-232z" />
    <glyph glyph-name="degree" unicode="&#xb0;" horiz-adv-x="404" 
d="M202 353q-65 0 -109 44t-44 109t44 109t109 44t109 -44t44 -109t-44 -109t-109 -44zM202 397q44 0 74 31t30 78t-30 78t-74 31t-74 -31t-30 -78t30 -78t74 -31z" />
    <glyph glyph-name="plusminus" unicode="&#xb1;" horiz-adv-x="511" 
d="M230 107v168h-212v47h212v168h51v-168h212v-47h-212v-168h-51zM18 0v47h475v-47h-475z" />
    <glyph glyph-name="twosuperior" unicode="&#xb2;" horiz-adv-x="318" 
d="M33 405q3 54 24 95t48.5 64t55 41.5t46 40t18.5 47.5q0 25 -17.5 40t-48.5 15q-44 0 -93 -30l-20 37q57 36 114 36q54 0 84 -27t30 -72q0 -31 -17 -56t-42.5 -43.5l-51.5 -37t-48 -45.5t-28 -60h186v-45h-240z" />
    <glyph glyph-name="threesuperior" unicode="&#xb3;" horiz-adv-x="322" 
d="M23 418l14 40q41 -18 83 -18q100 0 100 69q0 44 -46 59q-27 9 -71 9h-35v43h34q41 0 66 11q40 19 40 59q0 30 -20 44t-51 14q-40 0 -86 -22l-17 39q50 26 106 26q51 0 84 -27t33 -71q0 -67 -70 -90v-2q82 -16 82 -95q0 -47 -37.5 -78t-111.5 -31q-57 0 -97 21z" />
    <glyph glyph-name="acute" unicode="&#xb4;" horiz-adv-x="350" 
d="M139 531l59 147h63l-80 -147h-42z" />
    <glyph glyph-name="mu" unicode="&#xb5;" horiz-adv-x="511" 
d="M361 194v279h53v-337q0 -57 9.5 -75t32.5 -18q15 0 29 7l12 -43q-26 -12 -53 -12q-36 0 -53.5 24.5t-18.5 62.5h-2q-46 -92 -143 -92q-69 0 -105 52h-2q3 -37 3 -131v-148h-53v710h53v-321q0 -50 28 -81.5t78 -31.5q52 0 92 39.5t40 115.5z" />
    <glyph glyph-name="paragraph" unicode="&#xb6;" horiz-adv-x="599" 
d="M265 -160v387q-87 2 -140.5 62t-53.5 154q0 96 58 156t160 60h197v-819h-53v770h-115v-770h-53z" />
    <glyph glyph-name="periodcentered" unicode="&#xb7;" horiz-adv-x="206" 
d="M103 214q-16 0 -27.5 12t-11.5 29t11.5 29t27.5 12t27.5 -12t11.5 -29t-11.5 -29t-27.5 -12z" />
    <glyph glyph-name="cedilla" unicode="&#xb8;" horiz-adv-x="350" 
d="M91 -200l12 38q25 -11 51 -11q55 0 55 42q0 14 -7 22.5t-21.5 12t-26.5 4.5t-32 1l28 91h47l-18 -56q33 -2 56.5 -19t23.5 -53q0 -40 -30 -62t-75 -22q-32 0 -63 12z" />
    <glyph glyph-name="onesuperior" unicode="&#xb9;" horiz-adv-x="314" 
d="M176 405v333l-121 -49l-19 37l149 64h39v-385h-48z" />
    <glyph glyph-name="ordmasculine" unicode="&#xba;" horiz-adv-x="367" 
d="M34 143v43h299v-43h-299zM183 263q-68 0 -110.5 50t-42.5 124t42.5 124t111.5 50q68 0 110.5 -50t42.5 -124t-42 -124t-112 -50zM183 307q47 0 76 36.5t29 93.5t-29 93.5t-75 36.5q-47 0 -75.5 -36.5t-28.5 -93.5t28.5 -93.5t74.5 -36.5z" />
    <glyph glyph-name="guillemotright" unicode="&#xbb;" horiz-adv-x="528" 
d="M81 62l139 179l-139 179l38 28l164 -207l-164 -207zM274 62l139 179l-139 179l38 28l164 -207l-164 -207z" />
    <glyph glyph-name="onequarter" unicode="&#xbc;" horiz-adv-x="825" 
d="M159 0l410 659h52l-410 -659h-52zM190 270v333l-121 -49l-19 37l149 64h39v-385h-48zM439 89v35l191 261h40v-254h53v-42h-53v-89h-48v89h-183zM495 131h76h51v48q0 73 3 129z" />
    <glyph glyph-name="onehalf" unicode="&#xbd;" horiz-adv-x="825" 
d="M157 0l410 659h52l-410 -659h-52zM190 270v333l-121 -49l-19 37l149 64h39v-385h-48zM508 0q3 54 24 95t48.5 64t55 41.5t46 40t18.5 47.5q0 25 -17.5 40t-48.5 15q-44 0 -93 -30l-20 37q57 36 114 36q54 0 84 -27t30 -72q0 -31 -17 -56t-42.5 -43.5l-51.5 -37t-48 -45.5
t-28 -60h186v-45h-240z" />
    <glyph glyph-name="threequarters" unicode="&#xbe;" horiz-adv-x="825" 
d="M194 0l410 659h52l-410 -659h-52zM463 89v35l191 261h40v-254h53v-42h-53v-89h-48v89h-183zM519 131h76h51v48q0 73 3 129zM44 284l14 40q40 -18 83 -18q100 0 100 69q0 44 -46 59q-27 9 -71 9h-35v43h34q41 0 66 11q40 19 40 59q0 30 -20 44t-51 14q-40 0 -86 -22
l-17 39q50 26 106 26q51 0 84 -27t33 -71q0 -67 -70 -90v-2q82 -16 82 -95q0 -47 -37.5 -78t-111.5 -31q-57 0 -97 21z" />
    <glyph glyph-name="questiondown" unicode="&#xbf;" horiz-adv-x="444" 
d="M263 403q-16 0 -27.5 12t-11.5 29t11.5 29t27.5 12t27.5 -12t11.5 -29t-11.5 -29t-27.5 -12zM357 -80l27 -37q-67 -69 -166 -69q-67 0 -107.5 37.5t-40.5 97.5q0 40 21 74t51 57t60 43.5t51 44t21 48.5q0 33 -27 61l40 32q41 -41 41 -89q0 -34 -21 -63.5t-51 -51
l-59.5 -43t-50.5 -50t-21 -61.5q0 -43 27 -66.5t69 -23.5q74 0 136 59z" />
    <glyph glyph-name="Agrave" unicode="&#xc0;" horiz-adv-x="568" 
d="M21 0l247 661h32l247 -661h-58l-66 182h-278l-66 -182h-58zM163 228h242l-78 216l-42 119h-2q-2 -6 -42 -119zM276 696l-81 147h67l58 -147h-44z" />
    <glyph glyph-name="Aacute" unicode="&#xc1;" horiz-adv-x="568" 
d="M21 0l247 661h32l247 -661h-58l-66 182h-278l-66 -182h-58zM163 228h242l-78 216l-42 119h-2q-2 -6 -42 -119zM248 696l59 147h63l-80 -147h-42z" />
    <glyph glyph-name="Acircumflex" unicode="&#xc2;" horiz-adv-x="568" 
d="M21 0l247 661h32l247 -661h-58l-66 182h-278l-66 -182h-58zM163 228h242l-78 216l-42 119h-2q-2 -6 -42 -119zM159 696l98 147h57l98 -147h-50l-76 109l-77 -109h-50z" />
    <glyph glyph-name="Atilde" unicode="&#xc3;" horiz-adv-x="568" 
d="M21 0l247 661h32l247 -661h-58l-66 182h-278l-66 -182h-58zM163 228h242l-78 216l-42 119h-2q-2 -6 -42 -119zM153 729v15q0 33 19 53.5t47 20.5q29 0 70 -25t56 -25q29 0 29 44h41v-15q0 -33 -19 -53.5t-47 -20.5t-69.5 25t-56.5 25q-29 0 -29 -44h-41z" />
    <glyph glyph-name="Adieresis" unicode="&#xc4;" horiz-adv-x="568" 
d="M21 0l247 661h32l247 -661h-58l-66 182h-278l-66 -182h-58zM163 228h242l-78 216l-42 119h-2q-2 -6 -42 -119zM198 708q-15 0 -25.5 10.5t-10.5 25.5t10.5 25.5t25.5 10.5t25.5 -10.5t10.5 -25.5t-10.5 -25.5t-25.5 -10.5zM370 708q-15 0 -25.5 10.5t-10.5 25.5
t10.5 25.5t25.5 10.5t25.5 -10.5t10.5 -25.5t-10.5 -25.5t-25.5 -10.5z" />
    <glyph glyph-name="Aring" unicode="&#xc5;" horiz-adv-x="568" 
d="M21 0l244 654q-36 5 -57.5 30t-21.5 63q0 42 27 68t70 26t70 -26t27 -68q0 -37 -21.5 -62t-56.5 -30l245 -655h-58l-66 182h-278l-66 -182h-58zM163 228h242l-78 218q-31 86 -42 123h-2q-6 -21 -42 -123zM283 689q24 0 38.5 16t14.5 42t-14.5 42t-38.5 16t-38.5 -16
t-14.5 -42t14.5 -42t38.5 -16z" />
    <glyph glyph-name="AE" unicode="&#xc6;" horiz-adv-x="778" 
d="M19 0l338 659h355l-20 -46h-283l44 -252h234v-46h-226l47 -269h212v-46h-259l-32 182h-257l-94 -182h-59zM195 228h226l-37 213q-4 21 -10.5 63l-9.5 62h-2q-10 -23 -70 -144z" />
    <glyph glyph-name="Ccedilla" unicode="&#xc7;" horiz-adv-x="574" 
d="M246 -200l12 38q25 -11 51 -11q55 0 55 42q0 26 -23 33.5t-64 6.5l26 86q-115 19 -181.5 107t-66.5 219q0 146 89.5 244.5t228.5 98.5q100 0 158 -36v-52q-75 40 -158 40q-114 0 -188 -83.5t-74 -206.5q0 -129 69 -208.5t185 -79.5q79 0 154 39l15 -44q-42 -22 -93.5 -34
t-91.5 -8l-15 -47q33 -2 56.5 -19t23.5 -53q0 -40 -30 -62t-75 -22q-32 0 -63 12z" />
    <glyph glyph-name="Egrave" unicode="&#xc8;" horiz-adv-x="453" 
d="M89 0v659h298l-20 -46h-225v-252h220v-46h-220v-269h253v-46h-306zM227 696l-81 147h67l58 -147h-44z" />
    <glyph glyph-name="Eacute" unicode="&#xc9;" horiz-adv-x="453" 
d="M89 0v659h298l-20 -46h-225v-252h220v-46h-220v-269h253v-46h-306zM199 696l59 147h63l-80 -147h-42z" />
    <glyph glyph-name="Ecircumflex" unicode="&#xca;" horiz-adv-x="453" 
d="M89 0v659h298l-20 -46h-225v-252h220v-46h-220v-269h253v-46h-306zM108 696l98 147h57l98 -147h-50l-76 109l-77 -109h-50z" />
    <glyph glyph-name="Edieresis" unicode="&#xcb;" horiz-adv-x="453" 
d="M89 0v659h298l-20 -46h-225v-252h220v-46h-220v-269h253v-46h-306zM149 708q-15 0 -25.5 10.5t-10.5 25.5t10.5 25.5t25.5 10.5t25.5 -10.5t10.5 -25.5t-10.5 -25.5t-25.5 -10.5zM321 708q-15 0 -25.5 10.5t-10.5 25.5t10.5 25.5t25.5 10.5t25.5 -10.5t10.5 -25.5
t-10.5 -25.5t-25.5 -10.5z" />
    <glyph glyph-name="Igrave" unicode="&#xcc;" horiz-adv-x="231" 
d="M89 0v659h53v-659h-53zM107 696l-81 147h67l58 -147h-44z" />
    <glyph glyph-name="Iacute" unicode="&#xcd;" horiz-adv-x="231" 
d="M89 0v659h53v-659h-53zM79 696l59 147h63l-80 -147h-42z" />
    <glyph glyph-name="Icircumflex" unicode="&#xce;" horiz-adv-x="231" 
d="M89 0v659h53v-659h-53zM-12 696l98 147h57l98 -147h-50l-76 109l-77 -109h-50z" />
    <glyph glyph-name="Idieresis" unicode="&#xcf;" horiz-adv-x="231" 
d="M89 0v659h53v-659h-53zM29 708q-15 0 -25.5 10.5t-10.5 25.5t10.5 25.5t25.5 10.5t25.5 -10.5t10.5 -25.5t-10.5 -25.5t-25.5 -10.5zM201 708q-15 0 -25.5 10.5t-10.5 25.5t10.5 25.5t25.5 10.5t25.5 -10.5t10.5 -25.5t-10.5 -25.5t-25.5 -10.5z" />
    <glyph glyph-name="Eth" unicode="&#xd0;" horiz-adv-x="626" 
d="M89 0v309h-80v46h80v304h137q170 0 257.5 -90.5t87.5 -236.5q0 -70 -20.5 -129t-61 -105t-108 -72t-155.5 -26h-137zM142 46h82q79 0 137 23t91 64t48 91.5t15 112.5q0 124 -73 200t-219 76h-81v-258h170v-46h-170v-263z" />
    <glyph glyph-name="Ntilde" unicode="&#xd1;" horiz-adv-x="702" 
d="M613 0h-41l-330 436q-53 69 -100 139h-2q2 -72 2 -118v-457h-53v659h49l317 -420q61 -80 105 -147h2q-2 72 -2 118v449h53v-659zM224 729v15q0 33 19 53.5t47 20.5q29 0 70 -25t56 -25q29 0 29 44h41v-15q0 -33 -19 -53.5t-47 -20.5t-69.5 25t-56.5 25q-29 0 -29 -44h-41
z" />
    <glyph glyph-name="Ograve" unicode="&#xd2;" horiz-adv-x="742" 
d="M371 -10q-137 0 -226.5 92t-89.5 244q0 149 89.5 243.5t226.5 94.5q138 0 227 -95.5t89 -242.5q0 -152 -90.5 -244t-225.5 -92zM371 38q118 0 189 80t71 208q0 124 -69 207t-191 83q-117 0 -188.5 -81t-71.5 -209t71 -208t189 -80zM366 696l-81 147h67l58 -147h-44z" />
    <glyph glyph-name="Oacute" unicode="&#xd3;" horiz-adv-x="742" 
d="M371 -10q-137 0 -226.5 92t-89.5 244q0 149 89.5 243.5t226.5 94.5q138 0 227 -95.5t89 -242.5q0 -152 -90.5 -244t-225.5 -92zM371 38q118 0 189 80t71 208q0 124 -69 207t-191 83q-117 0 -188.5 -81t-71.5 -209t71 -208t189 -80zM338 696l59 147h63l-80 -147h-42z" />
    <glyph glyph-name="Ocircumflex" unicode="&#xd4;" horiz-adv-x="742" 
d="M371 -10q-137 0 -226.5 92t-89.5 244q0 149 89.5 243.5t226.5 94.5q138 0 227 -95.5t89 -242.5q0 -152 -90.5 -244t-225.5 -92zM371 38q118 0 189 80t71 208q0 124 -69 207t-191 83q-117 0 -188.5 -81t-71.5 -209t71 -208t189 -80zM246 696l98 147h57l98 -147h-50
l-76 109l-77 -109h-50z" />
    <glyph glyph-name="Otilde" unicode="&#xd5;" horiz-adv-x="742" 
d="M371 -10q-137 0 -226.5 92t-89.5 244q0 149 89.5 243.5t226.5 94.5q138 0 227 -95.5t89 -242.5q0 -152 -90.5 -244t-225.5 -92zM371 38q118 0 189 80t71 208q0 124 -69 207t-191 83q-117 0 -188.5 -81t-71.5 -209t71 -208t189 -80zM243 729v15q0 33 19 53.5t47 20.5
q29 0 70 -25t56 -25q29 0 29 44h41v-15q0 -33 -19 -53.5t-47 -20.5t-69.5 25t-56.5 25q-29 0 -29 -44h-41z" />
    <glyph glyph-name="Odieresis" unicode="&#xd6;" horiz-adv-x="742" 
d="M371 -10q-137 0 -226.5 92t-89.5 244q0 149 89.5 243.5t226.5 94.5q138 0 227 -95.5t89 -242.5q0 -152 -90.5 -244t-225.5 -92zM371 38q118 0 189 80t71 208q0 124 -69 207t-191 83q-117 0 -188.5 -81t-71.5 -209t71 -208t189 -80zM288 708q-15 0 -25.5 10.5t-10.5 25.5
t10.5 25.5t25.5 10.5t25.5 -10.5t10.5 -25.5t-10.5 -25.5t-25.5 -10.5zM460 708q-15 0 -25.5 10.5t-10.5 25.5t10.5 25.5t25.5 10.5t25.5 -10.5t10.5 -25.5t-10.5 -25.5t-25.5 -10.5z" />
    <glyph glyph-name="multiply" unicode="&#xd7;" horiz-adv-x="511" 
d="M70 33l-36 36l185 186l-185 184l36 36l185 -184l185 185l36 -36l-185 -185l185 -186l-36 -36l-185 186z" />
    <glyph glyph-name="Oslash" unicode="&#xd8;" horiz-adv-x="742" 
d="M92 -7l-37 32l72 77q-72 91 -72 224q0 149 89.5 243.5t226.5 94.5q119 0 206 -76l73 80l37 -32l-77 -83q77 -93 77 -227q0 -152 -90.5 -244t-225.5 -92q-124 0 -211 78zM575 516l-381 -412q71 -66 177 -66q118 0 189 80t71 208q0 113 -56 190zM163 141l381 411
q-69 64 -173 64q-117 0 -188.5 -81t-71.5 -209q0 -112 52 -185z" />
    <glyph glyph-name="Ugrave" unicode="&#xd9;" horiz-adv-x="633" 
d="M316 -10q-178 0 -221 146q-11 40 -11 96v427h53v-421q0 -57 12 -93q37 -108 168 -108q130 0 167 108q12 36 12 97v417h53v-427q0 -57 -13 -99q-45 -143 -220 -143zM309 696l-81 147h67l58 -147h-44z" />
    <glyph glyph-name="Uacute" unicode="&#xda;" horiz-adv-x="633" 
d="M316 -10q-178 0 -221 146q-11 40 -11 96v427h53v-421q0 -57 12 -93q37 -108 168 -108q130 0 167 108q12 36 12 97v417h53v-427q0 -57 -13 -99q-45 -143 -220 -143zM289 696l59 147h63l-80 -147h-42z" />
    <glyph glyph-name="Ucircumflex" unicode="&#xdb;" horiz-adv-x="633" 
d="M316 -10q-178 0 -221 146q-11 40 -11 96v427h53v-421q0 -57 12 -93q37 -108 168 -108q130 0 167 108q12 36 12 97v417h53v-427q0 -57 -13 -99q-45 -143 -220 -143zM194 696l98 147h57l98 -147h-50l-76 109l-77 -109h-50z" />
    <glyph glyph-name="Udieresis" unicode="&#xdc;" horiz-adv-x="633" 
d="M316 -10q-178 0 -221 146q-11 40 -11 96v427h53v-421q0 -57 12 -93q37 -108 168 -108q130 0 167 108q12 36 12 97v417h53v-427q0 -57 -13 -99q-45 -143 -220 -143zM235 708q-15 0 -25.5 10.5t-10.5 25.5t10.5 25.5t25.5 10.5t25.5 -10.5t10.5 -25.5t-10.5 -25.5
t-25.5 -10.5zM407 708q-15 0 -25.5 10.5t-10.5 25.5t10.5 25.5t25.5 10.5t25.5 -10.5t10.5 -25.5t-10.5 -25.5t-25.5 -10.5z" />
    <glyph glyph-name="Yacute" unicode="&#xdd;" horiz-adv-x="514" 
d="M233 0v264l-214 395h61l180 -337h2l174 337h59l-209 -396v-263h-53zM225 696l59 147h63l-80 -147h-42z" />
    <glyph glyph-name="Thorn" unicode="&#xde;" horiz-adv-x="483" 
d="M89 0v659h53v-116h55q90 0 141 -31q90 -55 90 -174q0 -126 -103 -178q-52 -26 -133 -26h-50v-134h-53zM142 180h55q63 0 104 22q72 38 72 136q0 94 -67 135q-40 24 -107 24h-57v-317z" />
    <glyph glyph-name="germandbls" unicode="&#xdf;" horiz-adv-x="548" 
d="M70 -141v640q0 59 18 102.5t47.5 65.5t60.5 31.5t64 9.5q77 0 129.5 -48.5t52.5 -149.5v-22q-55 -11 -80.5 -30t-25.5 -52q0 -27 18 -50t43.5 -42.5l51 -41t43.5 -56.5t18 -79q0 -72 -46.5 -109.5t-118.5 -37.5q-73 0 -130 37l18 44q57 -33 109 -33q114 0 114 98
q0 36 -18 65t-43.5 48.5l-51 39t-43.5 47.5t-18 64q0 94 108 123q-2 67 -35.5 102.5t-95.5 35.5q-59 0 -97.5 -39t-38.5 -123v-640h-53z" />
    <glyph glyph-name="agrave" unicode="&#xe0;" horiz-adv-x="448" 
d="M344 0l-12 57q-67 -67 -145 -67q-65 0 -106 38.5t-41 105.5q0 91 80 128q38 18 116 21l95 3v36q0 57 -29.5 86t-77.5 29q-65 0 -133 -41l-23 41q73 48 158 48q70 0 114 -38t44 -118v-150q0 -141 10 -179h-50zM331 240l-92 -3q-61 -1 -97 -20q-46 -24 -46 -81
q0 -43 25.5 -70.5t69.5 -27.5q71 0 140 74v128zM213 531l-81 147h67l58 -147h-44z" />
    <glyph glyph-name="aacute" unicode="&#xe1;" horiz-adv-x="448" 
d="M344 0l-12 57q-67 -67 -145 -67q-65 0 -106 38.5t-41 105.5q0 91 80 128q38 18 116 21l95 3v36q0 57 -29.5 86t-77.5 29q-65 0 -133 -41l-23 41q73 48 158 48q70 0 114 -38t44 -118v-150q0 -141 10 -179h-50zM331 240l-92 -3q-61 -1 -97 -20q-46 -24 -46 -81
q0 -43 25.5 -70.5t69.5 -27.5q71 0 140 74v128zM185 531l59 147h63l-80 -147h-42z" />
    <glyph glyph-name="acircumflex" unicode="&#xe2;" horiz-adv-x="448" 
d="M344 0l-12 57q-67 -67 -145 -67q-65 0 -106 38.5t-41 105.5q0 91 80 128q38 18 116 21l95 3v36q0 57 -29.5 86t-77.5 29q-65 0 -133 -41l-23 41q73 48 158 48q70 0 114 -38t44 -118v-150q0 -141 10 -179h-50zM331 240l-92 -3q-61 -1 -97 -20q-46 -24 -46 -81
q0 -43 25.5 -70.5t69.5 -27.5q71 0 140 74v128zM94 531l98 147h57l98 -147h-50l-76 109l-77 -109h-50z" />
    <glyph glyph-name="atilde" unicode="&#xe3;" horiz-adv-x="448" 
d="M344 0l-12 57q-67 -67 -145 -67q-65 0 -106 38.5t-41 105.5q0 91 80 128q38 18 116 21l95 3v36q0 57 -29.5 86t-77.5 29q-65 0 -133 -41l-23 41q73 48 158 48q70 0 114 -38t44 -118v-150q0 -141 10 -179h-50zM331 240l-92 -3q-61 -1 -97 -20q-46 -24 -46 -81
q0 -43 25.5 -70.5t69.5 -27.5q71 0 140 74v128zM90 557v15q0 33 19 53.5t47 20.5q29 0 70 -25t56 -25q29 0 29 44h41v-15q0 -33 -19 -53.5t-47 -20.5t-69.5 25t-56.5 25q-29 0 -29 -44h-41z" />
    <glyph glyph-name="adieresis" unicode="&#xe4;" horiz-adv-x="448" 
d="M344 0l-12 57q-67 -67 -145 -67q-65 0 -106 38.5t-41 105.5q0 91 80 128q38 18 116 21l95 3v36q0 57 -29.5 86t-77.5 29q-65 0 -133 -41l-23 41q73 48 158 48q70 0 114 -38t44 -118v-150q0 -141 10 -179h-50zM331 240l-92 -3q-61 -1 -97 -20q-46 -24 -46 -81
q0 -43 25.5 -70.5t69.5 -27.5q71 0 140 74v128zM135 568q-15 0 -25.5 10.5t-10.5 25.5t10.5 25.5t25.5 10.5t25.5 -10.5t10.5 -25.5t-10.5 -25.5t-25.5 -10.5zM307 568q-15 0 -25.5 10.5t-10.5 25.5t10.5 25.5t25.5 10.5t25.5 -10.5t10.5 -25.5t-10.5 -25.5t-25.5 -10.5z
" />
    <glyph glyph-name="aring" unicode="&#xe5;" horiz-adv-x="448" 
d="M344 0l-12 57q-67 -67 -145 -67q-65 0 -106 38.5t-41 105.5q0 91 80 128q38 18 116 21l95 3v36q0 57 -29.5 86t-77.5 29q-65 0 -133 -41l-23 41q73 48 158 48q70 0 114 -38t44 -118v-150q0 -141 10 -179h-50zM331 240l-92 -3q-61 -1 -97 -20q-46 -24 -46 -81
q0 -43 25.5 -70.5t69.5 -27.5q71 0 140 74v128zM221 524q-43 0 -70 26t-27 68t27 68t70 26t70 -26t27 -68t-27 -68t-70 -26zM221 560q24 0 38.5 16t14.5 42t-14.5 42t-38.5 16t-38.5 -16t-14.5 -42t14.5 -42t38.5 -16z" />
    <glyph glyph-name="ae" unicode="&#xe6;" horiz-adv-x="736" 
d="M187 -10q-62 0 -104.5 39t-42.5 105q0 71 51 107.5t142 36.5h98v44q0 57 -29.5 86t-77.5 29q-64 0 -133 -42l-23 42q73 48 158 48q108 0 142 -85h2q50 85 144 85q85 0 132 -64t47 -175v-14h-309q1 -83 45 -138.5t123 -55.5q58 0 115 32l18 -39q-61 -41 -143 -41
q-118 0 -176 99q-75 -99 -179 -99zM191 38q45 0 85.5 28t68.5 68q-15 44 -15 98h-91q-143 0 -143 -98q0 -42 26 -69t69 -27zM385 278h250q-2 66 -33 113t-87 47q-57 0 -92.5 -45.5t-37.5 -114.5z" />
    <glyph glyph-name="ccedilla" unicode="&#xe7;" horiz-adv-x="415" 
d="M152 -200l12 38q25 -11 51 -11q55 0 55 42q0 9 -2.5 15.5t-9.5 11t-11.5 7t-16 4l-15.5 2t-17.5 0.5h-14.5l26 86q-79 17 -123 82t-44 154q0 107 61 180.5t168 73.5q62 0 113 -27v-50q-53 30 -113 30q-78 0 -125.5 -56t-47.5 -144q0 -94 45 -147t122 -53q58 0 116 33
l18 -40q-64 -41 -139 -41h-5l-15 -46q33 -2 56.5 -19t23.5 -53q0 -40 -30 -62t-75 -22q-32 0 -63 12z" />
    <glyph glyph-name="egrave" unicode="&#xe8;" horiz-adv-x="450" 
d="M407 232h-309q1 -84 45 -139t123 -55q58 0 115 32l18 -39q-61 -41 -143 -41q-101 0 -157.5 72t-56.5 183q0 107 52.5 173.5t133.5 66.5q85 0 132 -64t47 -175v-14zM99 278h250q-2 66 -33 113t-87 47q-57 0 -92.5 -45.5t-37.5 -114.5zM223 531l-81 147h67l58 -147h-44z
" />
    <glyph glyph-name="eacute" unicode="&#xe9;" horiz-adv-x="450" 
d="M407 232h-309q1 -84 45 -139t123 -55q58 0 115 32l18 -39q-61 -41 -143 -41q-101 0 -157.5 72t-56.5 183q0 107 52.5 173.5t133.5 66.5q85 0 132 -64t47 -175v-14zM99 278h250q-2 66 -33 113t-87 47q-57 0 -92.5 -45.5t-37.5 -114.5zM195 531l59 147h63l-80 -147h-42z
" />
    <glyph glyph-name="ecircumflex" unicode="&#xea;" horiz-adv-x="450" 
d="M407 232h-309q1 -84 45 -139t123 -55q58 0 115 32l18 -39q-61 -41 -143 -41q-101 0 -157.5 72t-56.5 183q0 107 52.5 173.5t133.5 66.5q85 0 132 -64t47 -175v-14zM99 278h250q-2 66 -33 113t-87 47q-57 0 -92.5 -45.5t-37.5 -114.5zM104 531l98 147h57l98 -147h-50
l-76 109l-77 -109h-50z" />
    <glyph glyph-name="edieresis" unicode="&#xeb;" horiz-adv-x="450" 
d="M407 232h-309q1 -84 45 -139t123 -55q58 0 115 32l18 -39q-61 -41 -143 -41q-101 0 -157.5 72t-56.5 183q0 107 52.5 173.5t133.5 66.5q85 0 132 -64t47 -175v-14zM99 278h250q-2 66 -33 113t-87 47q-57 0 -92.5 -45.5t-37.5 -114.5zM145 568q-15 0 -25.5 10.5
t-10.5 25.5t10.5 25.5t25.5 10.5t25.5 -10.5t10.5 -25.5t-10.5 -25.5t-25.5 -10.5zM317 568q-15 0 -25.5 10.5t-10.5 25.5t10.5 25.5t25.5 10.5t25.5 -10.5t10.5 -25.5t-10.5 -25.5t-25.5 -10.5z" />
    <glyph glyph-name="igrave" unicode="&#xec;" horiz-adv-x="219" 
d="M103 531l-81 147h67l58 -147h-44zM83 0v473h53v-473h-53z" />
    <glyph glyph-name="iacute" unicode="&#xed;" horiz-adv-x="219" 
d="M75 531l59 147h63l-80 -147h-42zM83 0v473h53v-473h-53z" />
    <glyph glyph-name="icircumflex" unicode="&#xee;" horiz-adv-x="219" 
d="M83 0v473h53v-473h-53zM-16 531l98 147h57l98 -147h-50l-76 109l-77 -109h-50z" />
    <glyph glyph-name="idieresis" unicode="&#xef;" horiz-adv-x="219" 
d="M25 568q-15 0 -25.5 10.5t-10.5 25.5t10.5 25.5t25.5 10.5t25.5 -10.5t10.5 -25.5t-10.5 -25.5t-25.5 -10.5zM197 568q-15 0 -25.5 10.5t-10.5 25.5t10.5 25.5t25.5 10.5t25.5 -10.5t10.5 -25.5t-10.5 -25.5t-25.5 -10.5zM83 0v473h53v-473h-53z" />
    <glyph glyph-name="eth" unicode="&#xf0;" horiz-adv-x="527" 
d="M421 670l-95 -45q138 -103 138 -338q0 -145 -57.5 -221t-154.5 -76q-94 0 -152 71t-58 176q0 106 57.5 177t152.5 71q49 0 92 -25.5t66 -67.5h2q-10 58 -44 115.5t-88 95.5l-129 -60l-19 39l103 47q-53 27 -127 33l9 46q105 -14 170 -55l115 55zM252 38q70 0 112.5 56
t42.5 149q0 85 -42 140t-112 55q-69 0 -112 -56t-43 -145q0 -88 42.5 -143.5t111.5 -55.5z" />
    <glyph glyph-name="ntilde" unicode="&#xf1;" horiz-adv-x="493" 
d="M70 0v473h44l8 -64q88 76 167 76q59 0 97.5 -41.5t38.5 -122.5v-321h-53v302q0 134 -91 134q-68 0 -158 -81v-355h-53zM107 557v15q0 33 19 53.5t47 20.5q29 0 70 -25t56 -25q29 0 29 44h41v-15q0 -33 -19 -53.5t-47 -20.5t-69.5 25t-56.5 25q-29 0 -29 -44h-41z" />
    <glyph glyph-name="ograve" unicode="&#xf2;" horiz-adv-x="505" 
d="M252 -10q-94 0 -152 71t-58 176q0 106 58 177t153 71q94 0 152 -71t58 -177q0 -105 -58 -176t-153 -71zM252 38q69 0 112 55.5t43 143.5q0 89 -42.5 144.5t-111.5 55.5t-112 -55.5t-43 -144.5q0 -88 42.5 -143.5t111.5 -55.5zM239 531l-81 147h67l58 -147h-44z" />
    <glyph glyph-name="oacute" unicode="&#xf3;" horiz-adv-x="505" 
d="M252 -10q-94 0 -152 71t-58 176q0 106 58 177t153 71q94 0 152 -71t58 -177q0 -105 -58 -176t-153 -71zM252 38q69 0 112 55.5t43 143.5q0 89 -42.5 144.5t-111.5 55.5t-112 -55.5t-43 -144.5q0 -88 42.5 -143.5t111.5 -55.5zM229 531l59 147h63l-80 -147h-42z" />
    <glyph glyph-name="ocircumflex" unicode="&#xf4;" horiz-adv-x="505" 
d="M252 -10q-94 0 -152 71t-58 176q0 106 58 177t153 71q94 0 152 -71t58 -177q0 -105 -58 -176t-153 -71zM252 38q69 0 112 55.5t43 143.5q0 89 -42.5 144.5t-111.5 55.5t-112 -55.5t-43 -144.5q0 -88 42.5 -143.5t111.5 -55.5zM126 531l98 147h57l98 -147h-50l-76 109
l-77 -109h-50z" />
    <glyph glyph-name="otilde" unicode="&#xf5;" horiz-adv-x="505" 
d="M252 -10q-94 0 -152 71t-58 176q0 106 58 177t153 71q94 0 152 -71t58 -177q0 -105 -58 -176t-153 -71zM252 38q69 0 112 55.5t43 143.5q0 89 -42.5 144.5t-111.5 55.5t-112 -55.5t-43 -144.5q0 -88 42.5 -143.5t111.5 -55.5zM122 557v15q0 33 19 53.5t47 20.5
q29 0 70 -25t56 -25q29 0 29 44h41v-15q0 -33 -19 -53.5t-47 -20.5t-69.5 25t-56.5 25q-29 0 -29 -44h-41z" />
    <glyph glyph-name="odieresis" unicode="&#xf6;" horiz-adv-x="505" 
d="M252 -10q-94 0 -152 71t-58 176q0 106 58 177t153 71q94 0 152 -71t58 -177q0 -105 -58 -176t-153 -71zM252 38q69 0 112 55.5t43 143.5q0 89 -42.5 144.5t-111.5 55.5t-112 -55.5t-43 -144.5q0 -88 42.5 -143.5t111.5 -55.5zM167 568q-15 0 -25.5 10.5t-10.5 25.5
t10.5 25.5t25.5 10.5t25.5 -10.5t10.5 -25.5t-10.5 -25.5t-25.5 -10.5zM339 568q-15 0 -25.5 10.5t-10.5 25.5t10.5 25.5t25.5 10.5t25.5 -10.5t10.5 -25.5t-10.5 -25.5t-25.5 -10.5z" />
    <glyph glyph-name="divide" unicode="&#xf7;" horiz-adv-x="511" 
d="M255 382q-16 0 -27.5 12t-11.5 29t11.5 29t27.5 12t27.5 -12t11.5 -29t-11.5 -29t-27.5 -12zM18 231v47h475v-47h-475zM255 44q-16 0 -27.5 12t-11.5 29t11.5 29t27.5 12t27.5 -12t11.5 -29t-11.5 -29t-27.5 -12z" />
    <glyph glyph-name="oslash" unicode="&#xf8;" horiz-adv-x="505" 
d="M76 -17l-35 30l51 60q-50 69 -50 164q0 106 58 177t153 71q76 0 133 -52l43 54l35 -30l-49 -58q48 -69 48 -162q0 -105 -58 -176t-153 -71q-76 0 -131 50zM153 78q40 -40 99 -40q69 0 112 55.5t43 143.5q0 70 -26 120zM126 115l228 280q-41 43 -101 43q-69 0 -112 -56
t-43 -145q0 -72 28 -122z" />
    <glyph glyph-name="ugrave" unicode="&#xf9;" horiz-adv-x="492" 
d="M200 -10q-39 0 -72.5 20.5t-47.5 65.5q-10 32 -10 80v317h53v-297q0 -55 8 -80q17 -57 81 -57q44 0 85.5 23.5t63.5 53.5v357h53v-294q0 -141 10 -179h-50l-12 57q-77 -67 -162 -67zM230 531l-81 147h67l58 -147h-44z" />
    <glyph glyph-name="uacute" unicode="&#xfa;" horiz-adv-x="492" 
d="M200 -10q-39 0 -72.5 20.5t-47.5 65.5q-10 32 -10 80v317h53v-297q0 -55 8 -80q17 -57 81 -57q44 0 85.5 23.5t63.5 53.5v357h53v-294q0 -141 10 -179h-50l-12 57q-77 -67 -162 -67zM213 531l59 147h63l-80 -147h-42z" />
    <glyph glyph-name="ucircumflex" unicode="&#xfb;" horiz-adv-x="492" 
d="M200 -10q-39 0 -72.5 20.5t-47.5 65.5q-10 32 -10 80v317h53v-297q0 -55 8 -80q17 -57 81 -57q44 0 85.5 23.5t63.5 53.5v357h53v-294q0 -141 10 -179h-50l-12 57q-77 -67 -162 -67zM119 531l98 147h57l98 -147h-50l-76 109l-77 -109h-50z" />
    <glyph glyph-name="udieresis" unicode="&#xfc;" horiz-adv-x="492" 
d="M200 -10q-39 0 -72.5 20.5t-47.5 65.5q-10 32 -10 80v317h53v-297q0 -55 8 -80q17 -57 81 -57q44 0 85.5 23.5t63.5 53.5v357h53v-294q0 -141 10 -179h-50l-12 57q-77 -67 -162 -67zM160 568q-15 0 -25.5 10.5t-10.5 25.5t10.5 25.5t25.5 10.5t25.5 -10.5t10.5 -25.5
t-10.5 -25.5t-25.5 -10.5zM332 568q-15 0 -25.5 10.5t-10.5 25.5t10.5 25.5t25.5 10.5t25.5 -10.5t10.5 -25.5t-10.5 -25.5t-25.5 -10.5z" />
    <glyph glyph-name="yacute" unicode="&#xfd;" horiz-adv-x="443" 
d="M431 473l-175 -519q-38 -113 -86 -152t-112 -39q-42 0 -74 13l12 47q29 -12 63 -12q106 0 158 183l-206 479h59l170 -404h2l132 404h57zM191 531l59 147h63l-80 -147h-42z" />
    <glyph glyph-name="thorn" unicode="&#xfe;" horiz-adv-x="492" 
d="M73 -237v945h53v-235q43 12 92 12q108 0 170 -64t62 -181q0 -115 -67 -182.5t-168 -67.5q-48 0 -89 19v-246h-53zM126 61q43 -23 89 -23q85 0 132 55t47 149q0 97 -49.5 146.5t-127.5 49.5q-46 0 -91 -15v-362z" />
    <glyph glyph-name="ydieresis" unicode="&#xff;" horiz-adv-x="443" 
d="M431 473l-175 -519q-38 -113 -86 -152t-112 -39q-42 0 -74 13l12 47q29 -12 63 -12q106 0 158 183l-206 479h59l170 -404h2l132 404h57zM141 568q-15 0 -25.5 10.5t-10.5 25.5t10.5 25.5t25.5 10.5t25.5 -10.5t10.5 -25.5t-10.5 -25.5t-25.5 -10.5zM313 568
q-15 0 -25.5 10.5t-10.5 25.5t10.5 25.5t25.5 10.5t25.5 -10.5t10.5 -25.5t-10.5 -25.5t-25.5 -10.5z" />
    <glyph glyph-name="Amacron" unicode="&#x100;" horiz-adv-x="568" 
d="M21 0l247 661h32l247 -661h-58l-66 182h-278l-66 -182h-58zM163 228h242l-78 216l-42 119h-2q-2 -6 -42 -119zM168 722v46h232v-46h-232z" />
    <glyph glyph-name="amacron" unicode="&#x101;" horiz-adv-x="448" 
d="M344 0l-12 57q-67 -67 -145 -67q-65 0 -106 38.5t-41 105.5q0 91 80 128q38 18 116 21l95 3v36q0 57 -29.5 86t-77.5 29q-65 0 -133 -41l-23 41q73 48 158 48q70 0 114 -38t44 -118v-150q0 -141 10 -179h-50zM331 240l-92 -3q-61 -1 -97 -20q-46 -24 -46 -81
q0 -43 25.5 -70.5t69.5 -27.5q71 0 140 74v128zM105 576v46h232v-46h-232z" />
    <glyph glyph-name="Abreve" unicode="&#x102;" horiz-adv-x="568" 
d="M21 0l247 661h32l247 -661h-58l-66 182h-278l-66 -182h-58zM163 228h242l-78 216l-42 119h-2q-2 -6 -42 -119zM359 822h41q-4 -52 -35 -83t-83 -31q-51 0 -80.5 30.5t-33.5 83.5h41q12 -71 75 -71t75 71z" />
    <glyph glyph-name="abreve" unicode="&#x103;" horiz-adv-x="448" 
d="M344 0l-12 57q-67 -67 -145 -67q-65 0 -106 38.5t-41 105.5q0 91 80 128q38 18 116 21l95 3v36q0 57 -29.5 86t-77.5 29q-65 0 -133 -41l-23 41q73 48 158 48q70 0 114 -38t44 -118v-150q0 -141 10 -179h-50zM331 240l-92 -3q-61 -1 -97 -20q-46 -24 -46 -81
q0 -43 25.5 -70.5t69.5 -27.5q71 0 140 74v128zM296 660h41q-4 -52 -35 -83t-83 -31q-51 0 -80.5 30.5t-33.5 83.5h41q12 -71 75 -71t75 71z" />
    <glyph glyph-name="Aogonek" unicode="&#x104;" horiz-adv-x="568" 
d="M21 0l247 661h32l247 -661q-50 -24 -81.5 -57t-31.5 -69q0 -44 40 -44q15 0 39 8l9 -40q-29 -10 -54 -10q-40 0 -62 23t-22 55q0 26 10 49.5t28.5 42t31 28.5t32.5 23l-63 173h-278l-66 -182h-58zM163 228h242l-78 216l-42 119h-2q-2 -6 -42 -119z" />
    <glyph glyph-name="aogonek" unicode="&#x105;" horiz-adv-x="448" 
d="M394 -4q-108 -53 -108 -122q0 -44 40 -44q15 0 39 8l9 -40q-29 -10 -54 -10q-40 0 -62 23t-22 55q0 79 105 145l-9 46q-67 -67 -145 -67q-65 0 -106 38.5t-41 105.5q0 91 80 128q38 18 116 21l95 3v36q0 57 -29.5 86t-77.5 29q-65 0 -133 -41l-23 41q73 48 158 48
q70 0 114 -38t44 -118v-150q0 -145 10 -183zM191 38q71 0 140 74v128l-92 -3q-61 -1 -97 -20q-46 -24 -46 -81q0 -43 25.5 -70.5t69.5 -27.5z" />
    <glyph glyph-name="Cacute" unicode="&#x106;" horiz-adv-x="574" 
d="M519 77l15 -44q-82 -43 -173 -43q-140 0 -223 92t-83 239q0 146 89.5 244.5t228.5 98.5q100 0 158 -36v-52q-75 40 -158 40q-114 0 -188 -83.5t-74 -206.5q0 -129 69 -208.5t185 -79.5q79 0 154 39zM294 696l59 147h63l-80 -147h-42z" />
    <glyph glyph-name="cacute" unicode="&#x107;" horiz-adv-x="415" 
d="M260 -10q-102 0 -160 69t-58 172q0 107 61 180.5t168 73.5q62 0 113 -27v-50q-53 30 -113 30q-78 0 -125.5 -56t-47.5 -144q0 -94 45 -147t122 -53q58 0 116 33l18 -40q-64 -41 -139 -41zM209 531l59 147h63l-80 -147h-42z" />
    <glyph glyph-name="Ccircumflex" unicode="&#x108;" horiz-adv-x="574" 
d="M519 77l15 -44q-82 -43 -173 -43q-140 0 -223 92t-83 239q0 146 89.5 244.5t228.5 98.5q100 0 158 -36v-52q-75 40 -158 40q-114 0 -188 -83.5t-74 -206.5q0 -129 69 -208.5t185 -79.5q79 0 154 39zM208 696l98 147h57l98 -147h-50l-76 109l-77 -109h-50z" />
    <glyph glyph-name="ccircumflex" unicode="&#x109;" horiz-adv-x="415" 
d="M260 -10q-102 0 -160 69t-58 172q0 107 61 180.5t168 73.5q62 0 113 -27v-50q-53 30 -113 30q-78 0 -125.5 -56t-47.5 -144q0 -94 45 -147t122 -53q58 0 116 33l18 -40q-64 -41 -139 -41zM118 531l98 147h57l98 -147h-50l-76 109l-77 -109h-50z" />
    <glyph glyph-name="Cdotaccent" unicode="&#x10a;" horiz-adv-x="574" 
d="M519 77l15 -44q-82 -43 -173 -43q-140 0 -223 92t-83 239q0 146 89.5 244.5t228.5 98.5q100 0 158 -36v-52q-75 40 -158 40q-114 0 -188 -83.5t-74 -206.5q0 -129 69 -208.5t185 -79.5q79 0 154 39zM334 723q-17 0 -27.5 11.5t-10.5 28.5t10.5 28.5t27.5 11.5
q18 0 28.5 -11t10.5 -29t-11 -29t-28 -11z" />
    <glyph glyph-name="cdotaccent" unicode="&#x10b;" horiz-adv-x="415" 
d="M260 -10q-102 0 -160 69t-58 172q0 107 61 180.5t168 73.5q62 0 113 -27v-50q-53 30 -113 30q-78 0 -125.5 -56t-47.5 -144q0 -94 45 -147t122 -53q58 0 116 33l18 -40q-64 -41 -139 -41zM244 593q-17 0 -27.5 11.5t-10.5 28.5t10.5 28.5t27.5 11.5q18 0 28.5 -11
t10.5 -29t-11 -29t-28 -11z" />
    <glyph glyph-name="Ccaron" unicode="&#x10c;" horiz-adv-x="574" 
d="M519 77l15 -44q-82 -43 -173 -43q-140 0 -223 92t-83 239q0 146 89.5 244.5t228.5 98.5q100 0 158 -36v-52q-75 40 -158 40q-114 0 -188 -83.5t-74 -206.5q0 -129 69 -208.5t185 -79.5q79 0 154 39zM306 696l-98 147h51l77 -109l76 109h49l-98 -147h-57z" />
    <glyph glyph-name="ccaron" unicode="&#x10d;" horiz-adv-x="415" 
d="M260 -10q-102 0 -160 69t-58 172q0 107 61 180.5t168 73.5q62 0 113 -27v-50q-53 30 -113 30q-78 0 -125.5 -56t-47.5 -144q0 -94 45 -147t122 -53q58 0 116 33l18 -40q-64 -41 -139 -41zM216 532l-98 147h51l77 -109l76 109h49l-98 -147h-57z" />
    <glyph glyph-name="Dcaron" unicode="&#x10e;" horiz-adv-x="626" 
d="M89 0v659h137q170 0 257.5 -90.5t87.5 -236.5q0 -70 -20.5 -129t-61 -105t-108 -72t-155.5 -26h-137zM142 46h82q79 0 137 23t91 64t48 91.5t15 112.5q0 124 -73 200t-219 76h-81v-567zM250 696l-98 147h51l77 -109l76 109h49l-98 -147h-57z" />
    <glyph glyph-name="dcaron" unicode="&#x10f;" horiz-adv-x="493" 
d="M279 -10q-102 0 -169.5 62.5t-67.5 177.5q0 113 69 184t169 71q47 0 87 -12v235h53v-687q-54 -31 -141 -31zM285 38q49 0 82 15v370q-41 15 -83 15q-78 0 -132 -55.5t-54 -150.5q0 -89 49 -141.5t138 -52.5zM462 513l36 195h56l-51 -195h-41z" />
    <glyph glyph-name="Dcroat" unicode="&#x110;" horiz-adv-x="626" 
d="M89 0v309h-80v46h80v304h137q170 0 257.5 -90.5t87.5 -236.5q0 -70 -20.5 -129t-61 -105t-108 -72t-155.5 -26h-137zM142 46h82q79 0 137 23t91 64t48 91.5t15 112.5q0 124 -73 200t-219 76h-81v-258h170v-46h-170v-263z" />
    <glyph glyph-name="dcroat" unicode="&#x111;" horiz-adv-x="493" 
d="M279 -10q-102 0 -169.5 62.5t-67.5 177.5q0 113 69 184t169 71q47 0 87 -12v98h-133v46h133v91h53v-91h64v-46h-64v-550q-54 -31 -141 -31zM285 38q49 0 82 15v370q-41 15 -83 15q-78 0 -132 -55.5t-54 -150.5q0 -89 49 -141.5t138 -52.5z" />
    <glyph glyph-name="Emacron" unicode="&#x112;" horiz-adv-x="453" 
d="M89 0v659h298l-20 -46h-225v-252h220v-46h-220v-269h253v-46h-306zM119 722v46h232v-46h-232z" />
    <glyph glyph-name="emacron" unicode="&#x113;" horiz-adv-x="450" 
d="M407 232h-309q1 -84 45 -139t123 -55q58 0 115 32l18 -39q-61 -41 -143 -41q-101 0 -157.5 72t-56.5 183q0 107 52.5 173.5t133.5 66.5q85 0 132 -64t47 -175v-14zM99 278h250q-2 66 -33 113t-87 47q-57 0 -92.5 -45.5t-37.5 -114.5zM114 576v46h232v-46h-232z" />
    <glyph glyph-name="Ebreve" unicode="&#x114;" horiz-adv-x="453" 
d="M89 0v659h298l-20 -46h-225v-252h220v-46h-220v-269h253v-46h-306zM310 822h41q-4 -52 -35 -83t-83 -31q-51 0 -80.5 30.5t-33.5 83.5h41q12 -71 75 -71t75 71z" />
    <glyph glyph-name="ebreve" unicode="&#x115;" horiz-adv-x="450" 
d="M407 232h-309q1 -84 45 -139t123 -55q58 0 115 32l18 -39q-61 -41 -143 -41q-101 0 -157.5 72t-56.5 183q0 107 52.5 173.5t133.5 66.5q85 0 132 -64t47 -175v-14zM99 278h250q-2 66 -33 113t-87 47q-57 0 -92.5 -45.5t-37.5 -114.5zM306 660h41q-4 -52 -35 -83t-83 -31
q-51 0 -80.5 30.5t-33.5 83.5h41q12 -71 75 -71t75 71z" />
    <glyph glyph-name="Edotaccent" unicode="&#x116;" horiz-adv-x="453" 
d="M89 0v659h298l-20 -46h-225v-252h220v-46h-220v-269h253v-46h-306zM234 723q-17 0 -27.5 11.5t-10.5 28.5t10.5 28.5t27.5 11.5q18 0 28.5 -11t10.5 -29t-11 -29t-28 -11z" />
    <glyph glyph-name="edotaccent" unicode="&#x117;" horiz-adv-x="450" 
d="M407 232h-309q1 -84 45 -139t123 -55q58 0 115 32l18 -39q-61 -41 -143 -41q-101 0 -157.5 72t-56.5 183q0 107 52.5 173.5t133.5 66.5q85 0 132 -64t47 -175v-14zM99 278h250q-2 66 -33 113t-87 47q-57 0 -92.5 -45.5t-37.5 -114.5zM230 593q-17 0 -27.5 11.5
t-10.5 28.5t10.5 28.5t27.5 11.5q18 0 28.5 -11t10.5 -29t-11 -29t-28 -11z" />
    <glyph glyph-name="Eogonek" unicode="&#x118;" horiz-adv-x="453" 
d="M89 0v659h298l-20 -46h-225v-252h220v-46h-220v-269h253v-46h-14q-48 -24 -79.5 -57t-31.5 -69q0 -44 40 -44q15 0 39 8l9 -40q-29 -10 -54 -10q-40 0 -62 23t-22 55q0 77 90 134h-221z" />
    <glyph glyph-name="eogonek" unicode="&#x119;" horiz-adv-x="450" 
d="M206 -134q0 69 77 124v2q-12 -2 -27 -2q-101 0 -157.5 72t-56.5 183q0 107 52.5 173.5t133.5 66.5q85 0 132 -64t47 -175v-14h-309q1 -84 45 -139t123 -55q58 0 115 32l18 -39q-143 -85 -143 -157q0 -44 40 -44q15 0 39 8l9 -40q-29 -10 -54 -10q-40 0 -62 23t-22 55z
M99 278h250q-2 66 -33 113t-87 47q-57 0 -92.5 -45.5t-37.5 -114.5z" />
    <glyph glyph-name="Ecaron" unicode="&#x11a;" horiz-adv-x="453" 
d="M89 0v659h298l-20 -46h-225v-252h220v-46h-220v-269h253v-46h-306zM206 696l-98 147h51l77 -109l76 109h49l-98 -147h-57z" />
    <glyph glyph-name="ecaron" unicode="&#x11b;" horiz-adv-x="450" 
d="M407 232h-309q1 -84 45 -139t123 -55q58 0 115 32l18 -39q-61 -41 -143 -41q-101 0 -157.5 72t-56.5 183q0 107 52.5 173.5t133.5 66.5q85 0 132 -64t47 -175v-14zM99 278h250q-2 66 -33 113t-87 47q-57 0 -92.5 -45.5t-37.5 -114.5zM202 532l-98 147h51l77 -109l76 109
h49l-98 -147h-57z" />
    <glyph glyph-name="Gcircumflex" unicode="&#x11c;" horiz-adv-x="657" 
d="M578 307v-268q-91 -49 -206 -49q-141 0 -229 92.5t-88 238.5q0 153 91.5 248t239.5 95q96 0 175 -37v-51q-80 41 -173 41q-129 0 -203 -79.5t-74 -208.5q0 -135 73.5 -213t196.5 -78q88 0 144 30v239h53zM230 696l98 147h57l98 -147h-50l-76 109l-77 -109h-50z" />
    <glyph glyph-name="gcircumflex" unicode="&#x11d;" horiz-adv-x="461" 
d="M224 -237q-92 0 -147 35.5t-55 99.5q0 79 89 125q-34 19 -34 59q0 49 47 95q-71 49 -71 141q0 72 48.5 119t117.5 47q46 0 86 -17q7 -3 10 0q36 38 90 38q15 0 27 -3l-15 -46q-12 3 -24 3q-28 0 -50 -16q58 -49 58 -126q0 -75 -48.5 -122t-127.5 -47q-34 0 -64 11
q-31 -32 -31 -63q0 -22 23 -35.5t58 -17.5t75 -12t75 -18.5t58 -37.5t23 -68q0 -67 -59.5 -105.5t-158.5 -38.5zM226 -191q79 0 119.5 26.5t40.5 66.5q0 27 -14.5 44t-41.5 26t-54 13l-64.5 9.5t-60.5 11.5q-77 -45 -77 -100q0 -45 42 -71t110 -26zM226 196q52 0 85 32
t33 89q0 53 -33.5 86t-84.5 33q-53 0 -85 -32.5t-32 -85.5q0 -55 32 -88.5t85 -33.5zM99 531l98 147h57l98 -147h-50l-76 109l-77 -109h-50z" />
    <glyph glyph-name="Gbreve" unicode="&#x11e;" horiz-adv-x="657" 
d="M578 307v-268q-91 -49 -206 -49q-141 0 -229 92.5t-88 238.5q0 153 91.5 248t239.5 95q96 0 175 -37v-51q-80 41 -173 41q-129 0 -203 -79.5t-74 -208.5q0 -135 73.5 -213t196.5 -78q88 0 144 30v239h53zM432 822h41q-4 -52 -35 -83t-83 -31q-51 0 -80.5 30.5t-33.5 83.5
h41q12 -71 75 -71t75 71z" />
    <glyph glyph-name="gbreve" unicode="&#x11f;" horiz-adv-x="461" 
d="M224 -237q-92 0 -147 35.5t-55 99.5q0 79 89 125q-34 19 -34 59q0 49 47 95q-71 49 -71 141q0 72 48.5 119t117.5 47q46 0 86 -17q7 -3 10 0q36 38 90 38q15 0 27 -3l-15 -46q-12 3 -24 3q-28 0 -50 -16q58 -49 58 -126q0 -75 -48.5 -122t-127.5 -47q-34 0 -64 11
q-31 -32 -31 -63q0 -22 23 -35.5t58 -17.5t75 -12t75 -18.5t58 -37.5t23 -68q0 -67 -59.5 -105.5t-158.5 -38.5zM226 -191q79 0 119.5 26.5t40.5 66.5q0 27 -14.5 44t-41.5 26t-54 13l-64.5 9.5t-60.5 11.5q-77 -45 -77 -100q0 -45 42 -71t110 -26zM226 196q52 0 85 32
t33 89q0 53 -33.5 86t-84.5 33q-53 0 -85 -32.5t-32 -85.5q0 -55 32 -88.5t85 -33.5zM301 660h41q-4 -52 -35 -83t-83 -31q-51 0 -80.5 30.5t-33.5 83.5h41q12 -71 75 -71t75 71z" />
    <glyph glyph-name="Gdotaccent" unicode="&#x120;" horiz-adv-x="657" 
d="M578 307v-268q-91 -49 -206 -49q-141 0 -229 92.5t-88 238.5q0 153 91.5 248t239.5 95q96 0 175 -37v-51q-80 41 -173 41q-129 0 -203 -79.5t-74 -208.5q0 -135 73.5 -213t196.5 -78q88 0 144 30v239h53zM356 723q-17 0 -27.5 11.5t-10.5 28.5t10.5 28.5t27.5 11.5
q18 0 28.5 -11t10.5 -29t-11 -29t-28 -11z" />
    <glyph glyph-name="gdotaccent" unicode="&#x121;" horiz-adv-x="461" 
d="M224 -237q-92 0 -147 35.5t-55 99.5q0 79 89 125q-34 19 -34 59q0 49 47 95q-71 49 -71 141q0 72 48.5 119t117.5 47q46 0 86 -17q7 -3 10 0q36 38 90 38q15 0 27 -3l-15 -46q-12 3 -24 3q-28 0 -50 -16q58 -49 58 -126q0 -75 -48.5 -122t-127.5 -47q-34 0 -64 11
q-31 -32 -31 -63q0 -22 23 -35.5t58 -17.5t75 -12t75 -18.5t58 -37.5t23 -68q0 -67 -59.5 -105.5t-158.5 -38.5zM226 -191q79 0 119.5 26.5t40.5 66.5q0 27 -14.5 44t-41.5 26t-54 13l-64.5 9.5t-60.5 11.5q-77 -45 -77 -100q0 -45 42 -71t110 -26zM226 196q52 0 85 32
t33 89q0 53 -33.5 86t-84.5 33q-53 0 -85 -32.5t-32 -85.5q0 -55 32 -88.5t85 -33.5zM225 593q-17 0 -27.5 11.5t-10.5 28.5t10.5 28.5t27.5 11.5q18 0 28.5 -11t10.5 -29t-11 -29t-28 -11z" />
    <glyph glyph-name="Gcommaaccent" unicode="&#x122;" horiz-adv-x="657" 
d="M578 307v-268q-91 -49 -206 -49q-141 0 -229 92.5t-88 238.5q0 153 91.5 248t239.5 95q96 0 175 -37v-51q-80 41 -173 41q-129 0 -203 -79.5t-74 -208.5q0 -135 73.5 -213t196.5 -78q88 0 144 30v239h53zM303 -237l-17 37q71 22 71 76q0 31 -26 72h51q25 -30 25 -74
q0 -80 -104 -111z" />
    <glyph glyph-name="gcommaaccent" unicode="&#x123;" horiz-adv-x="461" 
d="M250 531h-51q-25 30 -25 74q0 80 104 111l17 -37q-71 -22 -71 -76q0 -31 26 -72zM224 -237q-92 0 -147 35.5t-55 99.5q0 79 89 125q-34 19 -34 59q0 49 47 95q-71 49 -71 141q0 72 48.5 119t117.5 47q46 0 86 -17q7 -3 10 0q36 38 90 38q15 0 27 -3l-15 -46q-12 3 -24 3
q-28 0 -50 -16q58 -49 58 -126q0 -75 -48.5 -122t-127.5 -47q-34 0 -64 11q-31 -32 -31 -63q0 -22 23 -35.5t58 -17.5t75 -12t75 -18.5t58 -37.5t23 -68q0 -67 -59.5 -105.5t-158.5 -38.5zM226 -191q79 0 119.5 26.5t40.5 66.5q0 27 -14.5 44t-41.5 26t-54 13l-64.5 9.5
t-60.5 11.5q-77 -45 -77 -100q0 -45 42 -71t110 -26zM226 196q52 0 85 32t33 89q0 53 -33.5 86t-84.5 33q-53 0 -85 -32.5t-32 -85.5q0 -55 32 -88.5t85 -33.5z" />
    <glyph glyph-name="Hcircumflex" unicode="&#x124;" horiz-adv-x="665" 
d="M89 0v659h53v-298h381v298h53v-659h-53v315h-381v-315h-53zM210 696l98 147h57l98 -147h-50l-76 109l-77 -109h-50z" />
    <glyph glyph-name="hcircumflex" unicode="&#x125;" horiz-adv-x="496" 
d="M73 0v708h53v-298q89 75 166 75q59 0 97.5 -41.5t38.5 -122.5v-321h-53v302q0 134 -91 134q-68 0 -158 -81v-355h-53zM-25 726l98 147h57l98 -147h-50l-76 109l-77 -109h-50z" />
    <glyph glyph-name="Hbar" unicode="&#x126;" horiz-adv-x="665" 
d="M89 0v478h-62v46h62v135h53v-135h381v135h53v-135h62v-46h-62v-478h-53v315h-381v-315h-53zM142 361h381v117h-381v-117z" />
    <glyph glyph-name="hbar" unicode="&#x127;" horiz-adv-x="493" 
d="M70 0v566h-66v46h66v96h53v-96h142v-46h-142v-156q89 75 166 75q59 0 97.5 -41.5t38.5 -122.5v-321h-53v302q0 134 -91 134q-68 0 -158 -81v-355h-53z" />
    <glyph glyph-name="Itilde" unicode="&#x128;" horiz-adv-x="231" 
d="M89 0v659h53v-659h-53zM-16 729v15q0 33 19 53.5t47 20.5q29 0 70 -25t56 -25q29 0 29 44h41v-15q0 -33 -19 -53.5t-47 -20.5t-69.5 25t-56.5 25q-29 0 -29 -44h-41z" />
    <glyph glyph-name="itilde" unicode="&#x129;" horiz-adv-x="219" 
d="M-20 557v15q0 33 19 53.5t47 20.5q29 0 70 -25t56 -25q29 0 29 44h41v-15q0 -33 -19 -53.5t-47 -20.5t-69.5 25t-56.5 25q-29 0 -29 -44h-41zM83 0v473h53v-473h-53z" />
    <glyph glyph-name="imacron" unicode="&#x12b;" horiz-adv-x="219" 
d="M-5 576v46h232v-46h-232zM83 0v473h53v-473h-53z" />
    <glyph glyph-name="Ibreve" unicode="&#x12c;" horiz-adv-x="231" 
d="M89 0v659h53v-659h-53zM190 822h41q-4 -52 -35 -83t-83 -31q-51 0 -80.5 30.5t-33.5 83.5h41q12 -71 75 -71t75 71z" />
    <glyph glyph-name="Iogonek" unicode="&#x12e;" horiz-adv-x="231" 
d="M89 8v651h53v-659q-33 -24 -52.5 -56t-19.5 -63q0 -51 42 -51q15 0 37 8l9 -40q-29 -10 -54 -10q-41 0 -62.5 23t-21.5 61q0 69 69 136z" />
    <glyph glyph-name="iogonek" unicode="&#x12f;" horiz-adv-x="219" 
d="M14 -128q0 69 69 136v465h53v-473q-33 -24 -52.5 -56t-19.5 -63q0 -51 42 -51q15 0 37 8l9 -40q-29 -10 -54 -10q-41 0 -62.5 23t-21.5 61zM109 593q-17 0 -27.5 11.5t-10.5 28.5t10.5 28.5t27.5 11.5q18 0 28.5 -11t10.5 -29t-11 -29t-28 -11z" />
    <glyph glyph-name="Idotaccent" unicode="&#x130;" horiz-adv-x="231" 
d="M89 0v659h53v-659h-53zM116 723q-17 0 -27.5 11.5t-10.5 28.5t10.5 28.5t27.5 11.5q18 0 28.5 -11t10.5 -29t-11 -29t-28 -11z" />
    <glyph glyph-name="dotlessi" unicode="&#x131;" horiz-adv-x="219" 
d="M83 0v473h53v-473h-53z" />
    <glyph glyph-name="IJ" unicode="&#x132;" horiz-adv-x="501" 
d="M89 0v659h53v-659h-53zM207 -174l9 47q19 -6 46 -6q55 0 76 29t21 87v676h53v-691q0 -149 -153 -149q-27 0 -52 7z" />
    <glyph glyph-name="ij" unicode="&#x133;" horiz-adv-x="448" 
d="M83 0v473h53v-473h-53zM109 593q-17 0 -27.5 11.5t-10.5 28.5t10.5 28.5t27.5 11.5q18 0 28.5 -11t10.5 -29t-11 -29t-28 -11zM176 -225l12 46q24 -10 46 -10q41 0 59.5 26t18.5 84v552h53v-564q0 -75 -36 -110.5t-90 -35.5q-38 0 -63 12zM338 593q-17 0 -27.5 11.5
t-10.5 28.5t10.5 28.5t27.5 11.5q18 0 28.5 -11t10.5 -29t-11 -29t-28 -11z" />
    <glyph glyph-name="Jcircumflex" unicode="&#x134;" horiz-adv-x="270" 
d="M-24 -174l9 47q19 -6 46 -6q55 0 76 29t21 87v676h53v-691q0 -149 -153 -149q-28 0 -52 7zM27 696l98 147h57l98 -147h-50l-76 109l-77 -109h-50z" />
    <glyph glyph-name="jcircumflex" unicode="&#x135;" horiz-adv-x="229" 
d="M-43 -225l12 46q24 -10 46 -10q41 0 59.5 26t18.5 84v552h53v-564q0 -75 -36 -110.5t-90 -35.5q-38 0 -63 12zM-12 531l98 147h57l98 -147h-50l-76 109l-77 -109h-50z" />
    <glyph glyph-name="Kcommaaccent" unicode="&#x136;" horiz-adv-x="510" 
d="M89 0v659h53v-311h2l261 311h66l-279 -329l298 -330h-70l-276 306h-2v-306h-53zM204 -237l-17 37q71 22 71 76q0 31 -26 72h51q25 -30 25 -74q0 -80 -104 -111z" />
    <glyph glyph-name="kcommaaccent" unicode="&#x137;" horiz-adv-x="416" 
d="M73 0v708h53v-414h2l191 179h68l-213 -197l238 -276h-68l-216 253h-2v-253h-53zM162 -237l-17 37q71 22 71 76q0 31 -26 72h51q25 -30 25 -74q0 -80 -104 -111z" />
    <glyph glyph-name="Lacute" unicode="&#x139;" horiz-adv-x="417" 
d="M89 0v659h53v-613h250v-46h-303zM90 696l59 147h63l-80 -147h-42z" />
    <glyph glyph-name="lacute" unicode="&#x13a;" horiz-adv-x="223" 
d="M75 732l50 127h64l-70 -127h-44zM73 77v631h53v-612q0 -30 8.5 -41.5t28.5 -11.5q15 0 29 7l12 -43q-26 -12 -56 -12q-75 0 -75 82z" />
    <glyph glyph-name="Lcommaaccent" unicode="&#x13b;" horiz-adv-x="417" 
d="M89 0v659h53v-613h250v-46h-303zM176 -237l-17 37q71 22 71 76q0 31 -26 72h51q25 -30 25 -74q0 -80 -104 -111z" />
    <glyph glyph-name="lcommaaccent" unicode="&#x13c;" horiz-adv-x="223" 
d="M73 77v631h53v-612q0 -30 8.5 -41.5t28.5 -11.5q15 0 29 7l12 -43q-26 -12 -56 -12q-75 0 -75 82zM79 -237l-17 37q71 22 71 76q0 31 -26 72h51q25 -30 25 -74q0 -80 -104 -111z" />
    <glyph glyph-name="Lcaron" unicode="&#x13d;" horiz-adv-x="417" 
d="M89 0v659h53v-613h250v-46h-303zM246 513l36 195h56l-51 -195h-41z" />
    <glyph glyph-name="lcaron" unicode="&#x13e;" horiz-adv-x="223" 
d="M73 77v631h53v-612q0 -30 8.5 -41.5t28.5 -11.5q15 0 29 7l12 -43q-26 -12 -56 -12q-75 0 -75 82zM168 513l36 195h56l-51 -195h-41z" />
    <glyph glyph-name="Ldot" unicode="&#x13f;" horiz-adv-x="417" 
d="M89 0v659h53v-613h250v-46h-303zM322 301q-16 0 -27.5 12t-11.5 29t11.5 29t27.5 12t27.5 -12t11.5 -29t-11.5 -29t-27.5 -12z" />
    <glyph glyph-name="ldot" unicode="&#x140;" horiz-adv-x="243" 
d="M73 77v631h53v-612q0 -30 8.5 -41.5t28.5 -11.5q15 0 29 7l12 -43q-26 -12 -56 -12q-75 0 -75 82zM223 295q-16 0 -27.5 12t-11.5 29t11.5 29t27.5 12t27.5 -12t11.5 -29t-11.5 -29t-27.5 -12z" />
    <glyph glyph-name="Lslash" unicode="&#x141;" horiz-adv-x="417" 
d="M30 221v52l59 35v351h53v-320l169 101v-51l-169 -101v-242h250v-46h-303v256z" />
    <glyph glyph-name="lslash" unicode="&#x142;" horiz-adv-x="253" 
d="M35 261v52l58 34v361h53v-329l69 41v-52l-69 -41v-229q0 -30 8.5 -41.5t28.5 -11.5q15 0 29 7l12 -45q-26 -12 -56 -12q-75 0 -75 82v218z" />
    <glyph glyph-name="Nacute" unicode="&#x143;" horiz-adv-x="702" 
d="M613 0h-41l-330 436q-53 69 -100 139h-2q2 -72 2 -118v-457h-53v659h49l317 -420q61 -80 105 -147h2q-2 72 -2 118v449h53v-659zM319 696l59 147h63l-80 -147h-42z" />
    <glyph glyph-name="nacute" unicode="&#x144;" horiz-adv-x="493" 
d="M70 0v473h44l8 -64q88 76 167 76q59 0 97.5 -41.5t38.5 -122.5v-321h-53v302q0 134 -91 134q-68 0 -158 -81v-355h-53zM202 531l59 147h63l-80 -147h-42z" />
    <glyph glyph-name="Ncommaaccent" unicode="&#x145;" horiz-adv-x="702" 
d="M613 0h-41l-330 436q-53 69 -100 139h-2q2 -72 2 -118v-457h-53v659h49l317 -420q61 -80 105 -147h2q-2 72 -2 118v449h53v-659zM298 -237l-17 37q71 22 71 76q0 31 -26 72h51q25 -30 25 -74q0 -80 -104 -111z" />
    <glyph glyph-name="ncommaaccent" unicode="&#x146;" horiz-adv-x="493" 
d="M70 0v473h44l8 -64q88 76 167 76q59 0 97.5 -41.5t38.5 -122.5v-321h-53v302q0 134 -91 134q-68 0 -158 -81v-355h-53zM189 -237l-17 37q71 22 71 76q0 31 -26 72h51q25 -30 25 -74q0 -80 -104 -111z" />
    <glyph glyph-name="Ncaron" unicode="&#x147;" horiz-adv-x="702" 
d="M613 0h-41l-330 436q-53 69 -100 139h-2q2 -72 2 -118v-457h-53v659h49l317 -420q61 -80 105 -147h2q-2 72 -2 118v449h53v-659zM326 696l-98 147h51l77 -109l76 109h49l-98 -147h-57z" />
    <glyph glyph-name="ncaron" unicode="&#x148;" horiz-adv-x="493" 
d="M70 0v473h44l8 -64q88 76 167 76q59 0 97.5 -41.5t38.5 -122.5v-321h-53v302q0 134 -91 134q-68 0 -158 -81v-355h-53zM205 532l-98 147h51l77 -109l76 109h49l-98 -147h-57z" />
    <glyph glyph-name="Eng" unicode="&#x14a;" horiz-adv-x="702" 
d="M89 0v659h49l317 -420q61 -80 105 -147h2q-2 72 -2 118v449h53v-708q0 -75 -36 -110.5t-90 -35.5q-38 0 -63 12l12 46q24 -10 46 -10q41 0 59.5 26t18.5 84v53l-318 420q-53 69 -100 139h-2q2 -72 2 -118v-457h-53z" />
    <glyph glyph-name="eng" unicode="&#x14b;" horiz-adv-x="493" 
d="M236 -183l12 46q24 -10 46 -10q41 0 59.5 26t18.5 84v339q0 134 -91 134q-68 0 -158 -81v-355h-53v473h44l8 -64q88 76 167 76q59 0 97.5 -41.5t38.5 -122.5v-370q0 -75 -36 -110.5t-90 -35.5q-38 0 -63 12z" />
    <glyph glyph-name="Omacron" unicode="&#x14c;" horiz-adv-x="742" 
d="M371 -10q-137 0 -226.5 92t-89.5 244q0 149 89.5 243.5t226.5 94.5q138 0 227 -95.5t89 -242.5q0 -152 -90.5 -244t-225.5 -92zM371 38q118 0 189 80t71 208q0 124 -69 207t-191 83q-117 0 -188.5 -81t-71.5 -209t71 -208t189 -80zM258 722v46h232v-46h-232z" />
    <glyph glyph-name="omacron" unicode="&#x14d;" horiz-adv-x="505" 
d="M252 -10q-94 0 -152 71t-58 176q0 106 58 177t153 71q94 0 152 -71t58 -177q0 -105 -58 -176t-153 -71zM252 38q69 0 112 55.5t43 143.5q0 89 -42.5 144.5t-111.5 55.5t-112 -55.5t-43 -144.5q0 -88 42.5 -143.5t111.5 -55.5zM137 576v46h232v-46h-232z" />
    <glyph glyph-name="Obreve" unicode="&#x14e;" horiz-adv-x="742" 
d="M371 -10q-137 0 -226.5 92t-89.5 244q0 149 89.5 243.5t226.5 94.5q138 0 227 -95.5t89 -242.5q0 -152 -90.5 -244t-225.5 -92zM371 38q118 0 189 80t71 208q0 124 -69 207t-191 83q-117 0 -188.5 -81t-71.5 -209t71 -208t189 -80zM449 822h41q-4 -52 -35 -83t-83 -31
q-51 0 -80.5 30.5t-33.5 83.5h41q12 -71 75 -71t75 71z" />
    <glyph glyph-name="obreve" unicode="&#x14f;" horiz-adv-x="505" 
d="M252 -10q-94 0 -152 71t-58 176q0 106 58 177t153 71q94 0 152 -71t58 -177q0 -105 -58 -176t-153 -71zM252 38q69 0 112 55.5t43 143.5q0 89 -42.5 144.5t-111.5 55.5t-112 -55.5t-43 -144.5q0 -88 42.5 -143.5t111.5 -55.5zM328 660h41q-4 -52 -35 -83t-83 -31
q-51 0 -80.5 30.5t-33.5 83.5h41q12 -71 75 -71t75 71z" />
    <glyph glyph-name="Ohungarumlaut" unicode="&#x150;" horiz-adv-x="742" 
d="M371 -10q-137 0 -226.5 92t-89.5 244q0 149 89.5 243.5t226.5 94.5q138 0 227 -95.5t89 -242.5q0 -152 -90.5 -244t-225.5 -92zM371 38q118 0 189 80t71 208q0 124 -69 207t-191 83q-117 0 -188.5 -81t-71.5 -209t71 -208t189 -80zM285 696l58 147h67l-81 -147h-44z
M440 696l58 147h67l-81 -147h-44z" />
    <glyph glyph-name="ohungarumlaut" unicode="&#x151;" horiz-adv-x="505" 
d="M252 -10q-94 0 -152 71t-58 176q0 106 58 177t153 71q94 0 152 -71t58 -177q0 -105 -58 -176t-153 -71zM252 38q69 0 112 55.5t43 143.5q0 89 -42.5 144.5t-111.5 55.5t-112 -55.5t-43 -144.5q0 -88 42.5 -143.5t111.5 -55.5zM157 531l58 147h67l-81 -147h-44zM312 531
l58 147h67l-81 -147h-44z" />
    <glyph glyph-name="OE" unicode="&#x152;" horiz-adv-x="846" 
d="M788 0h-200q-53 0 -124.5 -5t-83.5 -5q-96 0 -169 41t-114.5 117.5t-41.5 177.5q0 98 41 174.5t113 119.5q74 44 180 44q22 0 85 -2.5t93 -2.5h213l-20 -46h-225v-252h220v-46h-220v-269h253v-46zM384 38q56 0 98 6v569q-3 0 -39 1.5t-54 1.5q-89 0 -150 -36
q-62 -36 -95 -102.5t-33 -151.5q0 -88 34.5 -155t98.5 -101q59 -32 140 -32z" />
    <glyph glyph-name="oe" unicode="&#x153;" horiz-adv-x="811" 
d="M252 -10q-94 0 -152 71t-58 176q0 106 58 177t153 71q60 0 106.5 -30t68.5 -83h2q20 53 63 83t95 30q85 0 132.5 -64t47.5 -175v-14h-309q1 -83 45.5 -138.5t122.5 -55.5q58 0 115 32l18 -39q-61 -41 -143 -41q-129 0 -184 118h-2q-55 -118 -179 -118zM252 38
q69 0 110.5 55t41.5 144t-41.5 145t-109.5 56q-69 0 -112 -56t-43 -145q0 -88 42.5 -143.5t111.5 -55.5zM460 278h250q-2 66 -33 113t-87 47q-57 0 -92.5 -45.5t-37.5 -114.5z" />
    <glyph glyph-name="Racute" unicode="&#x154;" horiz-adv-x="519" 
d="M89 0v659h114q98 0 152 -38q68 -49 68 -138q0 -135 -136 -176v-2q20 -10 78 -104l124 -201h-64l-124 202q-49 80 -77 88h-82v-290h-53zM142 336h66q56 0 99 25q61 35 61 117q0 65 -40 99q-41 36 -119 36h-67v-277zM194 696l59 147h63l-80 -147h-42z" />
    <glyph glyph-name="racute" unicode="&#x155;" horiz-adv-x="301" 
d="M70 0v473h44l7 -63q67 75 135 75q28 0 44 -9l-19 -52q-19 7 -35 7q-50 0 -123 -77v-354h-53zM123 531l59 147h63l-80 -147h-42z" />
    <glyph glyph-name="Rcommaaccent" unicode="&#x156;" horiz-adv-x="519" 
d="M89 0v659h114q98 0 152 -38q68 -49 68 -138q0 -135 -136 -176v-2q20 -10 78 -104l124 -201h-64l-124 202q-49 80 -77 88h-82v-290h-53zM142 336h66q56 0 99 25q61 35 61 117q0 65 -40 99q-41 36 -119 36h-67v-277zM211 -237l-17 37q71 22 71 76q0 31 -26 72h51
q25 -30 25 -74q0 -80 -104 -111z" />
    <glyph glyph-name="rcommaaccent" unicode="&#x157;" horiz-adv-x="301" 
d="M70 0v473h44l7 -63q67 75 135 75q28 0 44 -9l-19 -52q-19 7 -35 7q-50 0 -123 -77v-354h-53zM48 -237l-17 37q71 22 71 76q0 31 -26 72h51q25 -30 25 -74q0 -80 -104 -111z" />
    <glyph glyph-name="Rcaron" unicode="&#x158;" horiz-adv-x="519" 
d="M89 0v659h114q98 0 152 -38q68 -49 68 -138q0 -135 -136 -176v-2q20 -10 78 -104l124 -201h-64l-124 202q-49 80 -77 88h-82v-290h-53zM142 336h66q56 0 99 25q61 35 61 117q0 65 -40 99q-41 36 -119 36h-67v-277zM201 696l-98 147h51l77 -109l76 109h49l-98 -147h-57z
" />
    <glyph glyph-name="rcaron" unicode="&#x159;" horiz-adv-x="301" 
d="M59 0v473h44l7 -63q67 75 135 75q28 0 44 -9l-19 -52q-19 7 -35 7q-50 0 -123 -77v-354h-53zM130 532l-98 147h51l77 -109l76 109h49l-98 -147h-57z" />
    <glyph glyph-name="Sacute" unicode="&#x15a;" horiz-adv-x="473" 
d="M55 37l24 43q64 -42 141 -42q63 0 103 29t40 90q0 47 -30 82t-73.5 58.5l-86.5 48t-73 64t-30 93.5q0 70 50 115.5t136 45.5q77 0 135 -29v-51q-57 33 -134 33q-55 0 -93.5 -26.5t-38.5 -81.5q0 -37 21.5 -67.5t54.5 -49.5l70.5 -42l70.5 -45t54.5 -60t21.5 -85
q0 -80 -54.5 -125t-146.5 -45q-90 0 -162 47zM224 696l59 147h63l-80 -147h-42z" />
    <glyph glyph-name="sacute" unicode="&#x15b;" horiz-adv-x="361" 
d="M28 28l18 43q57 -33 114 -33q47 0 78 21.5t31 65.5q0 31 -23 52.5t-55.5 35t-64.5 29.5t-55 45.5t-23 72.5q0 53 39.5 89t111.5 36q56 0 109 -22v-49q-54 24 -106 24q-42 0 -71.5 -17.5t-29.5 -57.5q0 -33 23 -54.5t55.5 -35.5t65 -29.5t55.5 -45t23 -73.5
q0 -65 -46.5 -100t-120.5 -35q-70 0 -128 38zM155 531l59 147h63l-80 -147h-42z" />
    <glyph glyph-name="Scircumflex" unicode="&#x15c;" horiz-adv-x="473" 
d="M55 37l24 43q64 -42 141 -42q63 0 103 29t40 90q0 47 -30 82t-73.5 58.5l-86.5 48t-73 64t-30 93.5q0 70 50 115.5t136 45.5q77 0 135 -29v-51q-57 33 -134 33q-55 0 -93.5 -26.5t-38.5 -81.5q0 -37 21.5 -67.5t54.5 -49.5l70.5 -42l70.5 -45t54.5 -60t21.5 -85
q0 -80 -54.5 -125t-146.5 -45q-90 0 -162 47zM113 696l98 147h57l98 -147h-50l-76 109l-77 -109h-50z" />
    <glyph glyph-name="scircumflex" unicode="&#x15d;" horiz-adv-x="361" 
d="M28 28l18 43q57 -33 114 -33q47 0 78 21.5t31 65.5q0 31 -23 52.5t-55.5 35t-64.5 29.5t-55 45.5t-23 72.5q0 53 39.5 89t111.5 36q56 0 109 -22v-49q-54 24 -106 24q-42 0 -71.5 -17.5t-29.5 -57.5q0 -33 23 -54.5t55.5 -35.5t65 -29.5t55.5 -45t23 -73.5
q0 -65 -46.5 -100t-120.5 -35q-70 0 -128 38zM54 531l98 147h57l98 -147h-50l-76 109l-77 -109h-50z" />
    <glyph glyph-name="Scedilla" unicode="&#x15e;" horiz-adv-x="461" 
d="M138 -200l12 38q25 -11 51 -11q55 0 55 42q0 14 -7 22.5t-21 12t-26.5 4.5t-32.5 1l25 82q-79 5 -139 46l24 43q64 -42 141 -42q63 0 103 29t40 90q0 47 -30 82t-73.5 58.5l-86.5 48t-73 64t-30 93.5q0 70 50 115.5t136 45.5q77 0 135 -29v-51q-57 33 -134 33
q-55 0 -93.5 -26.5t-38.5 -81.5q0 -37 21.5 -67.5t54.5 -49.5l70.5 -42l70.5 -45t54.5 -60t21.5 -85q0 -74 -47.5 -118.5t-129.5 -50.5l-15 -47q33 -2 56.5 -19t23.5 -53q0 -40 -30 -62t-75 -22q-32 0 -63 12z" />
    <glyph glyph-name="scedilla" unicode="&#x15f;" horiz-adv-x="361" 
d="M82 -200l12 38q25 -11 51 -11q55 0 55 42q0 9 -2.5 15.5t-9.5 11t-11.5 7t-16 4l-15.5 2t-17.5 0.5h-14.5l25 82q-61 5 -110 37l18 43q57 -33 114 -33q47 0 78 21.5t31 65.5q0 31 -23 52.5t-55.5 35t-64.5 29.5t-55 45.5t-23 72.5q0 53 39.5 89t111.5 36q56 0 109 -22
v-49q-54 24 -106 24q-42 0 -71.5 -17.5t-29.5 -57.5q0 -33 23 -54.5t55.5 -35.5t65 -29.5t55.5 -45t23 -73.5q0 -58 -38 -92.5t-100 -40.5l-15 -48q33 -2 56.5 -19t23.5 -53q0 -40 -30 -62t-75 -22q-32 0 -63 12z" />
    <glyph glyph-name="Scaron" unicode="&#x160;" horiz-adv-x="473" 
d="M55 37l24 43q64 -42 141 -42q63 0 103 29t40 90q0 47 -30 82t-73.5 58.5l-86.5 48t-73 64t-30 93.5q0 70 50 115.5t136 45.5q77 0 135 -29v-51q-57 33 -134 33q-55 0 -93.5 -26.5t-38.5 -81.5q0 -37 21.5 -67.5t54.5 -49.5l70.5 -42l70.5 -45t54.5 -60t21.5 -85
q0 -80 -54.5 -125t-146.5 -45q-90 0 -162 47zM211 696l-98 147h51l77 -109l76 109h49l-98 -147h-57z" />
    <glyph glyph-name="scaron" unicode="&#x161;" horiz-adv-x="361" 
d="M28 28l18 43q57 -33 114 -33q47 0 78 21.5t31 65.5q0 31 -23 52.5t-55.5 35t-64.5 29.5t-55 45.5t-23 72.5q0 53 39.5 89t111.5 36q56 0 109 -22v-49q-54 24 -106 24q-42 0 -71.5 -17.5t-29.5 -57.5q0 -33 23 -54.5t55.5 -35.5t65 -29.5t55.5 -45t23 -73.5
q0 -65 -46.5 -100t-120.5 -35q-70 0 -128 38zM151 532l-98 147h51l77 -109l76 109h49l-98 -147h-57z" />
    <glyph glyph-name="Tcommaaccent" unicode="&#x162;" horiz-adv-x="478" 
d="M211 0v613h-189v46h452l-20 -46h-190v-613h-53zM179 -237l-17 37q71 22 71 76q0 31 -26 72h51q25 -30 25 -74q0 -80 -104 -111z" />
    <glyph glyph-name="tcommaaccent" unicode="&#x163;" horiz-adv-x="330" 
d="M196 -10q-94 0 -94 103v334h-77v46h77v106l53 19v-125h140l-18 -46h-122v-330q0 -59 50 -59q40 0 80 28l22 -39q-52 -37 -111 -37zM119 -237l-17 37q71 22 71 76q0 31 -26 72h51q25 -30 25 -74q0 -80 -104 -111z" />
    <glyph glyph-name="Tcaron" unicode="&#x164;" horiz-adv-x="478" 
d="M211 0v613h-189v46h452l-20 -46h-190v-613h-53zM212 696l-98 147h51l77 -109l76 109h49l-98 -147h-57z" />
    <glyph glyph-name="tcaron" unicode="&#x165;" horiz-adv-x="330" 
d="M196 -10q-94 0 -94 103v334h-77v46h77v106l53 19v-125h140l-18 -46h-122v-330q0 -59 50 -59q40 0 80 28l22 -39q-52 -37 -111 -37zM203 513l36 195h56l-51 -195h-41z" />
    <glyph glyph-name="Tbar" unicode="&#x166;" horiz-adv-x="478" 
d="M211 0v309h-116v46h116v258h-189v46h452l-20 -46h-190v-258h116v-46h-116v-309h-53z" />
    <glyph glyph-name="tbar" unicode="&#x167;" horiz-adv-x="330" 
d="M25 251v46h77v130h-77v46h77v106l53 19v-125h140l-18 -46h-122v-130h92v-46h-92v-154q0 -59 50 -59q36 0 83 33l18 -39q-58 -42 -111 -42q-93 0 -93 103v158h-77z" />
    <glyph glyph-name="Utilde" unicode="&#x168;" horiz-adv-x="633" 
d="M316 -10q-178 0 -221 146q-11 40 -11 96v427h53v-421q0 -57 12 -93q37 -108 168 -108q130 0 167 108q12 36 12 97v417h53v-427q0 -57 -13 -99q-45 -143 -220 -143zM190 729v15q0 33 19 53.5t47 20.5q29 0 70 -25t56 -25q29 0 29 44h41v-15q0 -33 -19 -53.5t-47 -20.5
t-69.5 25t-56.5 25q-29 0 -29 -44h-41z" />
    <glyph glyph-name="utilde" unicode="&#x169;" horiz-adv-x="492" 
d="M200 -10q-39 0 -72.5 20.5t-47.5 65.5q-10 32 -10 80v317h53v-297q0 -55 8 -80q17 -57 81 -57q44 0 85.5 23.5t63.5 53.5v357h53v-294q0 -141 10 -179h-50l-12 57q-77 -67 -162 -67zM115 557v15q0 33 19 53.5t47 20.5q29 0 70 -25t56 -25q29 0 29 44h41v-15
q0 -33 -19 -53.5t-47 -20.5t-69.5 25t-56.5 25q-29 0 -29 -44h-41z" />
    <glyph glyph-name="Umacron" unicode="&#x16a;" horiz-adv-x="633" 
d="M316 -10q-178 0 -221 146q-11 40 -11 96v427h53v-421q0 -57 12 -93q37 -108 168 -108q130 0 167 108q12 36 12 97v417h53v-427q0 -57 -13 -99q-45 -143 -220 -143zM205 722v46h232v-46h-232z" />
    <glyph glyph-name="umacron" unicode="&#x16b;" horiz-adv-x="492" 
d="M200 -10q-39 0 -72.5 20.5t-47.5 65.5q-10 32 -10 80v317h53v-297q0 -55 8 -80q17 -57 81 -57q44 0 85.5 23.5t63.5 53.5v357h53v-294q0 -141 10 -179h-50l-12 57q-77 -67 -162 -67zM130 576v46h232v-46h-232z" />
    <glyph glyph-name="Ubreve" unicode="&#x16c;" horiz-adv-x="633" 
d="M316 -10q-178 0 -221 146q-11 40 -11 96v427h53v-421q0 -57 12 -93q37 -108 168 -108q130 0 167 108q12 36 12 97v417h53v-427q0 -57 -13 -99q-45 -143 -220 -143zM396 822h41q-4 -52 -35 -83t-83 -31q-51 0 -80.5 30.5t-33.5 83.5h41q12 -71 75 -71t75 71z" />
    <glyph glyph-name="ubreve" unicode="&#x16d;" horiz-adv-x="492" 
d="M200 -10q-39 0 -72.5 20.5t-47.5 65.5q-10 32 -10 80v317h53v-297q0 -55 8 -80q17 -57 81 -57q44 0 85.5 23.5t63.5 53.5v357h53v-294q0 -141 10 -179h-50l-12 57q-77 -67 -162 -67zM317 660h41q-4 -52 -35 -83t-83 -31q-51 0 -80.5 30.5t-33.5 83.5h41q12 -71 75 -71
t75 71z" />
    <glyph glyph-name="Uring" unicode="&#x16e;" horiz-adv-x="633" 
d="M316 -10q-178 0 -221 146q-11 40 -11 96v427h53v-421q0 -57 12 -93q37 -108 168 -108q130 0 167 108q12 36 12 97v417h53v-427q0 -57 -13 -99q-45 -143 -220 -143zM321 653q-43 0 -70 26t-27 68t27 68t70 26t70 -26t27 -68t-27 -68t-70 -26zM321 689q24 0 38.5 16
t14.5 42t-14.5 42t-38.5 16t-38.5 -16t-14.5 -42t14.5 -42t38.5 -16z" />
    <glyph glyph-name="uring" unicode="&#x16f;" horiz-adv-x="492" 
d="M200 -10q-39 0 -72.5 20.5t-47.5 65.5q-10 32 -10 80v317h53v-297q0 -55 8 -80q17 -57 81 -57q44 0 85.5 23.5t63.5 53.5v357h53v-294q0 -141 10 -179h-50l-12 57q-77 -67 -162 -67zM246 524q-43 0 -70 26t-27 68t27 68t70 26t70 -26t27 -68t-27 -68t-70 -26zM246 560
q24 0 38.5 16t14.5 42t-14.5 42t-38.5 16t-38.5 -16t-14.5 -42t14.5 -42t38.5 -16z" />
    <glyph glyph-name="Uhungarumlaut" unicode="&#x170;" horiz-adv-x="633" 
d="M316 -10q-178 0 -221 146q-11 40 -11 96v427h53v-421q0 -57 12 -93q37 -108 168 -108q130 0 167 108q12 36 12 97v417h53v-427q0 -57 -13 -99q-45 -143 -220 -143zM208 696l58 147h67l-81 -147h-44zM363 696l58 147h67l-81 -147h-44z" />
    <glyph glyph-name="uhungarumlaut" unicode="&#x171;" horiz-adv-x="492" 
d="M200 -10q-39 0 -72.5 20.5t-47.5 65.5q-10 32 -10 80v317h53v-297q0 -55 8 -80q17 -57 81 -57q44 0 85.5 23.5t63.5 53.5v357h53v-294q0 -141 10 -179h-50l-12 57q-77 -67 -162 -67zM145 531l58 147h67l-81 -147h-44zM300 531l58 147h67l-81 -147h-44z" />
    <glyph glyph-name="Uogonek" unicode="&#x172;" horiz-adv-x="633" 
d="M380 -162l9 -40q-29 -10 -54 -10q-40 0 -62 23t-22 55q0 65 72 122v2q-184 -3 -228 146q-11 40 -11 96v427h53v-421q0 -57 12 -93q37 -108 168 -108q130 0 167 108q12 36 12 97v417h53v-427q0 -57 -13 -99q-29 -90 -111 -124q-52 -21 -88 -59.5t-36 -75.5q0 -44 40 -44
q15 0 39 8z" />
    <glyph glyph-name="uogonek" unicode="&#x173;" horiz-adv-x="492" 
d="M372 11l-10 46q-77 -67 -162 -67q-39 0 -72.5 20.5t-47.5 65.5q-10 32 -10 80v317h53v-297q0 -55 8 -80q17 -57 81 -57q44 0 85.5 23.5t63.5 53.5v357h53v-298q0 -141 10 -179q-108 -53 -108 -122q0 -44 40 -44q15 0 39 8l9 -40q-29 -10 -54 -10q-40 0 -62 23t-22 55
q0 80 106 145z" />
    <glyph glyph-name="Wcircumflex" unicode="&#x174;" horiz-adv-x="880" 
d="M237 -3l-218 662h60l130 -403q39 -122 50 -164h2q21 70 53 162l102 295l-37 110h61l136 -409q40 -124 49 -158h2q19 73 46 156l130 411h58l-216 -662h-40l-108 323q-38 113 -51 155h-2q-18 -58 -52 -156l-112 -322h-43zM318 696l98 147h57l98 -147h-50l-76 109l-77 -109
h-50z" />
    <glyph glyph-name="wcircumflex" unicode="&#x175;" horiz-adv-x="664" 
d="M162 -3l-150 476h58l118 -402h2l112 402h59l117 -402h2l115 402h57l-149 -476h-54l-116 404h-2l-115 -404h-54zM205 531l98 147h57l98 -147h-50l-76 109l-77 -109h-50z" />
    <glyph glyph-name="Ycircumflex" unicode="&#x176;" horiz-adv-x="514" 
d="M233 0v264l-214 395h61l180 -337h2l174 337h59l-209 -396v-263h-53zM134 696l98 147h57l98 -147h-50l-76 109l-77 -109h-50z" />
    <glyph glyph-name="ycircumflex" unicode="&#x177;" horiz-adv-x="443" 
d="M431 473l-175 -519q-38 -113 -86 -152t-112 -39q-42 0 -74 13l12 47q29 -12 63 -12q106 0 158 183l-206 479h59l170 -404h2l132 404h57zM100 531l98 147h57l98 -147h-50l-76 109l-77 -109h-50z" />
    <glyph glyph-name="Ydieresis" unicode="&#x178;" horiz-adv-x="514" 
d="M233 0v264l-214 395h61l180 -337h2l174 337h59l-209 -396v-263h-53zM175 708q-15 0 -25.5 10.5t-10.5 25.5t10.5 25.5t25.5 10.5t25.5 -10.5t10.5 -25.5t-10.5 -25.5t-25.5 -10.5zM347 708q-15 0 -25.5 10.5t-10.5 25.5t10.5 25.5t25.5 10.5t25.5 -10.5t10.5 -25.5
t-10.5 -25.5t-25.5 -10.5z" />
    <glyph glyph-name="Zacute" unicode="&#x179;" horiz-adv-x="535" 
d="M60 0l333 613h-320l-16 46h418l-332 -613h355v-46h-438zM238 696l59 147h63l-80 -147h-42z" />
    <glyph glyph-name="zacute" unicode="&#x17a;" horiz-adv-x="368" 
d="M24 0l249 427h-222l-13 46h317l-247 -427h245v-46h-329zM158 531l59 147h63l-80 -147h-42z" />
    <glyph glyph-name="Zdotaccent" unicode="&#x17b;" horiz-adv-x="535" 
d="M60 0l333 613h-320l-16 46h418l-332 -613h355v-46h-438zM273 723q-17 0 -27.5 11.5t-10.5 28.5t10.5 28.5t27.5 11.5q18 0 28.5 -11t10.5 -29t-11 -29t-28 -11z" />
    <glyph glyph-name="zdotaccent" unicode="&#x17c;" horiz-adv-x="368" 
d="M24 0l249 427h-222l-13 46h317l-247 -427h245v-46h-329zM193 593q-17 0 -27.5 11.5t-10.5 28.5t10.5 28.5t27.5 11.5q18 0 28.5 -11t10.5 -29t-11 -29t-28 -11z" />
    <glyph glyph-name="Zcaron" unicode="&#x17d;" horiz-adv-x="535" 
d="M60 0l333 613h-320l-16 46h418l-332 -613h355v-46h-438zM245 696l-98 147h51l77 -109l76 109h49l-98 -147h-57z" />
    <glyph glyph-name="zcaron" unicode="&#x17e;" horiz-adv-x="368" 
d="M24 0l249 427h-222l-13 46h317l-247 -427h245v-46h-329zM165 532l-98 147h51l77 -109l76 109h49l-98 -147h-57z" />
    <glyph glyph-name="florin" unicode="&#x192;" horiz-adv-x="513" 
d="M265 329l-28 -313q-8 -96 -42 -136q-43 -50 -120 -50q-48 0 -90 20l21 43q30 -16 68 -16q55 0 81 38q20 29 25 88l29 326h-98v46h102l13 145q7 77 28 114q43 74 134 74q49 0 91 -20l-21 -42q-28 15 -68 15q-59 0 -86 -47q-16 -27 -20 -83l-14 -156h124l-18 -46h-111z" />
    <glyph glyph-name="Aringacute" unicode="&#x1fa;" horiz-adv-x="568" 
d="M21 0l244 654q-36 5 -57.5 30t-21.5 63q0 40 24.5 65.5t64.5 28.5l43 112h67l-68 -117q29 -9 46 -32.5t17 -56.5q0 -37 -21.5 -62t-56.5 -30l245 -655h-58l-66 182h-278l-66 -182h-58zM163 228h242l-78 218q-31 86 -42 123h-2q-6 -21 -42 -123zM283 689q24 0 38.5 16
t14.5 42t-14.5 42t-38.5 16t-38.5 -16t-14.5 -42t14.5 -42t38.5 -16z" />
    <glyph glyph-name="aringacute" unicode="&#x1fb;" horiz-adv-x="448" 
d="M221 517q-43 0 -70 26t-27 68q0 39 24 64.5t63 28.5l51 135h67l-78 -138q31 -8 49 -32t18 -58q0 -42 -27 -68t-70 -26zM221 553q24 0 38.5 16t14.5 42t-14.5 42t-38.5 16t-38.5 -16t-14.5 -42t14.5 -42t38.5 -16zM187 -10q-65 0 -106 38.5t-41 105.5q0 91 80 128
q38 18 116 21l95 3v36q0 57 -29.5 86t-77.5 29q-65 0 -133 -41l-23 41q73 48 158 48q70 0 114 -38t44 -118v-150q0 -141 10 -179h-50l-12 57q-67 -67 -145 -67zM191 38q71 0 140 74v128l-92 -3q-61 -1 -97 -20q-46 -24 -46 -81q0 -43 25.5 -70.5t69.5 -27.5z" />
    <glyph glyph-name="AEacute" unicode="&#x1fc;" horiz-adv-x="778" 
d="M19 0l338 659h355l-20 -46h-283l44 -252h234v-46h-226l47 -269h212v-46h-259l-32 182h-257l-94 -182h-59zM195 228h226l-37 213q-4 21 -10.5 63l-9.5 62h-2q-10 -23 -70 -144zM439 696l59 147h63l-80 -147h-42z" />
    <glyph glyph-name="aeacute" unicode="&#x1fd;" horiz-adv-x="736" 
d="M187 -10q-62 0 -104.5 39t-42.5 105q0 71 51 107.5t142 36.5h98v44q0 57 -29.5 86t-77.5 29q-64 0 -133 -42l-23 42q73 48 158 48q108 0 142 -85h2q50 85 144 85q85 0 132 -64t47 -175v-14h-309q1 -83 45 -138.5t123 -55.5q58 0 115 32l18 -39q-61 -41 -143 -41
q-118 0 -176 99q-75 -99 -179 -99zM191 38q45 0 85.5 28t68.5 68q-15 44 -15 98h-91q-143 0 -143 -98q0 -42 26 -69t69 -27zM385 278h250q-2 66 -33 113t-87 47q-57 0 -92.5 -45.5t-37.5 -114.5zM348 531l59 147h63l-80 -147h-42z" />
    <glyph glyph-name="Oslashacute" unicode="&#x1fe;" horiz-adv-x="742" 
d="M92 -7l-37 32l72 77q-72 91 -72 224q0 149 89.5 243.5t226.5 94.5q119 0 206 -76l73 80l37 -32l-77 -83q77 -93 77 -227q0 -152 -90.5 -244t-225.5 -92q-124 0 -211 78zM575 516l-381 -412q71 -66 177 -66q118 0 189 80t71 208q0 113 -56 190zM163 141l381 411
q-69 64 -173 64q-117 0 -188.5 -81t-71.5 -209q0 -112 52 -185zM338 696l59 147h63l-80 -147h-42z" />
    <glyph glyph-name="oslashacute" unicode="&#x1ff;" horiz-adv-x="505" 
d="M229 531l59 147h63l-80 -147h-42zM76 -17l-35 30l51 60q-50 69 -50 164q0 106 58 177t153 71q76 0 133 -52l43 54l35 -30l-49 -58q48 -69 48 -162q0 -105 -58 -176t-153 -71q-76 0 -131 50zM153 78q40 -40 99 -40q69 0 112 55.5t43 143.5q0 70 -26 120zM126 115l228 280
q-41 43 -101 43q-69 0 -112 -56t-43 -145q0 -72 28 -122z" />
    <glyph glyph-name="Scommaaccent" unicode="&#x218;" horiz-adv-x="473" 
d="M55 37l24 43q64 -42 141 -42q63 0 103 29t40 90q0 47 -30 82t-73.5 58.5l-86.5 48t-73 64t-30 93.5q0 70 50 115.5t136 45.5q77 0 135 -29v-51q-57 33 -134 33q-55 0 -93.5 -26.5t-38.5 -81.5q0 -37 21.5 -67.5t54.5 -49.5l70.5 -42l70.5 -45t54.5 -60t21.5 -85
q0 -80 -54.5 -125t-146.5 -45q-90 0 -162 47zM170 -237l-17 37q71 22 71 76q0 31 -26 72h51q25 -30 25 -74q0 -80 -104 -111z" />
    <glyph glyph-name="scommaaccent" unicode="&#x219;" horiz-adv-x="361" 
d="M28 28l18 43q57 -33 114 -33q47 0 78 21.5t31 65.5q0 31 -23 52.5t-55.5 35t-64.5 29.5t-55 45.5t-23 72.5q0 53 39.5 89t111.5 36q56 0 109 -22v-49q-54 24 -106 24q-42 0 -71.5 -17.5t-29.5 -57.5q0 -33 23 -54.5t55.5 -35.5t65 -29.5t55.5 -45t23 -73.5
q0 -65 -46.5 -100t-120.5 -35q-70 0 -128 38zM125 -237l-17 37q71 22 71 76q0 31 -26 72h51q25 -30 25 -74q0 -80 -104 -111z" />
    <glyph glyph-name="circumflex" unicode="&#x2c6;" horiz-adv-x="350" 
d="M48 531l98 147h57l98 -147h-50l-76 109l-77 -109h-50z" />
    <glyph glyph-name="caron" unicode="&#x2c7;" horiz-adv-x="350" 
d="M146 532l-98 147h51l77 -109l76 109h49l-98 -147h-57z" />
    <glyph glyph-name="breve" unicode="&#x2d8;" horiz-adv-x="350" 
d="M250 660h41q-4 -52 -35 -83t-83 -31q-51 0 -80.5 30.5t-33.5 83.5h41q12 -71 75 -71t75 71z" />
    <glyph glyph-name="dotaccent" unicode="&#x2d9;" horiz-adv-x="350" 
d="M174 593q-17 0 -27.5 11.5t-10.5 28.5t10.5 28.5t27.5 11.5q18 0 28.5 -11t10.5 -29t-11 -29t-28 -11z" />
    <glyph glyph-name="ring" unicode="&#x2da;" horiz-adv-x="350" 
d="M175 524q-43 0 -70 26t-27 68t27 68t70 26t70 -26t27 -68t-27 -68t-70 -26zM175 560q24 0 38.5 16t14.5 42t-14.5 42t-38.5 16t-38.5 -16t-14.5 -42t14.5 -42t38.5 -16z" />
    <glyph glyph-name="ogonek" unicode="&#x2db;" horiz-adv-x="350" 
d="M223 -162l9 -40q-29 -10 -54 -10q-40 0 -62 23t-22 55q0 27 10 50.5t31.5 44t32 28l34.5 24.5l53 -13q-111 -59 -111 -126q0 -44 40 -44q15 0 39 8z" />
    <glyph glyph-name="tilde" unicode="&#x2dc;" horiz-adv-x="350" 
d="M44 557v15q0 33 19 53.5t47 20.5q29 0 70 -25t56 -25q29 0 29 44h41v-15q0 -33 -19 -53.5t-47 -20.5t-69.5 25t-56.5 25q-29 0 -29 -44h-41z" />
    <glyph glyph-name="hungarumlaut" unicode="&#x2dd;" horiz-adv-x="350" 
d="M86 531l58 147h67l-81 -147h-44zM241 531l58 147h67l-81 -147h-44z" />
    <glyph glyph-name="uni0315" unicode="&#x315;" horiz-adv-x="350" 
d="M119 513l36 195h56l-51 -195h-41z" />
    <glyph glyph-name="uni0326" unicode="&#x326;" horiz-adv-x="350" 
d="M131 -237l-17 37q71 22 71 76q0 31 -26 72h51q25 -30 25 -74q0 -80 -104 -111z" />
    <glyph glyph-name="Alphatonos" unicode="&#x386;" horiz-adv-x="576" 
d="M42 473l41 186h60l-52 -186h-49zM25 0l247 661h32l247 -661h-58l-66 182h-278l-66 -182h-58zM167 228h242l-78 216l-42 119h-2q-2 -6 -42 -119z" />
    <glyph glyph-name="Epsilontonos" unicode="&#x388;" horiz-adv-x="524" 
d="M4 473l41 186h60l-52 -186h-49zM156 0v659h298l-20 -46h-225v-252h220v-46h-220v-269h253v-46h-306z" />
    <glyph glyph-name="Etatonos" unicode="&#x389;" horiz-adv-x="736" 
d="M4 473l41 186h60l-52 -186h-49zM156 0v659h53v-298h381v298h53v-659h-53v315h-381v-315h-53z" />
    <glyph glyph-name="Iotatonos" unicode="&#x38a;" horiz-adv-x="302" 
d="M156 0v659h53v-659h-53zM4 473l41 186h60l-52 -186h-49z" />
    <glyph glyph-name="Omicrontonos" unicode="&#x38c;" horiz-adv-x="795" 
d="M4 473l41 186h60l-52 -186h-49zM426 -10q-137 0 -226.5 92t-89.5 244q0 149 89.5 243.5t226.5 94.5q138 0 227 -95.5t89 -242.5q0 -152 -90.5 -244t-225.5 -92zM426 38q118 0 189 80t71 208q0 124 -69 207t-191 83q-117 0 -188.5 -81t-71.5 -209t71 -208t189 -80z" />
    <glyph glyph-name="Upsilontonos" unicode="&#x38e;" horiz-adv-x="657" 
d="M4 473l41 186h60l-52 -186h-49zM362 0v206q0 163 -220 453h63q57 -74 112 -167t71 -158h2q30 128 179 325h61q-107 -147 -161 -252t-54 -205v-202h-53z" />
    <glyph glyph-name="Omegatonos" unicode="&#x38f;" horiz-adv-x="780" 
d="M4 473l41 186h60l-52 -186h-49zM114 0v46h72q50 0 90 -4v2q-75 50 -120.5 127.5t-45.5 173.5q0 60 20 116t57 102t97 73.5t134 27.5t134 -27.5t97 -73.5t57 -102t20 -116q0 -96 -45.5 -173.5t-120.5 -127.5v-2q40 4 90 4h72v-46h-244v38q92 52 142 131.5t50 174.5
q0 110 -65.5 191t-186.5 81t-186.5 -81t-65.5 -191q0 -95 50 -174.5t142 -131.5v-38h-244z" />
    <glyph glyph-name="iotadieresistonos" unicode="&#x390;" horiz-adv-x="228" 
d="M158 -5q-39 0 -61.5 23.5t-22.5 65.5v389h53v-381q0 -49 40 -49q20 0 34 7l14 -43q-26 -12 -57 -12zM27 568q-15 0 -25.5 10.5t-10.5 25.5t10.5 25.5t25.5 10.5t25.5 -10.5t10.5 -25.5t-10.5 -25.5t-25.5 -10.5zM67 531l50 167h70l-74 -167h-46zM209 568
q-15 0 -25.5 10.5t-10.5 25.5t10.5 25.5t25.5 10.5t25.5 -10.5t10.5 -25.5t-10.5 -25.5t-25.5 -10.5z" />
    <glyph glyph-name="Alpha" unicode="&#x391;" horiz-adv-x="576" 
d="M25 0l247 661h32l247 -661h-58l-66 182h-278l-66 -182h-58zM167 228h242l-78 216l-42 119h-2q-2 -6 -42 -119z" />
    <glyph glyph-name="Beta" unicode="&#x392;" horiz-adv-x="528" 
d="M93 0v659h135q99 0 150 -47t51 -120q0 -53 -24 -91.5t-66 -54.5v-2q56 -11 93 -54.5t37 -106.5q0 -86 -57.5 -134.5t-163.5 -48.5h-155zM146 46h107q160 0 160 134q0 61 -42 98t-110 37h-115v-269zM146 361h79q73 0 111 33.5t38 95.5q0 57 -35 90t-109 33h-84v-252z" />
    <glyph glyph-name="Gamma" unicode="&#x393;" horiz-adv-x="411" 
d="M93 0v659h308l-20 -46h-235v-613h-53z" />
    <glyph glyph-name="Epsilon" unicode="&#x395;" horiz-adv-x="461" 
d="M93 0v659h298l-20 -46h-225v-252h220v-46h-220v-269h253v-46h-306z" />
    <glyph glyph-name="Zeta" unicode="&#x396;" horiz-adv-x="537" 
d="M64 0l333 613h-320l-16 46h418l-332 -613h355v-46h-438z" />
    <glyph glyph-name="Eta" unicode="&#x397;" horiz-adv-x="673" 
d="M93 0v659h53v-298h381v298h53v-659h-53v315h-381v-315h-53z" />
    <glyph glyph-name="Theta" unicode="&#x398;" horiz-adv-x="738" 
d="M369 -10q-137 0 -226.5 92t-89.5 244q0 149 89.5 243.5t226.5 94.5q138 0 227 -95.5t89 -242.5q0 -152 -90.5 -244t-225.5 -92zM369 38q118 0 189 80t71 208q0 124 -69 207t-191 83q-117 0 -188.5 -81t-71.5 -209t71 -208t189 -80zM543 361v-48h-352v48h352z" />
    <glyph glyph-name="Iota" unicode="&#x399;" horiz-adv-x="239" 
d="M93 0v659h53v-659h-53z" />
    <glyph glyph-name="Kappa" unicode="&#x39a;" horiz-adv-x="508" 
d="M93 0v659h53v-311h2l261 311h66l-279 -329l298 -330h-70l-276 306h-2v-306h-53z" />
    <glyph glyph-name="Lambda" unicode="&#x39b;" horiz-adv-x="576" 
d="M25 0l247 661h32l247 -661h-58l-162 444l-42 119h-2q-4 -13 -42 -119l-162 -444h-58z" />
    <glyph glyph-name="Mu" unicode="&#x39c;" horiz-adv-x="786" 
d="M93 0v659h51l189 -289q48 -73 64 -100h2l64 103l179 286h51v-659h-53v446q0 83 2 122h-2q-17 -32 -48 -82l-178 -286h-31l-191 290q-34 51 -46 76h-2q2 -34 2 -120v-446h-53z" />
    <glyph glyph-name="Nu" unicode="&#x39d;" horiz-adv-x="710" 
d="M617 0h-41l-330 436q-53 69 -100 139h-2q2 -72 2 -118v-457h-53v659h49l317 -420q61 -80 105 -147h2q-2 72 -2 118v449h53v-659z" />
    <glyph glyph-name="Xi" unicode="&#x39e;" horiz-adv-x="519" 
d="M44 0v46h431v-46h-431zM102 315v46h313v-46h-313zM62 613v46h405l-20 -46h-385z" />
    <glyph glyph-name="Omicron" unicode="&#x39f;" horiz-adv-x="738" 
d="M375 -10q-137 0 -226.5 92t-89.5 244q0 149 89.5 243.5t226.5 94.5q138 0 227 -95.5t89 -242.5q0 -152 -90.5 -244t-225.5 -92zM375 38q118 0 189 80t71 208q0 124 -69 207t-191 83q-117 0 -188.5 -81t-71.5 -209t71 -208t189 -80z" />
    <glyph glyph-name="Pi" unicode="&#x3a0;" horiz-adv-x="647" 
d="M93 0v659h461v-659h-53v613h-355v-613h-53z" />
    <glyph glyph-name="Rho" unicode="&#x3a1;" horiz-adv-x="477" 
d="M93 0v659h108q90 0 141 -31q90 -55 90 -174q0 -126 -103 -178q-52 -26 -133 -26h-50v-250h-53zM146 296h55q63 0 104 22q72 38 72 136q0 94 -67 135q-40 24 -107 24h-57v-317z" />
    <glyph glyph-name="Sigma" unicode="&#x3a3;" horiz-adv-x="495" 
d="M34 0l197 351l-184 308h394l-18 -46h-287l155 -261l-171 -306h316v-46h-402z" />
    <glyph glyph-name="Tau" unicode="&#x3a4;" horiz-adv-x="486" 
d="M215 0v613h-189v46h452l-20 -46h-190v-613h-53z" />
    <glyph glyph-name="Upsilon" unicode="&#x3a5;" horiz-adv-x="542" 
d="M247 0v206q0 163 -220 453h63q57 -74 112 -167t71 -158h2q30 128 179 325h61q-107 -147 -161 -252t-54 -205v-202h-53z" />
    <glyph glyph-name="Phi" unicode="&#x3a6;" horiz-adv-x="733" 
d="M340 -20v64q-130 7 -208 82t-78 200q0 126 78.5 202.5t207.5 84.5v61h53v-61q129 -8 207.5 -84.5t78.5 -202.5q0 -125 -78 -200t-208 -82v-64h-53zM340 91v474q-107 -5 -168.5 -67t-61.5 -172q0 -107 59.5 -168.5t170.5 -66.5zM393 91q111 5 170.5 66.5t59.5 168.5
q0 110 -61.5 172t-168.5 67v-474z" />
    <glyph glyph-name="Chi" unicode="&#x3a7;" horiz-adv-x="565" 
d="M29 0l228 332l-216 327h65l187 -285l191 285h64l-222 -326l221 -333h-63l-193 291l-199 -291h-63z" />
    <glyph glyph-name="Psi" unicode="&#x3a8;" horiz-adv-x="703" 
d="M325 0v226q-125 6 -188 82.5t-63 258.5q0 43 3 92h53q-2 -31 -2 -85q0 -163 46.5 -229t150.5 -71v385h53v-385q104 5 150.5 71t46.5 229q0 54 -2 85h53q3 -50 3 -92q0 -182 -63 -258.5t-188 -82.5v-226h-53z" />
    <glyph glyph-name="uni03A9" unicode="&#x3a9;" horiz-adv-x="724" 
d="M422 0v38q92 52 142 131.5t50 174.5q0 110 -65.5 191t-186.5 81t-186.5 -81t-65.5 -191q0 -95 50 -174.5t142 -131.5v-38h-244v46h72q50 0 90 -4v2q-75 50 -120.5 127.5t-45.5 173.5q0 60 20 116t57 102t97 73.5t134 27.5t134 -27.5t97 -73.5t57 -102t20 -116
q0 -96 -45.5 -173.5t-120.5 -127.5v-2q40 4 90 4h72v-46h-244z" />
    <glyph glyph-name="Iotadieresis" unicode="&#x3aa;" horiz-adv-x="239" 
d="M93 0v659h53v-659h-53zM33 708q-15 0 -25.5 10.5t-10.5 25.5t10.5 25.5t25.5 10.5t25.5 -10.5t10.5 -25.5t-10.5 -25.5t-25.5 -10.5zM205 708q-15 0 -25.5 10.5t-10.5 25.5t10.5 25.5t25.5 10.5t25.5 -10.5t10.5 -25.5t-10.5 -25.5t-25.5 -10.5z" />
    <glyph glyph-name="Upsilondieresis" unicode="&#x3ab;" horiz-adv-x="542" 
d="M247 0v206q0 163 -220 453h63q57 -74 112 -167t71 -158h2q30 128 179 325h61q-107 -147 -161 -252t-54 -205v-202h-53zM188 708q-15 0 -25.5 10.5t-10.5 25.5t10.5 25.5t25.5 10.5t25.5 -10.5t10.5 -25.5t-10.5 -25.5t-25.5 -10.5zM360 708q-15 0 -25.5 10.5t-10.5 25.5
t10.5 25.5t25.5 10.5t25.5 -10.5t10.5 -25.5t-10.5 -25.5t-25.5 -10.5z" />
    <glyph glyph-name="alphatonos" unicode="&#x3ac;" horiz-adv-x="561" 
d="M219 -10q-78 0 -125.5 70.5t-47.5 176.5q0 104 47 176t127 72q62 0 99 -41t60 -118h2q27 95 51 152l48 -17q-47 -112 -78 -219l32 -110q15 -51 27 -69.5t34 -18.5q14 0 26 6l14 -46q-18 -9 -42 -9q-35 0 -55 18t-33 54q-5 15 -25 89h-2q-16 -69 -55 -117.5t-104 -48.5z
M217 38q101 0 137 207q-23 90 -53.5 141t-78.5 51q-53 0 -86.5 -57t-33.5 -143q0 -81 32.5 -140t82.5 -59zM370 698l-107 -167h-48l81 167h74z" />
    <glyph glyph-name="epsilontonos" unicode="&#x3ad;" horiz-adv-x="411" 
d="M357 698l-107 -167h-48l81 167h74zM239 -10q-94 0 -141 40t-47 97q0 48 28 79t76 39v2q-94 27 -94 110q0 58 45.5 93t122.5 35q79 0 135 -27v-50q-56 29 -130 29q-50 0 -83.5 -21.5t-33.5 -60.5q0 -34 31.5 -60t96.5 -26q42 0 59 1v-48q-15 1 -52 1q-67 0 -106 -23.5
t-39 -68.5t38.5 -69t93.5 -24q74 0 139 37l21 -40q-74 -45 -160 -45z" />
    <glyph glyph-name="etatonos" unicode="&#x3ae;" horiz-adv-x="541" 
d="M114 0v361q0 45 -9 60.5t-28 15.5q-15 0 -27 -6l-13 43q24 11 50 11q35 0 54.5 -20.5t22.5 -55.5h2q88 76 167 76q59 0 97.5 -41.5t38.5 -122.5v-558h-53v539q0 134 -91 134q-68 0 -158 -81v-355h-53zM435 698l-107 -167h-48l81 167h74z" />
    <glyph glyph-name="iotatonos" unicode="&#x3af;" horiz-adv-x="228" 
d="M158 -5q-39 0 -61.5 23.5t-22.5 65.5v389h53v-381q0 -49 40 -49q20 0 34 7l14 -43q-26 -12 -57 -12zM231 698l-107 -167h-48l81 167h74z" />
    <glyph glyph-name="upsilondieresistonos" unicode="&#x3b0;" horiz-adv-x="529" 
d="M33 474q24 11 49 11q84 0 84 -119q0 -22 -5 -75t-5 -84q0 -169 120 -169q69 0 104.5 59t35.5 163q0 55 -15 114.5t-38 98.5h59q50 -93 50 -213q0 -122 -50.5 -196t-144.5 -74q-86 0 -131.5 54t-45.5 156q0 29 5.5 81.5t5.5 79.5q0 45 -9 60.5t-28 15.5q-13 0 -27 -6z
M175 568q-15 0 -25.5 10.5t-10.5 25.5t10.5 25.5t25.5 10.5t25.5 -10.5t10.5 -25.5t-10.5 -25.5t-25.5 -10.5zM215 531l50 167h70l-74 -167h-46zM357 568q-15 0 -25.5 10.5t-10.5 25.5t10.5 25.5t25.5 10.5t25.5 -10.5t10.5 -25.5t-10.5 -25.5t-25.5 -10.5z" />
    <glyph glyph-name="alpha" unicode="&#x3b1;" horiz-adv-x="561" 
d="M219 -10q-78 0 -125.5 70.5t-47.5 176.5q0 104 47 176t127 72q62 0 99 -41t60 -118h2q27 95 51 152l48 -17q-47 -112 -78 -219l32 -110q15 -51 27 -69.5t34 -18.5q14 0 26 6l14 -46q-18 -9 -42 -9q-35 0 -55 18t-33 54q-5 15 -25 89h-2q-16 -69 -55 -117.5t-104 -48.5z
M217 38q101 0 137 207q-23 90 -53.5 141t-78.5 51q-53 0 -86.5 -57t-33.5 -143q0 -81 32.5 -140t82.5 -59z" />
    <glyph glyph-name="beta" unicode="&#x3b2;" horiz-adv-x="514" 
d="M87 -237v750q0 97 48.5 146t126.5 49q84 0 128.5 -53.5t44.5 -122.5q0 -68 -30 -109.5t-73 -55.5v-2q56 -9 93.5 -57t37.5 -118q0 -92 -51 -146t-135 -54q-78 0 -135 41h-2v-268h-53zM140 88q53 -51 133 -51q63 0 98.5 38.5t35.5 112.5t-43 114.5t-125 40.5q-16 0 -26 -1
v48q11 -1 30 -1q59 0 97.5 36.5t38.5 103.5q0 58 -32.5 95t-85.5 37q-57 0 -89 -40t-32 -117v-416z" />
    <glyph glyph-name="gamma" unicode="&#x3b3;" horiz-adv-x="508" 
d="M273 78h2q30 130 82.5 236.5t99.5 167.5l41 -33q-71 -97 -123.5 -214.5t-86.5 -291.5v-180h-57q0 104 5 192q-6 227 -51 353.5t-127 126.5q-11 0 -21 -2l-10 47q15 5 34 5q95 0 151 -113.5t61 -293.5z" />
    <glyph glyph-name="delta" unicode="&#x3b4;" horiz-adv-x="508" 
d="M237 439v2q-51 37 -76.5 68.5t-25.5 75.5q0 57 42 90t107 33q90 0 172 -38l-19 -45q-77 35 -148 36q-98 0 -98 -74q0 -32 28 -62.5t67.5 -58.5t79.5 -60t68 -82.5t28 -112.5q0 -94 -58 -157.5t-154 -63.5q-93 0 -148.5 60.5t-55.5 150.5q0 89 49.5 150.5t141.5 87.5z
M407 208q0 65 -32 109.5t-90 87.5q-88 -16 -135.5 -69t-47.5 -134q0 -72 39.5 -118t107.5 -46t113 45.5t45 124.5z" />
    <glyph glyph-name="epsilon" unicode="&#x3b5;" horiz-adv-x="411" 
d="M239 -10q-94 0 -141 40t-47 97q0 48 28 79t76 39v2q-94 27 -94 110q0 58 45.5 93t122.5 35q79 0 135 -27v-50q-56 29 -130 29q-50 0 -83.5 -21.5t-33.5 -60.5q0 -34 31.5 -60t96.5 -26q42 0 59 1v-48q-15 1 -52 1q-67 0 -106 -23.5t-39 -68.5t38.5 -69t93.5 -24
q74 0 139 37l21 -40q-74 -45 -160 -45z" />
    <glyph glyph-name="zeta" unicode="&#x3b6;" horiz-adv-x="424" 
d="M307 -148q42 59 42 90q0 26 -21.5 43t-54 25.5t-70 23t-70 33.5t-54 60t-21.5 99q0 76 23.5 146t62.5 123t81.5 92t88.5 68v3q-105 -20 -208 -21l-15 47q157 0 308 24l3 -38q-132 -78 -210 -193t-78 -251q0 -59 30 -94.5t73 -50.5t85.5 -27.5t72.5 -37.5t30 -68
q0 -49 -54 -123z" />
    <glyph glyph-name="eta" unicode="&#x3b7;" horiz-adv-x="541" 
d="M114 0v361q0 45 -9 60.5t-28 15.5q-15 0 -27 -6l-13 43q24 11 50 11q35 0 54.5 -20.5t22.5 -55.5h2q88 76 167 76q59 0 97.5 -41.5t38.5 -122.5v-558h-53v539q0 134 -91 134q-68 0 -158 -81v-355h-53z" />
    <glyph glyph-name="theta" unicode="&#x3b8;" horiz-adv-x="513" 
d="M256 -10q-200 0 -200 359t201 359q200 0 200 -359t-201 -359zM256 38q74 0 108.5 75t36.5 224h-289q1 -149 35.5 -224t108.5 -75zM112 383h288q-6 277 -143 277t-145 -277z" />
    <glyph glyph-name="iota" unicode="&#x3b9;" horiz-adv-x="228" 
d="M158 -5q-39 0 -61.5 23.5t-22.5 65.5v389h53v-381q0 -49 40 -49q20 0 34 7l14 -43q-26 -12 -57 -12z" />
    <glyph glyph-name="kappa" unicode="&#x3ba;" horiz-adv-x="508" 
d="M140 0h-53v473h53v-244h2q62 82 150 149.5t157 101.5l26 -45q-52 -23 -117.5 -69t-116.5 -97l232 -269h-68l-199 233q-38 -41 -66 -84v-149z" />
    <glyph glyph-name="lambda" unicode="&#x3bb;" horiz-adv-x="443" 
d="M25 0l198 471q-37 114 -65.5 152t-67.5 38q-26 0 -50 -10l-14 43q33 14 66 14q65 0 102.5 -50t81.5 -183l158 -475h-58l-126 399h-2l-165 -399h-58z" />
    <glyph glyph-name="uni03BC" unicode="&#x3bc;" horiz-adv-x="519" 
d="M365 194v279h53v-337q0 -57 9.5 -75t32.5 -18q15 0 29 7l12 -43q-26 -12 -53 -12q-36 0 -53.5 24.5t-18.5 62.5h-2q-46 -92 -143 -92q-69 0 -105 52h-2q3 -37 3 -131v-148h-53v710h53v-321q0 -50 28 -81.5t78 -31.5q52 0 92 39.5t40 115.5z" />
    <glyph glyph-name="nu" unicode="&#x3bd;" horiz-adv-x="440" 
d="M176 -3l-160 476h56l137 -410h2q63 74 96 141.5t33 141.5q0 63 -25 127h58q23 -58 23 -124q0 -163 -184 -352h-36z" />
    <glyph glyph-name="xi" unicode="&#x3be;" horiz-adv-x="424" 
d="M307 -148q42 56 42 90q0 25 -20.5 42t-51.5 25.5t-67 22t-67 29.5t-51.5 49.5t-20.5 79.5q0 66 39.5 105t89.5 51v2q-38 12 -62.5 41.5t-24.5 74.5q0 121 177 190v3q-115 -19 -190 -20l-15 47q163 0 314 24l3 -38q-113 -45 -173 -91.5t-60 -108.5q0 -100 147 -100
q15 0 30 1v-45q-10 1 -25 1q-36 0 -68 -6.5t-61.5 -21t-47 -42t-17.5 -65.5q0 -44 28.5 -71.5t69.5 -41l82 -26.5t69.5 -38.5t28.5 -66.5q0 -49 -54 -123z" />
    <glyph glyph-name="omicron" unicode="&#x3bf;" horiz-adv-x="513" 
d="M256 -10q-94 0 -152 71t-58 176q0 106 58 177t153 71q94 0 152 -71t58 -177q0 -105 -58 -176t-153 -71zM256 38q69 0 112 55.5t43 143.5q0 89 -42.5 144.5t-111.5 55.5t-112 -55.5t-43 -144.5q0 -88 42.5 -143.5t111.5 -55.5z" />
    <glyph glyph-name="pi" unicode="&#x3c0;" horiz-adv-x="552" 
d="M111 0v427h-82v46h495l-18 -46h-83v-335q0 -49 36 -49q9 0 19 3l10 -45q-18 -6 -41 -6q-77 0 -77 82v350h-206v-427h-53z" />
    <glyph glyph-name="rho" unicode="&#x3c1;" horiz-adv-x="506" 
d="M74 -237v486q0 114 48 175t137 61q91 0 146 -65t55 -180q0 -113 -56 -181.5t-153 -68.5q-70 0 -122 41h-2v-268h-53zM127 87q55 -49 123 -49q75 0 114.5 56t39.5 148q0 96 -42 146t-102 50q-68 0 -100.5 -53t-32.5 -138v-160z" />
    <glyph glyph-name="sigmafinal" unicode="&#x3c2;" horiz-adv-x="406" 
d="M264 -146q41 57 41 91q0 27 -19 48.5t-48 34t-62.5 32t-62.5 41t-48 62.5t-19 95q0 102 52.5 164.5t153.5 62.5q62 0 113 -27v-50q-53 30 -113 30q-76 0 -113 -49.5t-37 -128.5q0 -48 19 -83t48 -53t62.5 -36.5t62.5 -32.5t48 -41t19 -63q0 -57 -54 -126z" />
    <glyph glyph-name="sigma" unicode="&#x3c3;" horiz-adv-x="537" 
d="M370 428v-2q77 -82 77 -206q0 -95 -55.5 -162.5t-145.5 -67.5q-93 0 -146.5 65.5t-53.5 167.5q0 122 69 186t174 64h254l-19 -48h-70q-61 0 -84 3zM102 224q0 -85 38 -135.5t106 -50.5q66 0 105.5 52.5t39.5 131.5q0 121 -80 203h-14q-93 0 -144 -53.5t-51 -147.5z" />
    <glyph glyph-name="tau" unicode="&#x3c4;" horiz-adv-x="417" 
d="M277 -10q-50 0 -82 27t-32 80v330h-134v46h378l-18 -46h-173v-325q0 -32 19 -48t48 -16q40 0 70 22l22 -40q-42 -30 -98 -30z" />
    <glyph glyph-name="upsilon" unicode="&#x3c5;" horiz-adv-x="529" 
d="M33 474q24 11 49 11q84 0 84 -119q0 -22 -5 -75t-5 -84q0 -169 120 -169q69 0 104.5 59t35.5 163q0 55 -15 114.5t-38 98.5h59q50 -93 50 -213q0 -122 -50.5 -196t-144.5 -74q-86 0 -131.5 54t-45.5 156q0 29 5.5 81.5t5.5 79.5q0 45 -9 60.5t-28 15.5q-13 0 -27 -6z" />
    <glyph glyph-name="phi" unicode="&#x3c6;" horiz-adv-x="641" 
d="M294 -237v228q-112 8 -180 77.5t-68 168.5t68 169t180 78v224h53v-224q111 -8 179.5 -77.5t68.5 -168.5q0 -100 -68 -169.5t-180 -77.5v-228h-53zM294 38v399q-86 -8 -139 -63t-53 -137t53.5 -137t138.5 -62zM347 38q85 7 138.5 62.5t53.5 137.5t-53.5 137t-138.5 62
v-399z" />
    <glyph glyph-name="chi" unicode="&#x3c7;" horiz-adv-x="430" 
d="M48 -237h-57l188 374q-54 195 -80 244q-27 52 -59 52q-12 0 -22 -3l-12 46q19 7 40 7q56 0 89 -61t81 -230h2l141 281h55l-175 -348q57 -204 83 -256q29 -60 63 -60q11 0 22 3l12 -46q-19 -7 -40 -7q-58 0 -90.5 64t-85.5 248h-2z" />
    <glyph glyph-name="psi" unicode="&#x3c8;" horiz-adv-x="630" 
d="M334 -237h-53v228q-111 7 -170.5 66.5t-59.5 167.5q0 27 4.5 72t4.5 67q0 61 -20 109h56q19 -42 19 -108q0 -22 -4 -67.5t-4 -69.5q0 -180 174 -191v671h53v-670q91 7 142.5 66.5t51.5 162.5q0 128 -60 206h60q56 -81 56 -205q0 -122 -65.5 -196t-184.5 -81v-228z" />
    <glyph glyph-name="omega" unicode="&#x3c9;" horiz-adv-x="722" 
d="M362 126h-2q-14 -64 -52.5 -100t-96.5 -36q-78 0 -121.5 60t-43.5 147t36.5 159.5t91.5 122.5l58 -10q-130 -116 -130 -267q0 -74 29 -119t84 -45q44 0 72.5 34.5t38.5 79t10 97.5q0 62 -4 98h58q-4 -36 -4 -98q0 -53 10 -97.5t38.5 -79t72.5 -34.5q55 0 84 45t29 119
q0 151 -130 267l58 10q55 -50 91.5 -122.5t36.5 -159.5t-43.5 -147t-121.5 -60q-58 0 -96.5 36t-52.5 100z" />
    <glyph glyph-name="iotadieresis" unicode="&#x3ca;" horiz-adv-x="228" 
d="M158 -5q-39 0 -61.5 23.5t-22.5 65.5v389h53v-381q0 -49 40 -49q20 0 34 7l14 -43q-26 -12 -57 -12zM15 568q-15 0 -25.5 10.5t-10.5 25.5t10.5 25.5t25.5 10.5t25.5 -10.5t10.5 -25.5t-10.5 -25.5t-25.5 -10.5zM187 568q-15 0 -25.5 10.5t-10.5 25.5t10.5 25.5
t25.5 10.5t25.5 -10.5t10.5 -25.5t-10.5 -25.5t-25.5 -10.5z" />
    <glyph glyph-name="upsilondieresis" unicode="&#x3cb;" horiz-adv-x="529" 
d="M33 474q24 11 49 11q84 0 84 -119q0 -22 -5 -75t-5 -84q0 -169 120 -169q69 0 104.5 59t35.5 163q0 55 -15 114.5t-38 98.5h59q50 -93 50 -213q0 -122 -50.5 -196t-144.5 -74q-86 0 -131.5 54t-45.5 156q0 29 5.5 81.5t5.5 79.5q0 45 -9 60.5t-28 15.5q-13 0 -27 -6z
M175 568q-15 0 -25.5 10.5t-10.5 25.5t10.5 25.5t25.5 10.5t25.5 -10.5t10.5 -25.5t-10.5 -25.5t-25.5 -10.5zM347 568q-15 0 -25.5 10.5t-10.5 25.5t10.5 25.5t25.5 10.5t25.5 -10.5t10.5 -25.5t-10.5 -25.5t-25.5 -10.5z" />
    <glyph glyph-name="omicrontonos" unicode="&#x3cc;" horiz-adv-x="513" 
d="M256 -10q-94 0 -152 71t-58 176q0 106 58 177t153 71q94 0 152 -71t58 -177q0 -105 -58 -176t-153 -71zM256 38q69 0 112 55.5t43 143.5q0 89 -42.5 144.5t-111.5 55.5t-112 -55.5t-43 -144.5q0 -88 42.5 -143.5t111.5 -55.5zM389 698l-107 -167h-48l81 167h74z" />
    <glyph glyph-name="upsilontonos" unicode="&#x3cd;" horiz-adv-x="529" 
d="M378 698l-107 -167h-48l81 167h74zM33 474q24 11 49 11q84 0 84 -119q0 -22 -5 -75t-5 -84q0 -169 120 -169q69 0 104.5 59t35.5 163q0 55 -15 114.5t-38 98.5h59q50 -93 50 -213q0 -122 -50.5 -196t-144.5 -74q-86 0 -131.5 54t-45.5 156q0 29 5.5 81.5t5.5 79.5
q0 45 -9 60.5t-28 15.5q-13 0 -27 -6z" />
    <glyph glyph-name="omegatonos" unicode="&#x3ce;" horiz-adv-x="722" 
d="M362 126h-2q-14 -64 -52.5 -100t-96.5 -36q-78 0 -121.5 60t-43.5 147t36.5 159.5t91.5 122.5l58 -10q-130 -116 -130 -267q0 -74 29 -119t84 -45q44 0 72.5 34.5t38.5 79t10 97.5q0 62 -4 98h58q-4 -36 -4 -98q0 -53 10 -97.5t38.5 -79t72.5 -34.5q55 0 84 45t29 119
q0 151 -130 267l58 10q55 -50 91.5 -122.5t36.5 -159.5t-43.5 -147t-121.5 -60q-58 0 -96.5 36t-52.5 100zM490 698l-107 -167h-48l81 167h74z" />
    <glyph glyph-name="uni0400" unicode="&#x400;" horiz-adv-x="461" 
d="M93 0v659h298l-20 -46h-225v-252h220v-46h-220v-269h253v-46h-306zM231 696l-81 147h67l58 -147h-44z" />
    <glyph glyph-name="afii10023" unicode="&#x401;" horiz-adv-x="461" 
d="M93 0v659h298l-20 -46h-225v-252h220v-46h-220v-269h253v-46h-306zM153 708q-15 0 -25.5 10.5t-10.5 25.5t10.5 25.5t25.5 10.5t25.5 -10.5t10.5 -25.5t-10.5 -25.5t-25.5 -10.5zM325 708q-15 0 -25.5 10.5t-10.5 25.5t10.5 25.5t25.5 10.5t25.5 -10.5t10.5 -25.5
t-10.5 -25.5t-25.5 -10.5z" />
    <glyph glyph-name="afii10051" unicode="&#x402;" horiz-adv-x="685" 
d="M215 0v613h-189v46h473l-20 -46h-211v-241q43 5 92 5q137 0 199.5 -50t62.5 -150q0 -79 -49 -130.5t-131 -51.5q-37 0 -70 12l15 45q28 -10 57 -10q54 0 88 37t34 102q0 83 -50.5 115.5t-158.5 32.5q-45 0 -89 -6v-323h-53z" />
    <glyph glyph-name="afii10052" unicode="&#x403;" horiz-adv-x="411" 
d="M93 0v659h308l-20 -46h-235v-613h-53zM212 696l59 147h63l-80 -147h-42z" />
    <glyph glyph-name="afii10053" unicode="&#x404;" horiz-adv-x="585" 
d="M358 -10q-141 0 -220 90.5t-79 240.5t85 246.5t226 96.5q104 0 162 -36v-52q-75 40 -162 40q-110 0 -178.5 -70t-75.5 -185h351v-46h-352q1 -127 65.5 -202t181.5 -75q83 0 158 39l15 -44q-82 -43 -177 -43z" />
    <glyph glyph-name="afii10054" unicode="&#x405;" horiz-adv-x="481" 
d="M59 37l24 43q64 -42 141 -42q63 0 103 29t40 90q0 47 -30 82t-73.5 58.5l-86.5 48t-73 64t-30 93.5q0 70 50 115.5t136 45.5q77 0 135 -29v-51q-57 33 -134 33q-55 0 -93.5 -26.5t-38.5 -81.5q0 -37 21.5 -67.5t54.5 -49.5l70.5 -42l70.5 -45t54.5 -60t21.5 -85
q0 -80 -54.5 -125t-146.5 -45q-90 0 -162 47z" />
    <glyph glyph-name="afii10055" unicode="&#x406;" horiz-adv-x="239" 
d="M93 0v659h53v-659h-53z" />
    <glyph glyph-name="afii10056" unicode="&#x407;" horiz-adv-x="239" 
d="M93 0v659h53v-659h-53zM33 708q-15 0 -25.5 10.5t-10.5 25.5t10.5 25.5t25.5 10.5t25.5 -10.5t10.5 -25.5t-10.5 -25.5t-25.5 -10.5zM205 708q-15 0 -25.5 10.5t-10.5 25.5t10.5 25.5t25.5 10.5t25.5 -10.5t10.5 -25.5t-10.5 -25.5t-25.5 -10.5z" />
    <glyph glyph-name="afii10057" unicode="&#x408;" horiz-adv-x="278" 
d="M-20 -174l9 47q19 -6 46 -6q55 0 76 29t21 87v676h53v-691q0 -149 -153 -149q-28 0 -52 7z" />
    <glyph glyph-name="afii10058" unicode="&#x409;" horiz-adv-x="866" 
d="M497 46h73q181 0 181 144q0 90 -68 123q-42 21 -130 21h-56v-288zM32 -6q-14 0 -22 2v51q11 -2 21 -2q53 0 84 57q43 81 77.5 264.5t40.5 292.5h264v-279h52q106 0 163 -27q95 -46 95 -160q0 -193 -240 -193h-123v613h-162q-6 -103 -40 -277t-79 -257q-46 -85 -131 -85z
" />
    <glyph glyph-name="afii10059" unicode="&#x40a;" horiz-adv-x="933" 
d="M93 0v659h53v-298h360v298h53v-279h57q106 0 163 -27q95 -46 95 -160q0 -193 -240 -193h-128v315h-360v-315h-53zM559 46h78q181 0 181 144q0 90 -68 123q-42 21 -130 21h-61v-288z" />
    <glyph glyph-name="afii10060" unicode="&#x40b;" horiz-adv-x="707" 
d="M215 0v613h-189v46h473l-20 -46h-211v-236q67 9 113 9q92 0 150.5 -28t78.5 -101q9 -33 9 -93v-164h-53v154q0 56 -9 90q-15 55 -59 74.5t-116 19.5q-47 0 -114 -10v-328h-53z" />
    <glyph glyph-name="afii10061" unicode="&#x40c;" horiz-adv-x="549" 
d="M252 696l59 147h63l-80 -147h-42zM93 0v659h53v-307h70q32 0 55.5 15t39 43.5t25 55.5t22 66.5t21.5 61.5q30 70 94 70q19 0 33 -5v-51q-14 5 -28 5q-33 0 -51 -37q-9 -19 -27 -78.5t-41 -102t-59 -61.5v-2q25 -8 45.5 -35t49.5 -80l120 -217h-60l-120 218
q-24 43 -46 65.5t-38 22.5h-105v-306h-53z" />
    <glyph glyph-name="uni040D" unicode="&#x40d;" horiz-adv-x="709" 
d="M93 0v659h53v-449q0 -46 -2 -118h2q44 67 105 147l317 420h48v-659h-53v457q0 46 2 118h-2q-47 -70 -100 -139l-330 -436h-40zM334 696l-81 147h67l58 -147h-44z" />
    <glyph glyph-name="afii10062" unicode="&#x40e;" horiz-adv-x="547" 
d="M126 -6q-18 0 -32 3v50q17 -3 30 -3q44 0 72.5 32.5t61.5 107.5l-228 475h60l194 -411h2l181 411h57l-228 -514q-35 -80 -75.5 -115.5t-94.5 -35.5zM273 708q-65 0 -101 34t-35 90h48q0 -36 21.5 -58.5t66.5 -22.5t66.5 22.5t21.5 58.5h48q1 -55 -36 -89.5t-100 -34.5z
" />
    <glyph glyph-name="afii10145" unicode="&#x40f;" horiz-adv-x="647" 
d="M93 0v659h53v-613h355v613h53v-659h-204v-180h-53v180h-204z" />
    <glyph glyph-name="afii10017" unicode="&#x410;" horiz-adv-x="576" 
d="M25 0l247 661h32l247 -661h-58l-66 182h-278l-66 -182h-58zM167 228h242l-78 216l-42 119h-2q-2 -6 -42 -119z" />
    <glyph glyph-name="afii10018" unicode="&#x411;" horiz-adv-x="528" 
d="M146 46h86q181 0 181 144q0 91 -67 124q-40 20 -131 20h-69v-288zM93 0v659h347l-20 -46h-274v-233h65q109 0 164 -26q94 -46 94 -161q0 -193 -240 -193h-136z" />
    <glyph glyph-name="afii10019" unicode="&#x412;" horiz-adv-x="528" 
d="M93 0v659h135q99 0 150 -47t51 -120q0 -53 -24 -91.5t-66 -54.5v-2q56 -11 93 -54.5t37 -106.5q0 -86 -57.5 -134.5t-163.5 -48.5h-155zM146 46h107q160 0 160 134q0 61 -42 98t-110 37h-115v-269zM146 361h79q73 0 111 33.5t38 95.5q0 57 -35 90t-109 33h-84v-252z" />
    <glyph glyph-name="afii10020" unicode="&#x413;" horiz-adv-x="411" 
d="M93 0v659h308l-20 -46h-235v-613h-53z" />
    <glyph glyph-name="afii10021" unicode="&#x414;" horiz-adv-x="610" 
d="M14 -180v226h38q74 101 130.5 263t82.5 350h244v-613h71v-226h-53v180h-460v-180h-53zM456 46v567h-146q-49 -347 -192 -565v-2h338z" />
    <glyph glyph-name="afii10022" unicode="&#x415;" horiz-adv-x="461" 
d="M93 0v659h298l-20 -46h-225v-252h220v-46h-220v-269h253v-46h-306z" />
    <glyph glyph-name="afii10024" unicode="&#x416;" horiz-adv-x="849" 
d="M34 0l115 217q27 51 48.5 79t46.5 36v2q-36 19 -58 62t-38 101.5t-26 78.5q-18 37 -51 37q-14 0 -28 -5v51q14 5 33 5q64 0 94 -70q10 -23 21 -61.5t20.5 -66.5t24 -56t37.5 -43t55 -15h70v307h53v-307h70q32 0 55 15t37.5 43t24 56t20.5 66.5t21 61.5q30 70 94 70
q19 0 33 -5v-51q-14 5 -28 5q-33 0 -51 -37q-10 -20 -26 -78.5t-38 -101.5t-58 -62v-2q25 -8 46.5 -36t48.5 -79l115 -217h-61l-115 218q-23 43 -45.5 65.5t-38.5 22.5h-104v-306h-53v306h-104q-16 0 -38.5 -22.5t-45.5 -65.5l-115 -218h-61z" />
    <glyph glyph-name="afii10025" unicode="&#x417;" horiz-adv-x="498" 
d="M209 -10q-81 0 -141 31v51q64 -34 143 -34q71 0 119 36t48 109q0 62 -42 96t-141 34q-34 0 -46 -1v50q12 -1 36 -1q95 0 135.5 36.5t40.5 93.5q0 58 -35.5 91.5t-104.5 33.5t-134 -33l-18 43q66 38 153 38q92 0 143 -48t51 -122q0 -116 -114 -153v-2q61 -11 96.5 -51
t35.5 -104q0 -85 -56.5 -139.5t-168.5 -54.5z" />
    <glyph glyph-name="afii10026" unicode="&#x418;" horiz-adv-x="709" 
d="M93 0v659h53v-449q0 -46 -2 -118h2q44 67 105 147l317 420h48v-659h-53v457q0 46 2 118h-2q-47 -70 -100 -139l-330 -436h-40z" />
    <glyph glyph-name="afii10027" unicode="&#x419;" horiz-adv-x="709" 
d="M93 0v659h53v-449q0 -46 -2 -118h2q44 67 105 147l317 420h48v-659h-53v457q0 46 2 118h-2q-47 -70 -100 -139l-330 -436h-40zM354 708q-65 0 -101 34t-35 90h48q0 -36 21.5 -58.5t66.5 -22.5t66.5 22.5t21.5 58.5h48q1 -55 -36 -89.5t-100 -34.5z" />
    <glyph glyph-name="afii10028" unicode="&#x41a;" horiz-adv-x="549" 
d="M93 0v659h53v-307h70q32 0 55.5 15t39 43.5t25 55.5t22 66.5t21.5 61.5q30 70 94 70q19 0 33 -5v-51q-14 5 -28 5q-33 0 -51 -37q-9 -19 -27 -78.5t-41 -102t-59 -61.5v-2q25 -8 45.5 -35t49.5 -80l120 -217h-60l-120 218q-24 43 -46 65.5t-38 22.5h-105v-306h-53z" />
    <glyph glyph-name="afii10029" unicode="&#x41b;" horiz-adv-x="601" 
d="M32 -6q-14 0 -22 2v51q11 -2 21 -2q53 0 84 57q43 81 77.5 264.5t40.5 292.5h275v-659h-53v613h-173q-6 -103 -40 -277t-79 -257q-46 -85 -131 -85z" />
    <glyph glyph-name="afii10030" unicode="&#x41c;" horiz-adv-x="786" 
d="M93 0v659h51l189 -289q48 -73 64 -100h2l64 103l179 286h51v-659h-53v446q0 83 2 122h-2q-17 -32 -48 -82l-178 -286h-31l-191 290q-34 51 -46 76h-2q2 -34 2 -120v-446h-53z" />
    <glyph glyph-name="afii10031" unicode="&#x41d;" horiz-adv-x="673" 
d="M93 0v659h53v-298h381v298h53v-659h-53v315h-381v-315h-53z" />
    <glyph glyph-name="afii10032" unicode="&#x41e;" horiz-adv-x="750" 
d="M375 -10q-137 0 -226.5 92t-89.5 244q0 149 89.5 243.5t226.5 94.5q138 0 227 -95.5t89 -242.5q0 -152 -90.5 -244t-225.5 -92zM375 38q118 0 189 80t71 208q0 124 -69 207t-191 83q-117 0 -188.5 -81t-71.5 -209t71 -208t189 -80z" />
    <glyph glyph-name="afii10033" unicode="&#x41f;" horiz-adv-x="647" 
d="M93 0v659h461v-659h-53v613h-355v-613h-53z" />
    <glyph glyph-name="afii10034" unicode="&#x420;" horiz-adv-x="477" 
d="M93 0v659h108q90 0 141 -31q90 -55 90 -174q0 -126 -103 -178q-52 -26 -133 -26h-50v-250h-53zM146 296h55q63 0 104 22q72 38 72 136q0 94 -67 135q-40 24 -107 24h-57v-317z" />
    <glyph glyph-name="afii10035" unicode="&#x421;" horiz-adv-x="578" 
d="M533 77l15 -44q-82 -43 -173 -43q-140 0 -223 92t-83 239q0 146 89.5 244.5t228.5 98.5q100 0 158 -36v-52q-75 40 -158 40q-114 0 -188 -83.5t-74 -206.5q0 -129 69 -208.5t185 -79.5q79 0 154 39z" />
    <glyph glyph-name="afii10036" unicode="&#x422;" horiz-adv-x="486" 
d="M215 0v613h-189v46h452l-20 -46h-190v-613h-53z" />
    <glyph glyph-name="afii10037" unicode="&#x423;" horiz-adv-x="547" 
d="M126 -6q-18 0 -32 3v50q17 -3 30 -3q44 0 72.5 32.5t61.5 107.5l-228 475h60l194 -411h2l181 411h57l-228 -514q-35 -80 -75.5 -115.5t-94.5 -35.5z" />
    <glyph glyph-name="afii10038" unicode="&#x424;" horiz-adv-x="712" 
d="M331 -18v91q-128 6 -200 70.5t-72 182.5q0 120 73 188t199 74v86h53v-86q126 -7 197.5 -75.5t71.5 -186.5q0 -119 -71.5 -183t-197.5 -70v-91h-53zM331 121v420q-103 -5 -159.5 -58.5t-56.5 -156.5q0 -197 216 -205zM384 121q213 10 213 205q0 99 -53.5 154t-159.5 60
v-419z" />
    <glyph glyph-name="afii10039" unicode="&#x425;" horiz-adv-x="577" 
d="M29 0l228 332l-216 327h65l187 -285l191 285h64l-222 -326l221 -333h-63l-193 291l-199 -291h-63z" />
    <glyph glyph-name="afii10040" unicode="&#x426;" horiz-adv-x="650" 
d="M93 0v659h53v-613h350v613h53v-613h71v-226h-53v180h-474z" />
    <glyph glyph-name="afii10041" unicode="&#x427;" horiz-adv-x="571" 
d="M425 0v282q-67 -9 -113 -9q-92 0 -150.5 28t-78.5 101q-9 33 -9 93v164h53v-154q0 -55 9 -90q15 -55 59 -74.5t116 -19.5q47 0 114 10v328h53v-659h-53z" />
    <glyph glyph-name="afii10042" unicode="&#x428;" horiz-adv-x="849" 
d="M93 0v659h53v-613h252v613h53v-613h252v613h53v-659h-663z" />
    <glyph glyph-name="afii10043" unicode="&#x429;" horiz-adv-x="847" 
d="M93 0v659h53v-613h247v613h53v-613h247v613h53v-613h71v-226h-53v180h-671z" />
    <glyph glyph-name="afii10044" unicode="&#x42a;" horiz-adv-x="648" 
d="M221 0v613h-197l-20 46h270v-279h57q106 0 163 -27q95 -46 95 -160q0 -193 -240 -193h-128zM274 46h78q181 0 181 144q0 90 -68 123q-42 21 -130 21h-61v-288z" />
    <glyph glyph-name="afii10045" unicode="&#x42b;" horiz-adv-x="684" 
d="M93 0v659h53v-279h51q106 0 163 -27q95 -46 95 -160q0 -193 -240 -193h-122zM146 46h72q181 0 181 144q0 90 -68 123q-42 21 -130 21h-55v-288zM538 0v659h53v-659h-53z" />
    <glyph glyph-name="afii10046" unicode="&#x42c;" horiz-adv-x="528" 
d="M146 46h86q181 0 181 144q0 91 -67 124q-40 20 -131 20h-69v-288zM93 0v659h53v-279h65q109 0 164 -26q94 -46 94 -161q0 -193 -240 -193h-136z" />
    <glyph glyph-name="afii10047" unicode="&#x42d;" horiz-adv-x="574" 
d="M214 -10q-96 0 -160 31v51q68 -34 156 -34q116 0 180.5 71.5t67.5 205.5h-321v46h321q-5 111 -69.5 183t-174.5 72q-78 0 -146 -32l-18 43q74 37 165 37q143 0 221.5 -95.5t78.5 -237.5q0 -155 -79.5 -248t-221.5 -93z" />
    <glyph glyph-name="afii10048" unicode="&#x42e;" horiz-adv-x="948" 
d="M93 0v659h53v-298h152q11 133 93 218t202 85q129 0 212.5 -96.5t83.5 -241.5q0 -150 -85 -243t-211 -93t-209.5 90t-86.5 235h-151v-315h-53zM593 38q109 0 174.5 81.5t65.5 206.5q0 122 -63 206t-177 84q-109 0 -174.5 -82t-65.5 -208q0 -125 65.5 -206.5t174.5 -81.5z
" />
    <glyph glyph-name="afii10049" unicode="&#x42f;" horiz-adv-x="537" 
d="M34 0l106 201q44 84 76 100v2q-61 17 -92.5 60.5t-31.5 106.5q0 91 57.5 140t149.5 49h145v-659h-53v290h-106q-16 0 -38.5 -22.5t-45.5 -65.5l-106 -202h-61zM147 469q0 -66 41.5 -99.5t108.5 -33.5h94v277h-85q-73 0 -116 -36.5t-43 -107.5z" />
    <glyph glyph-name="afii10065" unicode="&#x430;" horiz-adv-x="456" 
d="M348 0l-12 57q-67 -67 -145 -67q-65 0 -106 38.5t-41 105.5q0 91 80 128q38 18 116 21l95 3v36q0 57 -29.5 86t-77.5 29q-65 0 -133 -41l-23 41q73 48 158 48q70 0 114 -38t44 -118v-150q0 -141 10 -179h-50zM335 240l-92 -3q-61 -1 -97 -20q-46 -24 -46 -81
q0 -43 25.5 -70.5t69.5 -27.5q71 0 140 74v128z" />
    <glyph glyph-name="afii10066" unicode="&#x431;" horiz-adv-x="488" 
d="M244 -10q-93 0 -145.5 74.5t-52.5 233.5q0 158 49 242q10 18 21 31t28.5 26t30 20.5t42 20t47.5 19.5l62.5 23.5l72.5 27.5v-58l-56 -20.5l-49.5 -18l-38.5 -15t-34 -14.5t-25.5 -13.5t-23 -16t-16 -17t-14.5 -20.5q-25 -46 -33 -114h2q71 47 144 47q97 0 142 -61.5
t45 -166.5q0 -103 -51.5 -166.5t-146.5 -63.5zM245 38q72 0 106.5 49t34.5 133q0 180 -134 180q-68 0 -148 -53q-1 -17 -1 -51q0 -258 142 -258z" />
    <glyph glyph-name="afii10067" unicode="&#x432;" horiz-adv-x="455" 
d="M74 0v473h153q88 0 128.5 -37t40.5 -90q0 -78 -78 -103v-2q39 -10 64.5 -38t25.5 -71q0 -57 -40 -94.5t-129 -37.5h-165zM126 45h113q62 0 88 22t26 65q0 41 -27 63.5t-75 22.5h-125v-173zM126 263h113q102 0 102 82q0 83 -114 83h-101v-165z" />
    <glyph glyph-name="afii10068" unicode="&#x433;" horiz-adv-x="374" 
d="M74 0v473h290l-19 -48h-218v-425h-53z" />
    <glyph glyph-name="afii10069" unicode="&#x434;" horiz-adv-x="510" 
d="M20 -160v206h26q55 74 88.5 170t56.5 257h218v-427h67v-206h-53v160h-350v-160h-53zM356 46v381h-122q-20 -137 -50 -222.5t-76 -156.5v-2h248z" />
    <glyph glyph-name="afii10070" unicode="&#x435;" horiz-adv-x="458" 
d="M411 232h-309q1 -84 45 -139t123 -55q58 0 115 32l18 -39q-61 -41 -143 -41q-101 0 -157.5 72t-56.5 183q0 107 52.5 173.5t133.5 66.5q85 0 132 -64t47 -175v-14zM103 278h250q-2 66 -33 113t-87 47q-57 0 -92.5 -45.5t-37.5 -114.5z" />
    <glyph glyph-name="afii10072" unicode="&#x436;" horiz-adv-x="661" 
d="M30 0l83 174q15 33 27.5 48t31.5 20v2q-25 13 -39 46t-23.5 72.5t-19.5 54.5q-12 19 -35 19q-10 0 -21 -4v49q11 4 28 4q49 0 72 -43q12 -22 24 -72t28.5 -79t48.5 -29h70v211h51v-211h70q32 0 48.5 29t28.5 79t24 72q23 43 72 43q17 0 28 -4v-49q-11 4 -21 4
q-23 0 -35 -19q-10 -15 -19.5 -54.5t-23.5 -72.5t-39 -46v-2q19 -5 31.5 -20t27.5 -48l83 -174h-55l-76 163q-26 55 -53 55h-91v-218h-51v218h-91q-27 0 -53 -55l-76 -163h-55z" />
    <glyph glyph-name="afii10073" unicode="&#x437;" horiz-adv-x="406" 
d="M182 -10q-65 0 -125 31v49q63 -33 124 -33q56 0 86.5 24.5t30.5 69.5q0 92 -142 92q-21 0 -32 -1v48q13 -1 42 -1q66 0 94 25.5t28 61.5q0 40 -28.5 61t-77.5 21q-51 0 -107 -29l-17 43q57 33 128 33q70 0 114 -34.5t44 -89.5q0 -41 -26 -71t-70 -42v-3q51 -9 78.5 -39.5
t27.5 -78.5q0 -56 -44.5 -96.5t-127.5 -40.5z" />
    <glyph glyph-name="afii10074" unicode="&#x438;" horiz-adv-x="520" 
d="M74 0v473h53v-297q0 -27 -2 -93h2q18 29 68 100l202 290h49v-473h-53v297q0 60 2 93h-2q-27 -43 -67 -100l-204 -290h-48z" />
    <glyph glyph-name="afii10075" unicode="&#x439;" horiz-adv-x="520" 
d="M74 0v473h53v-297q0 -27 -2 -93h2q18 29 68 100l202 290h49v-473h-53v297q0 60 2 93h-2q-27 -43 -67 -100l-204 -290h-48zM266 546q-65 0 -101 36.5t-35 92.5h48q0 -37 21.5 -61.5t66.5 -24.5t66.5 24.5t21.5 61.5h48q1 -56 -36 -92.5t-100 -36.5z" />
    <glyph glyph-name="afii10076" unicode="&#x43a;" horiz-adv-x="438" 
d="M74 0v473h53v-210h69q32 0 49.5 28.5t30.5 78t23 68.5q26 47 76 47q16 0 27 -4v-48q-11 4 -20 4q-23 0 -35 -20q-10 -15 -20.5 -54.5t-25.5 -72.5t-40 -46v-2q19 -5 30.5 -19.5t28.5 -48.5l88 -174h-55l-81 163q-28 55 -53 55h-92v-218h-53z" />
    <glyph glyph-name="afii10077" unicode="&#x43b;" horiz-adv-x="485" 
d="M27 -8q-10 0 -17 1v50q5 -1 13 -1q32 0 59 42q31 50 61 158t44 231h224v-473h-53v427h-125q-15 -121 -47 -227t-66 -155q-36 -53 -93 -53z" />
    <glyph glyph-name="afii10078" unicode="&#x43c;" horiz-adv-x="580" 
d="M74 0v473h56l113 -191q33 -57 46 -85h2l48 86l111 190h56v-473h-53v295q0 67 3 89h-3l-48 -84l-101 -168h-29l-101 169q-28 47 -47 83h-2q2 -23 2 -99v-285h-53z" />
    <glyph glyph-name="afii10079" unicode="&#x43d;" horiz-adv-x="502" 
d="M74 0v473h53v-196h248v196h53v-473h-53v231h-248v-231h-53z" />
    <glyph glyph-name="afii10080" unicode="&#x43e;" horiz-adv-x="513" 
d="M256 -10q-94 0 -152 71t-58 176q0 106 58 177t153 71q94 0 152 -71t58 -177q0 -105 -58 -176t-153 -71zM256 38q69 0 112 55.5t43 143.5q0 89 -42.5 144.5t-111.5 55.5t-112 -55.5t-43 -144.5q0 -88 42.5 -143.5t111.5 -55.5z" />
    <glyph glyph-name="afii10081" unicode="&#x43f;" horiz-adv-x="497" 
d="M74 0v473h349v-473h-53v425h-243v-425h-53z" />
    <glyph glyph-name="afii10082" unicode="&#x440;" horiz-adv-x="497" 
d="M74 -237v694q72 28 145 28q108 0 170 -64t62 -181q0 -115 -67 -182.5t-168 -67.5q-48 0 -89 19v-246h-53zM127 61q43 -23 89 -23q85 0 132 55t47 149q0 97 -49.5 146.5t-127.5 49.5q-46 0 -91 -15v-362z" />
    <glyph glyph-name="afii10083" unicode="&#x441;" horiz-adv-x="423" 
d="M264 -10q-102 0 -160 69t-58 172q0 107 61 180.5t168 73.5q62 0 113 -27v-50q-53 30 -113 30q-78 0 -125.5 -56t-47.5 -144q0 -94 45 -147t122 -53q58 0 116 33l18 -40q-64 -41 -139 -41z" />
    <glyph glyph-name="afii10084" unicode="&#x442;" horiz-adv-x="418" 
d="M180 0v425h-156v48h384l-19 -48h-156v-425h-53z" />
    <glyph glyph-name="afii10085" unicode="&#x443;" horiz-adv-x="451" 
d="M435 473l-175 -519q-38 -113 -86 -152t-112 -39q-42 0 -74 13l12 47q29 -12 63 -12q106 0 158 183l-206 479h59l170 -404h2l132 404h57z" />
    <glyph glyph-name="afii10086" unicode="&#x444;" horiz-adv-x="631" 
d="M289 -237v228q-116 7 -179.5 75.5t-63.5 170.5t63 170.5t180 76.5v201h53v-201q116 -8 179.5 -76.5t63.5 -169.5q0 -102 -63.5 -171t-179.5 -76v-228h-53zM289 38v399q-89 -8 -138.5 -62t-49.5 -138t50 -138t138 -61zM342 38q88 7 138 61.5t50 138.5q0 83 -50 137.5
t-138 61.5v-399z" />
    <glyph glyph-name="afii10087" unicode="&#x445;" horiz-adv-x="430" 
d="M16 0l169 237l-161 236h64l131 -196l135 196h60l-164 -234l162 -239h-62l-135 199l-137 -199h-62z" />
    <glyph glyph-name="afii10088" unicode="&#x446;" horiz-adv-x="511" 
d="M74 0v473h53v-427h230v427h53v-427h67v-206h-53v160h-350z" />
    <glyph glyph-name="afii10089" unicode="&#x447;" horiz-adv-x="462" 
d="M335 0v203q-62 -12 -109 -12q-83 0 -124.5 34.5t-41.5 97.5v150h53v-141q0 -47 26 -71t89 -24q44 0 107 11v225h53v-473h-53z" />
    <glyph glyph-name="afii10090" unicode="&#x448;" horiz-adv-x="664" 
d="M74 0v473h52v-427h180v427h52v-427h180v427h52v-473h-516z" />
    <glyph glyph-name="afii10091" unicode="&#x449;" horiz-adv-x="683" 
d="M74 0v473h52v-427h176v427h52v-427h176v427h52v-427h67v-206h-53v160h-522z" />
    <glyph glyph-name="afii10092" unicode="&#x44a;" horiz-adv-x="574" 
d="M208 0v427h-180l-18 46h251v-193q36 3 63 3q200 0 200 -140q0 -61 -42.5 -102t-146.5 -41h-127zM261 46h72q75 0 105 25t30 70q0 47 -32.5 70.5t-109.5 23.5q-29 0 -65 -3v-186z" />
    <glyph glyph-name="afii10093" unicode="&#x44b;" horiz-adv-x="578" 
d="M74 0v473h53v-193q36 3 60 3q103 0 149 -38.5t46 -101.5q0 -61 -42.5 -102t-146.5 -41h-119zM127 46h64q76 0 105.5 25t29.5 70q0 47 -31 70.5t-106 23.5q-26 0 -62 -3v-186zM451 0v473h53v-473h-53z" />
    <glyph glyph-name="afii10094" unicode="&#x44c;" horiz-adv-x="445" 
d="M74 0v473h53v-193q36 3 62 3q206 0 206 -141q0 -142 -191 -142h-130zM127 46h75q78 0 107.5 25t29.5 70q0 48 -32.5 71t-114.5 23q-29 0 -65 -3v-186z" />
    <glyph glyph-name="afii10095" unicode="&#x44d;" horiz-adv-x="441" 
d="M178 -10q-62 0 -122 31v49q62 -33 122 -33q76 0 118 48t44 136h-229v46h228q-5 77 -47.5 124t-116.5 47q-57 0 -104 -27l-17 44q55 30 123 30q107 0 162.5 -71.5t55.5 -174.5q0 -111 -54 -180t-163 -69z" />
    <glyph glyph-name="afii10096" unicode="&#x44e;" horiz-adv-x="686" 
d="M74 0v473h53v-206h109q8 96 61 157t141 61q93 0 147.5 -70.5t54.5 -177.5t-54.5 -177t-148.5 -70q-90 0 -143.5 65t-58.5 166h-108v-221h-53zM437 38q69 0 108 55t39 144q0 90 -39 145t-107 55q-69 0 -108 -55t-39 -145q0 -89 39 -144t107 -55z" />
    <glyph glyph-name="afii10097" unicode="&#x44f;" horiz-adv-x="466" 
d="M46 0l69 145q24 52 48 63v2q-40 13 -61.5 46t-21.5 76q0 60 40 100.5t119 40.5h153v-473h-53v195h-116q-30 0 -56 -55l-65 -140h-56zM136 331q0 -41 25 -65.5t70 -24.5h108v186h-96q-54 0 -80.5 -25.5t-26.5 -70.5z" />
    <glyph glyph-name="uni0450" unicode="&#x450;" horiz-adv-x="458" 
d="M411 232h-309q1 -84 45 -139t123 -55q58 0 115 32l18 -39q-61 -41 -143 -41q-101 0 -157.5 72t-56.5 183q0 107 52.5 173.5t133.5 66.5q85 0 132 -64t47 -175v-14zM103 278h250q-2 66 -33 113t-87 47q-57 0 -92.5 -45.5t-37.5 -114.5zM227 531l-81 147h67l58 -147h-44z
" />
    <glyph glyph-name="afii10071" unicode="&#x451;" horiz-adv-x="458" 
d="M411 232h-309q1 -84 45 -139t123 -55q58 0 115 32l18 -39q-61 -41 -143 -41q-101 0 -157.5 72t-56.5 183q0 107 52.5 173.5t133.5 66.5q85 0 132 -64t47 -175v-14zM103 278h250q-2 66 -33 113t-87 47q-57 0 -92.5 -45.5t-37.5 -114.5zM149 568q-15 0 -25.5 10.5
t-10.5 25.5t10.5 25.5t25.5 10.5t25.5 -10.5t10.5 -25.5t-10.5 -25.5t-25.5 -10.5zM321 568q-15 0 -25.5 10.5t-10.5 25.5t10.5 25.5t25.5 10.5t25.5 -10.5t10.5 -25.5t-10.5 -25.5t-25.5 -10.5z" />
    <glyph glyph-name="afii10099" unicode="&#x452;" horiz-adv-x="497" 
d="M78 0v566h-66v46h66v96h53v-96h149v-46h-149v-172q73 75 155 75q72 0 118.5 -61.5t46.5 -193.5q0 -257 -192 -354l-24 42q85 45 123 121.5t38 189.5q0 98 -29 152.5t-86 54.5q-72 0 -150 -81v-339h-53z" />
    <glyph glyph-name="afii10100" unicode="&#x453;" horiz-adv-x="374" 
d="M197 531l59 147h63l-80 -147h-42zM74 0v473h290l-19 -48h-218v-425h-53z" />
    <glyph glyph-name="afii10101" unicode="&#x454;" horiz-adv-x="442" 
d="M260 -10q-105 0 -159.5 68t-54.5 173q0 109 58 181.5t167 72.5q64 0 115 -27v-50q-53 30 -115 30q-74 0 -119 -47t-51 -124h229v-46h-229q1 -88 44 -135.5t120 -47.5q60 0 118 33l19 -40q-64 -41 -142 -41z" />
    <glyph glyph-name="afii10102" unicode="&#x455;" horiz-adv-x="369" 
d="M32 28l18 43q57 -33 114 -33q47 0 78 21.5t31 65.5q0 31 -23 52.5t-55.5 35t-64.5 29.5t-55 45.5t-23 72.5q0 53 39.5 89t111.5 36q56 0 109 -22v-49q-54 24 -106 24q-42 0 -71.5 -17.5t-29.5 -57.5q0 -33 23 -54.5t55.5 -35.5t65 -29.5t55.5 -45t23 -73.5
q0 -65 -46.5 -100t-120.5 -35q-70 0 -128 38z" />
    <glyph glyph-name="afii10103" unicode="&#x456;" horiz-adv-x="219" 
d="M83 0v473h53v-473h-53zM109 593q-17 0 -27.5 11.5t-10.5 28.5t10.5 28.5t27.5 11.5q18 0 28.5 -11t10.5 -29t-11 -29t-28 -11z" />
    <glyph glyph-name="afii10104" unicode="&#x457;" horiz-adv-x="219" 
d="M25 568q-15 0 -25.5 10.5t-10.5 25.5t10.5 25.5t25.5 10.5t25.5 -10.5t10.5 -25.5t-10.5 -25.5t-25.5 -10.5zM197 568q-15 0 -25.5 10.5t-10.5 25.5t10.5 25.5t25.5 10.5t25.5 -10.5t10.5 -25.5t-10.5 -25.5t-25.5 -10.5zM83 0v473h53v-473h-53z" />
    <glyph glyph-name="afii10105" unicode="&#x458;" horiz-adv-x="229" 
d="M-43 -225l12 46q24 -10 46 -10q41 0 59.5 26t18.5 84v552h53v-564q0 -75 -36 -110.5t-90 -35.5q-38 0 -63 12zM119 593q-17 0 -27.5 11.5t-10.5 28.5t10.5 28.5t27.5 11.5q18 0 28.5 -11t10.5 -29t-11 -29t-28 -11z" />
    <glyph glyph-name="afii10106" unicode="&#x459;" horiz-adv-x="718" 
d="M400 46h75q137 0 137 95q0 47 -33 70.5t-114 23.5q-29 0 -65 -3v-186zM27 -8q-10 0 -17 1v50q5 -1 13 -1q32 0 59 42q31 50 61 158t44 231h213v-193q36 3 62 3q206 0 206 -140q0 -61 -43.5 -102t-147.5 -41h-130v427h-114q-15 -121 -47 -227t-66 -155q-36 -53 -93 -53z
" />
    <glyph glyph-name="afii10107" unicode="&#x45a;" horiz-adv-x="731" 
d="M74 0v473h53v-196h233v196h53v-193q36 3 62 3q206 0 206 -140q0 -143 -191 -143h-130v231h-233v-231h-53zM413 46h75q78 0 107.5 25t29.5 70q0 47 -33 70.5t-114 23.5q-29 0 -65 -3v-186z" />
    <glyph glyph-name="afii10108" unicode="&#x45b;" horiz-adv-x="512" 
d="M78 0v566h-66v46h66v96h53v-96h142v-46h-142v-172q89 75 166 75q62 0 101.5 -41.5t39.5 -122.5v-305h-53v293q0 61 -21.5 94t-74.5 33q-68 0 -158 -81v-339h-53z" />
    <glyph glyph-name="afii10109" unicode="&#x45c;" horiz-adv-x="438" 
d="M196 531l59 147h63l-80 -147h-42zM74 0v473h53v-210h69q32 0 49.5 28.5t30.5 78t23 68.5q26 47 76 47q16 0 27 -4v-48q-11 4 -20 4q-23 0 -35 -20q-10 -15 -20.5 -54.5t-25.5 -72.5t-40 -46v-2q19 -5 30.5 -19.5t28.5 -48.5l88 -174h-55l-81 163q-28 55 -53 55h-92v-218
h-53z" />
    <glyph glyph-name="uni045D" unicode="&#x45d;" horiz-adv-x="520" 
d="M249 531l-81 147h67l58 -147h-44zM74 0v473h53v-297q0 -27 -2 -93h2q18 29 68 100l202 290h49v-473h-53v297q0 60 2 93h-2q-27 -43 -67 -100l-204 -290h-48z" />
    <glyph glyph-name="afii10110" unicode="&#x45e;" horiz-adv-x="451" 
d="M435 473l-175 -519q-38 -113 -86 -152t-112 -39q-42 0 -74 13l12 47q29 -12 63 -12q106 0 158 183l-206 479h59l170 -404h2l132 404h57zM230 546q-65 0 -101 36.5t-35 92.5h48q0 -37 21.5 -61.5t66.5 -24.5t66.5 24.5t21.5 61.5h48q1 -56 -36 -92.5t-100 -36.5z" />
    <glyph glyph-name="afii10193" unicode="&#x45f;" horiz-adv-x="491" 
d="M219 -160v160h-145v473h53v-427h237v427h53v-473h-145v-160h-53z" />
    <glyph glyph-name="afii10146" unicode="&#x462;" horiz-adv-x="572" 
d="M137 0v508h-132v46h132v105h53v-105h165l-19 -46h-146v-128h65q109 0 164 -26q94 -46 94 -161q0 -193 -240 -193h-136zM190 46h86q181 0 181 144q0 91 -67 124q-40 20 -131 20h-69v-288z" />
    <glyph glyph-name="afii10194" unicode="&#x463;" horiz-adv-x="490" 
d="M119 0v427h-119v46h119v129h53v-129h166l-19 -46h-147v-147q36 3 62 3q206 0 206 -141q0 -142 -191 -142h-130zM172 46h75q78 0 107.5 25t29.5 70q0 48 -32.5 71t-114.5 23q-29 0 -65 -3v-186z" />
    <glyph glyph-name="afii10147" unicode="&#x472;" horiz-adv-x="746" 
d="M373 -10q-143 0 -228.5 89t-85.5 247q0 155 85.5 246.5t228.5 91.5q144 0 229 -92.5t85 -245.5q0 -158 -86.5 -247t-227.5 -89zM373 38q121 0 188.5 74t68.5 203h-514q1 -129 68.5 -203t188.5 -74zM117 361h512q-6 116 -71.5 185.5t-184.5 69.5q-115 0 -182 -68.5
t-74 -186.5z" />
    <glyph glyph-name="afii10195" unicode="&#x473;" horiz-adv-x="509" 
d="M254 -10q-98 0 -153 68.5t-55 178.5q0 111 55 179.5t154 68.5q98 0 153 -68.5t55 -179.5t-55 -179t-154 -68zM254 38q71 0 110.5 49t41.5 135h-303q2 -86 41.5 -135t109.5 -49zM103 268h302q-5 79 -44.5 124t-105.5 45q-68 0 -107.5 -44.5t-44.5 -124.5z" />
    <glyph glyph-name="afii10148" unicode="&#x474;" horiz-adv-x="621" 
d="M276 -3l-253 662h59l158 -420q30 -81 52 -148h2q70 269 114 406q26 80 60 123.5t98 43.5q24 0 41 -5v-51q-13 5 -32 5q-20 0 -37 -8t-27 -18t-21 -31.5t-16 -34.5l-15 -41q-14 -40 -32 -100l-52.5 -181.5l-57.5 -201.5h-41z" />
    <glyph glyph-name="afii10196" unicode="&#x475;" horiz-adv-x="456" 
d="M191 -3l-175 476h58l141 -401h2q40 160 72 264q25 82 53 115.5t76 33.5q16 0 28 -4v-48q-10 4 -25 4q-26 0 -45 -27.5t-37 -86.5q-30 -94 -94 -326h-54z" />
    <glyph glyph-name="afii10050" unicode="&#x490;" horiz-adv-x="440" 
d="M93 0v659h273v167l50 13v-226h-270v-613h-53z" />
    <glyph glyph-name="afii10098" unicode="&#x491;" horiz-adv-x="382" 
d="M74 0v473h235v147l49 13v-207h-231v-426h-53z" />
    <glyph glyph-name="Wgrave" unicode="&#x1e80;" horiz-adv-x="880" 
d="M237 -3l-218 662h60l130 -403q39 -122 50 -164h2q21 70 53 162l102 295l-37 110h61l136 -409q40 -124 49 -158h2q19 73 46 156l130 411h58l-216 -662h-40l-108 323q-38 113 -51 155h-2q-18 -58 -52 -156l-112 -322h-43zM416 696l-81 147h67l58 -147h-44z" />
    <glyph glyph-name="wgrave" unicode="&#x1e81;" horiz-adv-x="664" 
d="M162 -3l-150 476h58l118 -402h2l112 402h59l117 -402h2l115 402h57l-149 -476h-54l-116 404h-2l-115 -404h-54zM324 531l-81 147h67l58 -147h-44z" />
    <glyph glyph-name="Wacute" unicode="&#x1e82;" horiz-adv-x="880" 
d="M237 -3l-218 662h60l130 -403q39 -122 50 -164h2q21 70 53 162l102 295l-37 110h61l136 -409q40 -124 49 -158h2q19 73 46 156l130 411h58l-216 -662h-40l-108 323q-38 113 -51 155h-2q-18 -58 -52 -156l-112 -322h-43zM409 696l59 147h63l-80 -147h-42z" />
    <glyph glyph-name="wacute" unicode="&#x1e83;" horiz-adv-x="664" 
d="M162 -3l-150 476h58l118 -402h2l112 402h59l117 -402h2l115 402h57l-149 -476h-54l-116 404h-2l-115 -404h-54zM296 531l59 147h63l-80 -147h-42z" />
    <glyph glyph-name="Wdieresis" unicode="&#x1e84;" horiz-adv-x="880" 
d="M237 -3l-218 662h60l130 -403q39 -122 50 -164h2q21 70 53 162l102 295l-37 110h61l136 -409q40 -124 49 -158h2q19 73 46 156l130 411h58l-216 -662h-40l-108 323q-38 113 -51 155h-2q-18 -58 -52 -156l-112 -322h-43zM359 708q-15 0 -25.5 10.5t-10.5 25.5t10.5 25.5
t25.5 10.5t25.5 -10.5t10.5 -25.5t-10.5 -25.5t-25.5 -10.5zM531 708q-15 0 -25.5 10.5t-10.5 25.5t10.5 25.5t25.5 10.5t25.5 -10.5t10.5 -25.5t-10.5 -25.5t-25.5 -10.5z" />
    <glyph glyph-name="wdieresis" unicode="&#x1e85;" horiz-adv-x="664" 
d="M162 -3l-150 476h58l118 -402h2l112 402h59l117 -402h2l115 402h57l-149 -476h-54l-116 404h-2l-115 -404h-54zM246 568q-15 0 -25.5 10.5t-10.5 25.5t10.5 25.5t25.5 10.5t25.5 -10.5t10.5 -25.5t-10.5 -25.5t-25.5 -10.5zM418 568q-15 0 -25.5 10.5t-10.5 25.5
t10.5 25.5t25.5 10.5t25.5 -10.5t10.5 -25.5t-10.5 -25.5t-25.5 -10.5z" />
    <glyph glyph-name="Ygrave" unicode="&#x1ef2;" horiz-adv-x="514" 
d="M233 0v264l-214 395h61l180 -337h2l174 337h59l-209 -396v-263h-53zM253 696l-81 147h67l58 -147h-44z" />
    <glyph glyph-name="ygrave" unicode="&#x1ef3;" horiz-adv-x="443" 
d="M431 473l-175 -519q-38 -113 -86 -152t-112 -39q-42 0 -74 13l12 47q29 -12 63 -12q106 0 158 183l-206 479h59l170 -404h2l132 404h57zM219 531l-81 147h67l58 -147h-44z" />
    <glyph glyph-name="endash" unicode="&#x2013;" horiz-adv-x="450" 
d="M0 231v47h450v-47h-450z" />
    <glyph glyph-name="emdash" unicode="&#x2014;" horiz-adv-x="800" 
d="M0 231v47h800v-47h-800z" />
    <glyph glyph-name="quoteleft" unicode="&#x2018;" horiz-adv-x="225" 
d="M103 462q-30 66 -30 117q0 66 41 136l27 -8q-16 -51 -16 -96q0 -60 31 -124z" />
    <glyph glyph-name="quoteright" unicode="&#x2019;" horiz-adv-x="225" 
d="M122 715q30 -66 30 -117q0 -66 -41 -136l-27 8q16 51 16 96q0 60 -31 124z" />
    <glyph glyph-name="quotesinglbase" unicode="&#x201a;" horiz-adv-x="225" 
d="M122 115q30 -66 30 -117q0 -66 -41 -136l-27 8q16 51 16 96q0 60 -31 124z" />
    <glyph glyph-name="quotedblleft" unicode="&#x201c;" horiz-adv-x="370" 
d="M103 462q-30 66 -30 117q0 66 41 136l27 -8q-16 -51 -16 -96q0 -60 31 -124zM248 462q-30 66 -30 117q0 66 41 136l27 -8q-16 -51 -16 -96q0 -60 31 -124z" />
    <glyph glyph-name="quotedblright" unicode="&#x201d;" horiz-adv-x="370" 
d="M267 715q30 -66 30 -117q0 -66 -41 -136l-27 8q16 51 16 96q0 60 -31 124zM122 715q30 -66 30 -117q0 -66 -41 -136l-27 8q16 51 16 96q0 60 -31 124z" />
    <glyph glyph-name="quotedblbase" unicode="&#x201e;" horiz-adv-x="370" 
d="M267 115q30 -66 30 -117q0 -66 -41 -136l-27 8q16 51 16 96q0 60 -31 124zM122 115q30 -66 30 -117q0 -66 -41 -136l-27 8q16 51 16 96q0 60 -31 124z" />
    <glyph glyph-name="dagger" unicode="&#x2020;" horiz-adv-x="504" 
d="M227 -44v146q0 117 3.5 217.5t3.5 106.5q-18 0 -74 -5t-80 -5v53q24 -1 80 -6t74 -6q0 23 -4 80t-4 82h52q0 -25 -4 -82t-4 -80q18 1 74 6t80 6v-53q-24 0 -80 5t-74 5q0 -6 3.5 -106.5t3.5 -217.5v-146h-50z" />
    <glyph glyph-name="daggerdbl" unicode="&#x2021;" horiz-adv-x="504" 
d="M226 -44q0 25 4 82t4 80q-18 -1 -74 -6t-80 -6v53q24 0 80 -5t74 -5q0 12 -3 55t-3 75q0 37 3 85.5t3 61.5q-18 0 -74 -5t-80 -5v53q24 -1 80 -6t74 -6q0 23 -4 80t-4 82h52q0 -25 -4 -82t-4 -80q18 1 74 6t80 6v-53q-24 0 -80 5t-74 5q0 -12 3 -60.5t3 -86.5
q0 -33 -3 -76t-3 -54q18 0 74 5t80 5v-53q-24 1 -80 6t-74 6q0 -23 4 -80t4 -82h-52z" />
    <glyph glyph-name="bullet" unicode="&#x2022;" horiz-adv-x="285" 
d="M142 222q-39 0 -66 28t-27 68q0 41 26.5 69t66.5 28t67 -28t27 -69q0 -40 -27 -68t-67 -28z" />
    <glyph glyph-name="ellipsis" unicode="&#x2026;" horiz-adv-x="890" 
d="M159 -7q-16 0 -27.5 12t-11.5 29t11.5 29t27.5 12t27.5 -12t11.5 -29t-11.5 -29t-27.5 -12zM445 -7q-16 0 -27.5 12t-11.5 29t11.5 29t27.5 12t27.5 -12t11.5 -29t-11.5 -29t-27.5 -12zM731 -7q-16 0 -27.5 12t-11.5 29t11.5 29t27.5 12t27.5 -12t11.5 -29t-11.5 -29
t-27.5 -12z" />
    <glyph glyph-name="perthousand" unicode="&#x2030;" horiz-adv-x="1145" 
d="M203 320q-61 0 -102 45.5t-41 126.5t41 126.5t102 45.5t102 -45.5t41 -126.5t-41 -126.5t-102 -45.5zM203 363q44 0 69 35.5t25 93.5t-25 93.5t-69 35.5t-69 -35.5t-25 -93.5t25 -93.5t69 -35.5zM597 -10q-61 0 -102 45.5t-41 126.5t41 126.5t102 45.5t102 -45.5
t41 -126.5t-41 -126.5t-102 -45.5zM597 33q44 0 69 35.5t25 93.5t-25 93.5t-69 35.5t-69 -35.5t-25 -93.5t25 -93.5t69 -35.5zM942 -10q-61 0 -102 45.5t-41 126.5t41 126.5t102 45.5t102 -45.5t41 -126.5t-41 -126.5t-102 -45.5zM942 33q44 0 69 35.5t25 93.5t-25 93.5
t-69 35.5t-69 -35.5t-25 -93.5t25 -93.5t69 -35.5zM169 0l410 659h52l-410 -659h-52z" />
    <glyph glyph-name="guilsinglleft" unicode="&#x2039;" horiz-adv-x="335" 
d="M254 420l-139 -179l139 -179l-38 -28l-164 207l164 207z" />
    <glyph glyph-name="guilsinglright" unicode="&#x203a;" horiz-adv-x="335" 
d="M220 241l-139 179l38 28l164 -207l-164 -207l-38 28z" />
    <glyph glyph-name="fraction" unicode="&#x2044;" horiz-adv-x="102" 
d="M-180 0l410 659h52l-410 -659h-52z" />
    <glyph glyph-name="zerosuperior" unicode="&#x2070;" 
d="M179 397q-59 0 -96 52t-37 146q0 93 37.5 144.5t97.5 51.5t97 -52.5t37 -146.5q0 -93 -38 -144t-98 -51zM182 440q41 0 62.5 42t21.5 108q0 75 -23.5 116.5t-63.5 41.5q-41 0 -62.5 -42t-21.5 -107q0 -75 23.5 -117t63.5 -42z" />
    <glyph glyph-name="foursuperior" unicode="&#x2074;" 
d="M37 494v35l191 261h40v-254h53v-42h-53v-89h-48v89h-183zM93 536h76h51v48q0 73 3 129z" />
    <glyph glyph-name="fivesuperior" unicode="&#x2075;" horiz-adv-x="322" 
d="M36 418l14 41q35 -19 77 -19q44 0 69 19.5t25 57.5q0 41 -34 60q-24 12 -81 12h-43v193h208l-11 -42h-149v-109h17q49 0 82 -14q60 -26 60 -98q0 -54 -38 -88t-104 -34q-53 0 -92 21z" />
    <glyph glyph-name="sixsuperior" unicode="&#x2076;" horiz-adv-x="338" 
d="M178 397q-57 0 -94.5 46t-37.5 135q0 90 47 151.5t122 61.5q37 0 68 -14l-14 -41q-22 12 -53 12q-45 0 -77 -34.5t-40 -94.5h2q39 24 82 24q52 0 85.5 -32.5t33.5 -88.5q0 -57 -35.5 -91t-88.5 -34zM181 440q33 0 52.5 20.5t19.5 59.5q0 36 -21 58t-55 22q-39 0 -80 -29
q-2 -57 21 -94t63 -37z" />
    <glyph glyph-name="sevensuperior" unicode="&#x2077;" horiz-adv-x="303" 
d="M62 405q42 185 153 335h-180l-11 42h255v-23q-123 -154 -166 -354h-51z" />
    <glyph glyph-name="eightsuperior" unicode="&#x2078;" 
d="M177 397q-58 0 -93.5 27.5t-35.5 76.5q0 73 75 99v2q-63 29 -63 90q0 45 33 72t86 27q52 0 85 -27t33 -72q0 -63 -63 -89v-2q78 -26 78 -97q0 -49 -39 -78t-96 -29zM178 440q35 0 60 16.5t25 48.5q0 53 -91 76q-31 -8 -53 -27t-22 -49q0 -32 23.5 -48.5t57.5 -16.5z
M184 621q25 8 44.5 26.5t19.5 45.5q0 24 -19 39.5t-50 15.5t-50.5 -14.5t-19.5 -40.5q0 -52 75 -72z" />
    <glyph glyph-name="ninesuperior" unicode="&#x2079;" horiz-adv-x="338" 
d="M128 397q-43 0 -82 16l14 42q31 -15 67 -15q50 0 81 35t35 101h-2q-38 -31 -87 -31q-50 0 -84 30t-34 90q0 55 34 90.5t87 35.5q62 0 98.5 -47.5t36.5 -138.5q0 -95 -43 -151.5t-121 -56.5zM160 588q23 0 46 12t35 29q-1 56 -24 87.5t-61 31.5q-33 0 -52 -22t-19 -57
q0 -37 19.5 -59t55.5 -22z" />
    <glyph glyph-name="plussuperior" unicode="&#x207a;" horiz-adv-x="419" 
d="M187 434v140h-132v44h132v136h45v-136h132v-44h-132v-140h-45z" />
    <glyph glyph-name="minussuperior" unicode="&#x207b;" horiz-adv-x="419" 
d="M55 574v44h309v-44h-309z" />
    <glyph glyph-name="equalsuperior" unicode="&#x207c;" horiz-adv-x="419" 
d="M55 513v44h309v-44h-309zM55 635v44h309v-44h-309z" />
    <glyph glyph-name="parenleftsuperior" unicode="&#x207d;" horiz-adv-x="244" 
d="M167 357q-102 95 -102 239t102 239l30 -25q-83 -88 -83 -214t83 -214z" />
    <glyph glyph-name="parenrightsuperior" unicode="&#x207e;" horiz-adv-x="244" 
d="M47 382q83 88 83 214t-83 214l30 25q102 -95 102 -239t-102 -239z" />
    <glyph glyph-name="n.superior" unicode="&#x207f;" horiz-adv-x="370" 
d="M55 270v332h41l4 -40q59 49 115 49q45 0 73.5 -30t28.5 -88v-223h-48v210q0 86 -59 86q-44 0 -107 -52v-244h-48z" />
    <glyph glyph-name="zeroinferior" unicode="&#x2080;" 
d="M179 -188q-59 0 -96 52t-37 146q0 93 37.5 144.5t97.5 51.5t97 -52.5t37 -146.5q0 -93 -38 -144t-98 -51zM182 -145q41 0 62.5 42t21.5 108q0 75 -23.5 116.5t-63.5 41.5q-41 0 -62.5 -42t-21.5 -107q0 -75 23.5 -117t63.5 -42z" />
    <glyph glyph-name="oneinferior" unicode="&#x2081;" horiz-adv-x="314" 
d="M176 -180v333l-121 -49l-19 37l149 64h39v-385h-48z" />
    <glyph glyph-name="twoinferior" unicode="&#x2082;" horiz-adv-x="318" 
d="M33 -180q3 54 24 95t48.5 64t55 41.5t46 40t18.5 47.5q0 25 -17.5 40t-48.5 15q-44 0 -93 -30l-20 37q57 36 114 36q54 0 84 -27t30 -72q0 -31 -17 -56t-42.5 -43.5l-51.5 -37t-48 -45.5t-28 -60h186v-45h-240z" />
    <glyph glyph-name="threeinferior" unicode="&#x2083;" horiz-adv-x="322" 
d="M23 -167l14 40q40 -18 83 -18q100 0 100 69q0 44 -46 59q-27 9 -71 9h-35v43h34q41 0 66 11q40 19 40 59q0 30 -20 44t-51 14q-40 0 -86 -22l-17 39q50 26 106 26q51 0 84 -27t33 -71q0 -67 -70 -90v-2q82 -16 82 -95q0 -47 -37.5 -78t-111.5 -31q-57 0 -97 21z" />
    <glyph glyph-name="fourinferior" unicode="&#x2084;" 
d="M37 -91v35l191 261h40v-254h53v-42h-53v-89h-48v89h-183zM93 -49h76h51v48q0 73 3 129z" />
    <glyph glyph-name="fiveinferior" unicode="&#x2085;" horiz-adv-x="322" 
d="M36 -167l14 41q35 -19 77 -19q44 0 69 19.5t25 57.5q0 41 -34 60q-24 12 -81 12h-43v193h208l-11 -42h-149v-109h17q49 0 82 -14q60 -26 60 -98q0 -54 -38 -88t-104 -34q-53 0 -92 21z" />
    <glyph glyph-name="sixinferior" unicode="&#x2086;" horiz-adv-x="338" 
d="M178 -188q-57 0 -94.5 46t-37.5 135q0 90 47 151.5t122 61.5q37 0 68 -14l-14 -41q-22 12 -53 12q-45 0 -77 -34.5t-40 -94.5h2q39 24 82 24q52 0 85.5 -32.5t33.5 -88.5q0 -57 -35.5 -91t-88.5 -34zM181 -145q33 0 52.5 20.5t19.5 59.5q0 36 -21 58t-55 22
q-39 0 -80 -29q-2 -57 21 -94t63 -37z" />
    <glyph glyph-name="seveninferior" unicode="&#x2087;" horiz-adv-x="303" 
d="M62 -180q42 185 153 335h-180l-11 42h255v-23q-123 -154 -166 -354h-51z" />
    <glyph glyph-name="eightinferior" unicode="&#x2088;" 
d="M177 -188q-58 0 -93.5 27.5t-35.5 76.5q0 73 75 99v2q-63 29 -63 90q0 45 33 72t86 27q52 0 85 -27t33 -72q0 -63 -63 -89v-2q78 -26 78 -97q0 -49 -39 -78t-96 -29zM178 -145q35 0 60 16.5t25 48.5q0 53 -91 76q-31 -8 -53 -27t-22 -49q0 -32 23.5 -48.5t57.5 -16.5z
M184 36q25 8 44.5 26.5t19.5 45.5q0 24 -19 39.5t-50 15.5t-50.5 -14.5t-19.5 -40.5q0 -52 75 -72z" />
    <glyph glyph-name="nineinferior" unicode="&#x2089;" horiz-adv-x="338" 
d="M128 -188q-43 0 -82 16l14 42q31 -15 67 -15q50 0 81 35t35 101h-2q-38 -31 -87 -31q-50 0 -84 30t-34 90q0 55 34 90.5t87 35.5q62 0 98.5 -47.5t36.5 -138.5q0 -95 -43 -151.5t-121 -56.5zM160 3q23 0 46 12t35 29q-1 56 -24 87.5t-61 31.5q-33 0 -52 -22t-19 -57
q0 -37 19.5 -59t55.5 -22z" />
    <glyph glyph-name="parenleftinferior" unicode="&#x208d;" horiz-adv-x="244" 
d="M167 -228q-102 95 -102 239t102 239l30 -25q-83 -88 -83 -214t83 -214z" />
    <glyph glyph-name="parenrightinferior" unicode="&#x208e;" horiz-adv-x="244" 
d="M47 -203q83 88 83 214t-83 214l30 25q102 -95 102 -239t-102 -239z" />
    <glyph glyph-name="Euro" unicode="&#x20ac;" horiz-adv-x="513" 
d="M467 75l22 -43q-67 -42 -148 -42q-105 0 -165.5 61.5t-78.5 166.5h-71v46h65q-2 36 -2 57q0 38 4 69h-67v46h75q23 103 86 165.5t156 62.5q73 0 131 -35v-55q-71 38 -127 38q-75 0 -123 -47.5t-67 -128.5h282l-18 -46h-272q-4 -28 -4 -65q0 -31 3 -61h264l-18 -46h-238
q18 -81 64 -130.5t121 -49.5q61 0 126 37z" />
    <glyph glyph-name="afii61289" unicode="&#x2113;" horiz-adv-x="445" 
d="M11 156l-14 46q44 12 80 28v149q0 144 48 214.5t123 70.5q58 0 89.5 -38.5t31.5 -96.5q0 -89 -62.5 -180t-176.5 -148q1 -84 29 -123t72 -39q57 0 113 46l27 -36q-66 -59 -144 -59q-69 0 -108.5 49.5t-41.5 137.5q-31 -12 -66 -21zM130 365v-109q91 52 137 126t46 150
q0 38 -17 61.5t-50 23.5q-51 0 -83.5 -62t-32.5 -190z" />
    <glyph glyph-name="afii61352" unicode="&#x2116;" horiz-adv-x="1030" 
d="M89 0v659h49l263 -393l105 -162h2q-2 72 -2 120v435h53v-659h-41l-276 409l-100 154h-2q2 -72 2 -120v-443h-53zM657 143v43h299v-43h-299zM806 263q-68 0 -110.5 50t-42.5 124t42.5 124t111.5 50q68 0 110.5 -50t42.5 -124t-42 -124t-112 -50zM806 307q47 0 76 36.5
t29 93.5t-29 93.5t-75 36.5q-47 0 -75.5 -36.5t-28.5 -93.5t28.5 -93.5t74.5 -36.5z" />
    <glyph glyph-name="uni2117" unicode="&#x2117;" horiz-adv-x="784" 
d="M392 -10q-142 0 -237 97.5t-95 239.5t95 239.5t237 97.5t237 -97.5t95 -239.5t-95 -239.5t-237 -97.5zM392 27q124 0 206 86t82 214t-82 213.5t-206 85.5t-206 -85.5t-82 -213.5t82 -214t206 -86zM297 133v387h103q59 0 94 -32.5t35 -87.5q0 -58 -36 -91t-101 -33h-52
v-143h-43zM340 314h55q89 0 89 84q0 83 -88 83h-56v-167z" />
    <glyph glyph-name="trademark" unicode="&#x2122;" horiz-adv-x="813" 
d="M138 264v358h-108v37h265l-11 -37h-104v-358h-42zM339 264v395h39l106 -161q28 -42 41 -70h2q13 28 41 70l106 161h39v-395h-42v242q0 59 4 88h-2q-15 -28 -37 -63l-97 -147h-26l-97 147q-22 35 -37 63h-2q4 -29 4 -88v-242h-42z" />
    <glyph glyph-name="estimated" unicode="&#x212e;" horiz-adv-x="754" 
d="M590 119h90q-103 -129 -304 -129q-146 0 -248.5 84.5t-102.5 226.5q0 143 103 226.5t252 83.5q86 0 154.5 -28t110.5 -74.5t63.5 -104t19.5 -119.5h-556v-160q32 -46 88 -71.5t121 -25.5q134 0 209 91zM172 324h414v152q-68 97 -206 97q-139 0 -208 -97v-152z" />
    <glyph glyph-name="onethird" unicode="&#x2153;" horiz-adv-x="825" 
d="M157 0l410 659h52l-410 -659h-52zM190 270v333l-121 -49l-19 37l149 64h39v-385h-48zM508 13l14 40q40 -18 83 -18q100 0 100 69q0 44 -46 59q-27 9 -71 9h-35v43h34q41 0 66 11q40 19 40 59q0 30 -20 44t-51 14q-40 0 -86 -22l-17 39q50 26 106 26q51 0 84 -27t33 -71
q0 -67 -70 -90v-2q82 -16 82 -95q0 -47 -37.5 -78t-111.5 -31q-57 0 -97 21z" />
    <glyph glyph-name="twothirds" unicode="&#x2154;" horiz-adv-x="825" 
d="M166 0l410 659h52l-410 -659h-52zM33 270q3 54 24 95t48.5 64t55 41.5t46 40t18.5 47.5q0 25 -17.5 40t-48.5 15q-44 0 -93 -30l-20 37q57 36 114 36q54 0 84 -27t30 -72q0 -31 -17 -56t-42.5 -43.5l-51.5 -37t-48 -45.5t-28 -60h186v-45h-240zM508 13l14 40
q40 -18 83 -18q100 0 100 69q0 44 -46 59q-27 9 -71 9h-35v43h34q41 0 66 11q40 19 40 59q0 30 -20 44t-51 14q-40 0 -86 -22l-17 39q50 26 106 26q51 0 84 -27t33 -71q0 -67 -70 -90v-2q82 -16 82 -95q0 -47 -37.5 -78t-111.5 -31q-57 0 -97 21z" />
    <glyph glyph-name="oneeighth" unicode="&#x215b;" horiz-adv-x="825" 
d="M150 0l410 659h52l-410 -659h-52zM183 270v333l-121 -49l-19 37l149 64h39v-385h-48zM623 -8q-58 0 -93.5 27.5t-35.5 76.5q0 73 75 99v2q-63 29 -63 90q0 45 33 72t86 27q52 0 85 -27t33 -72q0 -63 -63 -89v-2q78 -26 78 -97q0 -49 -39 -78t-96 -29zM624 35
q35 0 60 16.5t25 48.5q0 53 -91 76q-31 -8 -53 -27t-22 -49q0 -32 23.5 -48.5t57.5 -16.5zM630 216q25 8 44.5 26.5t19.5 45.5q0 24 -19 39.5t-50 15.5t-50.5 -14.5t-19.5 -40.5q0 -52 75 -72z" />
    <glyph glyph-name="threeeighths" unicode="&#x215c;" horiz-adv-x="825" 
d="M173 0l410 659h52l-410 -659h-52zM634 -8q-58 0 -93.5 27.5t-35.5 76.5q0 73 75 99v2q-63 29 -63 90q0 45 33 72t86 27q52 0 85 -27t33 -72q0 -63 -63 -89v-2q78 -26 78 -97q0 -49 -39 -78t-96 -29zM635 35q35 0 60 16.5t25 48.5q0 53 -91 76q-31 -8 -53 -27t-22 -49
q0 -32 23.5 -48.5t57.5 -16.5zM641 216q25 8 44.5 26.5t19.5 45.5q0 24 -19 39.5t-50 15.5t-50.5 -14.5t-19.5 -40.5q0 -52 75 -72zM48 284l14 40q40 -18 83 -18q100 0 100 69q0 44 -46 59q-27 9 -71 9h-35v43h34q41 0 66 11q40 19 40 59q0 30 -20 44t-51 14q-40 0 -86 -22
l-17 39q50 26 106 26q51 0 84 -27t33 -71q0 -67 -70 -90v-2q82 -16 82 -95q0 -47 -37.5 -78t-111.5 -31q-57 0 -97 21z" />
    <glyph glyph-name="fiveeighths" unicode="&#x215d;" horiz-adv-x="825" 
d="M160 0l410 659h52l-410 -659h-52zM45 284l14 41q35 -19 77 -19q44 0 69 19.5t25 57.5q0 41 -34 60q-24 12 -81 12h-43v193h208l-11 -42h-149v-109h17q49 0 82 -14q60 -26 60 -98q0 -54 -38 -88t-104 -34q-53 0 -92 21zM633 -8q-58 0 -93.5 27.5t-35.5 76.5q0 73 75 99v2
q-63 29 -63 90q0 45 33 72t86 27q52 0 85 -27t33 -72q0 -63 -63 -89v-2q78 -26 78 -97q0 -49 -39 -78t-96 -29zM634 35q35 0 60 16.5t25 48.5q0 53 -91 76q-31 -8 -53 -27t-22 -49q0 -32 23.5 -48.5t57.5 -16.5zM640 216q25 8 44.5 26.5t19.5 45.5q0 24 -19 39.5t-50 15.5
t-50.5 -14.5t-19.5 -40.5q0 -52 75 -72z" />
    <glyph glyph-name="seveneighths" unicode="&#x215e;" horiz-adv-x="825" 
d="M146 0l410 659h52l-410 -659h-52zM619 -8q-58 0 -93.5 27.5t-35.5 76.5q0 73 75 99v2q-63 29 -63 90q0 45 33 72t86 27q52 0 85 -27t33 -72q0 -63 -63 -89v-2q78 -26 78 -97q0 -49 -39 -78t-96 -29zM620 35q35 0 60 16.5t25 48.5q0 53 -91 76q-31 -8 -53 -27t-22 -49
q0 -32 23.5 -48.5t57.5 -16.5zM626 216q25 8 44.5 26.5t19.5 45.5q0 24 -19 39.5t-50 15.5t-50.5 -14.5t-19.5 -40.5q0 -52 75 -72zM129 270q42 185 153 335h-180l-11 42h255v-23q-123 -154 -166 -354h-51z" />
    <glyph glyph-name="partialdiff" unicode="&#x2202;" horiz-adv-x="495" 
d="M201 -10q-77 0 -124 52.5t-47 139.5q0 98 64 165t168 67q77 0 135 -34l1 1q-7 107 -56.5 171.5t-131.5 64.5q-62 0 -128 -31l-18 40q69 38 147 38q120 0 182 -86.5t62 -224.5q0 -164 -71 -263.5t-183 -99.5zM206 38q78 0 133.5 77.5t59.5 214.5q-63 36 -133 36
q-83 0 -131.5 -50t-48.5 -134q0 -67 33 -105.5t87 -38.5z" />
    <glyph glyph-name="Delta" unicode="&#x2206;" horiz-adv-x="594" 
d="M24 0l252 661h41l253 -661h-546zM271 508l-173 -462h396l-171 461q-16 41 -25 82h-1q-8 -30 -26 -81z" />
    <glyph glyph-name="product" unicode="&#x220f;" horiz-adv-x="613" 
d="M110 -180v793h-88v46h585l-18 -46h-88v-793h-53v793h-285v-793h-53z" />
    <glyph glyph-name="summation" unicode="&#x2211;" horiz-adv-x="558" 
d="M29 -180l263 429l-247 410h490l-18 -46h-382l219 -363l-235 -384h411v-46h-501z" />
    <glyph glyph-name="minus" unicode="&#x2212;" horiz-adv-x="511" 
d="M18 231v47h475v-47h-475z" />
    <glyph glyph-name="radical" unicode="&#x221a;" horiz-adv-x="641" 
d="M320 -122l-161 460l-85 -34l-17 44l138 56l116 -344l38 -125h2l30 120l211 772h54l-261 -949h-65z" />
    <glyph glyph-name="infinity" unicode="&#x221e;" horiz-adv-x="768" 
d="M189 104q-71 0 -115 46.5t-44 113.5t44 113.5t115 46.5q56 0 100 -31.5t93 -90.5q47 58 92 90t105 32q71 0 115 -46.5t44 -113.5t-44 -113.5t-115 -46.5q-60 0 -105 31.5t-92 89.5q-49 -58 -93 -89.5t-100 -31.5zM191 153q45 0 81.5 28.5t79.5 82.5q-43 54 -79.5 82.5
t-81.5 28.5q-48 0 -77 -30.5t-29 -80.5t29 -80.5t77 -30.5zM577 153q48 0 77 30.5t29 80.5t-29 80.5t-77 30.5q-44 0 -80.5 -28t-82.5 -83q45 -55 81.5 -83t81.5 -28z" />
    <glyph glyph-name="integral" unicode="&#x222b;" horiz-adv-x="291" 
d="M-33 -225l12 45q23 -10 49 -10q73 0 73 94v659q0 80 38 112.5t88 32.5q34 0 61 -12l-12 -45q-23 10 -49 10q-73 0 -73 -94v-659q0 -80 -38 -112.5t-88 -32.5q-34 0 -61 12z" />
    <glyph glyph-name="approxequal" unicode="&#x2248;" horiz-adv-x="511" 
d="M62 143l-33 30q59 62 118 62q35 0 114 -31.5t104 -31.5q23 0 40.5 10t43.5 35l33 -30q-59 -62 -118 -62q-32 0 -113 31.5t-105 31.5q-23 0 -40.5 -10t-43.5 -35zM62 298l-33 30q59 62 118 62q35 0 114 -31.5t104 -31.5q23 0 40.5 10t43.5 35l33 -30q-59 -62 -118 -62
q-32 0 -113 31.5t-105 31.5q-23 0 -40.5 -10t-43.5 -35z" />
    <glyph glyph-name="notequal" unicode="&#x2260;" horiz-adv-x="511" 
d="M129 45l53 109h-164v47h187l53 108h-240v47h263l51 103h52l-51 -103h160v-47h-183l-53 -108h236v-47h-259l-53 -109h-52z" />
    <glyph glyph-name="lessequal" unicode="&#x2264;" horiz-adv-x="511" 
d="M42 265v52l414 163v-51l-354 -137v-2l354 -137v-51zM18 0v47h475v-47h-475z" />
    <glyph glyph-name="greaterequal" unicode="&#x2265;" horiz-adv-x="511" 
d="M56 102v51l354 137v2l-354 137v51l414 -163v-52zM19 0v47h475v-47h-475z" />
    <glyph glyph-name="lozenge" unicode="&#x25ca;" horiz-adv-x="467" 
d="M205 0l-143 289l143 289h58l143 -289l-143 -289h-58zM234 48h2l116 241l-117 241h-2l-117 -241z" />
    <glyph glyph-name="Imacron" horiz-adv-x="231" 
d="M89 0v659h53v-659h-53zM-1 722v46h232v-46h-232z" />
    <glyph glyph-name="ibreve" horiz-adv-x="219" 
d="M186 660h41q-4 -52 -35 -83t-83 -31q-51 0 -80.5 30.5t-33.5 83.5h41q12 -71 75 -71t75 71zM83 0v473h53v-473h-53z" />
    <glyph glyph-name="zero.numr" 
d="M179 263q-59 0 -96 52t-37 146q0 93 37.5 144.5t97.5 51.5t97 -52.5t37 -146.5q0 -93 -38 -144t-98 -51zM182 306q41 0 62.5 42t21.5 108q0 75 -23.5 116.5t-63.5 41.5q-41 0 -62.5 -42t-21.5 -107q0 -75 23.5 -117t63.5 -42z" />
    <glyph glyph-name="Adieresis.small" horiz-adv-x="470" 
d="M14 0l206 534h30l206 -534h-56l-52 138h-227l-51 -138h-56zM138 184h193l-60 162l-35 96h-2l-36 -97zM148 593q-15 0 -25.5 10.5t-10.5 25.5t10.5 25.5t25.5 10.5t25.5 -10.5t10.5 -25.5t-10.5 -25.5t-25.5 -10.5zM320 593q-15 0 -25.5 10.5t-10.5 25.5t10.5 25.5
t25.5 10.5t25.5 -10.5t10.5 -25.5t-10.5 -25.5t-25.5 -10.5z" />
    <glyph glyph-name="Atilde.small" horiz-adv-x="470" 
d="M104 592v15q0 33 19 53.5t47 20.5q29 0 70 -25t56 -25q29 0 29 44h41v-15q0 -33 -19 -53.5t-47 -20.5t-69.5 25t-56.5 25q-29 0 -29 -44h-41zM14 0l206 534h30l206 -534h-56l-52 138h-227l-51 -138h-56zM138 184h193l-60 162l-35 96h-2l-36 -97z" />
    <glyph glyph-name="Acircumflex.small" horiz-adv-x="470" 
d="M14 0l206 534h30l206 -534h-56l-52 138h-227l-51 -138h-56zM138 184h193l-60 162l-35 96h-2l-36 -97zM109 556l98 147h57l98 -147h-50l-76 109l-77 -109h-50z" />
    <glyph glyph-name="Aacute.small" horiz-adv-x="470" 
d="M208 566l59 147h63l-80 -147h-42zM14 0l206 534h30l206 -534h-56l-52 138h-227l-51 -138h-56zM138 184h193l-60 162l-35 96h-2l-36 -97z" />
    <glyph glyph-name="Agrave.small" horiz-adv-x="470" 
d="M217 566l-81 147h67l58 -147h-44zM14 0l206 534h30l206 -534h-56l-52 138h-227l-51 -138h-56zM138 184h193l-60 162l-35 96h-2l-36 -97z" />
    <glyph glyph-name="Z.small" horiz-adv-x="458" 
d="M47 0l286 484h-255l-18 46h356l-284 -484h289v-46h-374z" />
    <glyph glyph-name="Y.small" horiz-adv-x="426" 
d="M210 270h2l45 81l97 179h58l-175 -310v-220h-53v220l-170 310h59l93 -177z" />
    <glyph glyph-name="X.small" horiz-adv-x="472" 
d="M28 530h63l150 -220l152 220h62l-181 -262l184 -268h-61l-158 233l-164 -233h-61l193 270z" />
    <glyph glyph-name="W.small" horiz-adv-x="696" 
d="M484 95h2q20 71 36 120l105 315h55l-180 -532h-33l-80 240q-29 89 -33 104h-2q-11 -41 -35 -105l-87 -239h-33l-185 532h57l110 -317q21 -59 37 -118h2q13 50 38 117l70 196l-40 122h56l105 -315q23 -72 35 -120z" />
    <glyph glyph-name="V.small" horiz-adv-x="489" 
d="M243 84h2l51 130l124 316h55l-215 -532h-32l-214 532h55l123 -313z" />
    <glyph glyph-name="U.small" horiz-adv-x="567" 
d="M483 530v-340q0 -101 -55.5 -151t-147.5 -50q-90 0 -143 49.5t-53 150.5v341h53v-340q0 -153 146 -153q147 0 147 153v340h53z" />
    <glyph glyph-name="T.small" horiz-adv-x="413" 
d="M184 0v484h-167v46h397l-20 -46h-157v-484h-53z" />
    <glyph glyph-name="S.small" horiz-adv-x="390" 
d="M44 24l20 44q50 -30 113 -30q48 0 83 25t35 71q0 40 -24.5 67t-59 43l-69 33.5t-59 49t-24.5 78.5q0 57 40.5 96t110.5 39q65 0 115 -25v-49q-52 26 -112 26q-40 0 -70 -20.5t-30 -61.5q0 -37 24.5 -61.5t59.5 -40t69.5 -33.5t59 -51.5t24.5 -83.5q0 -72 -49.5 -111
t-123.5 -39q-78 0 -133 34z" />
    <glyph glyph-name="R.small" horiz-adv-x="455" 
d="M281 238v-2q25 -18 69 -87l93 -149h-61l-90 147q-37 62 -65 75h-85v-222h-53v530h118q90 0 134 -43t44 -108q0 -49 -26.5 -87t-77.5 -54zM142 268h80q50 0 79 29.5t29 78.5t-29.5 78.5t-86.5 29.5h-72v-216z" />
    <glyph glyph-name="Q.small" horiz-adv-x="606" 
d="M249 -4q-89 19 -146 92.5t-57 176.5q0 119 74 197t183 78t183 -78t74 -197q0 -113 -68.5 -190t-170.5 -84v-2q44 -61 138 -61q30 0 54 8l12 -45q-30 -10 -72 -10q-126 0 -204 115zM303 38q86 0 143.5 63t57.5 164t-57.5 164t-143.5 63t-143.5 -63t-57.5 -164t57.5 -164
t143.5 -63z" />
    <glyph glyph-name="P.small" horiz-adv-x="421" 
d="M89 0v530h117q82 0 129.5 -44t47.5 -120q0 -79 -49.5 -124t-138.5 -45h-53v-197h-53zM142 243h61q62 0 93.5 32t31.5 89q0 56 -31.5 88t-92.5 32h-62v-241z" />
    <glyph glyph-name="O.small" horiz-adv-x="606" 
d="M303 38q86 0 143.5 63t57.5 164t-57.5 164t-143.5 63t-143.5 -63t-57.5 -164t57.5 -164t143.5 -63zM303 540q109 0 183 -78t74 -197t-74.5 -197t-182.5 -78t-182.5 78t-74.5 197t74 197t183 78z" />
    <glyph glyph-name="N.small" horiz-adv-x="621" 
d="M479 85h2q-2 56 -2 112v333h53v-530h-44l-258 328q-55 69 -88 119h-1q1 -30 1 -113v-334h-53v530h47l256 -326q49 -61 87 -119z" />
    <glyph glyph-name="M.small" horiz-adv-x="680" 
d="M89 0v530h49l139 -217q49 -78 62 -101h2q13 23 62 101l138 217h50v-530h-53v335q0 77 2 102h-2l-59 -96l-123 -193h-32l-123 193l-59 96h-2q2 -25 2 -102v-335h-53z" />
    <glyph glyph-name="L.small" 
d="M89 0v530h53v-484h212v-46h-265z" />
    <glyph glyph-name="K.small" horiz-adv-x="444" 
d="M89 0v530h53v-256h2l207 256h59l-216 -268l241 -262h-67l-224 243h-2v-243h-53z" />
    <glyph glyph-name="J.small" horiz-adv-x="250" 
d="M-20 -112l9 46q20 -5 37 -5q49 0 65.5 28.5t16.5 83.5v489h53v-501q0 -148 -134 -148q-27 0 -47 7z" />
    <glyph glyph-name="I.small" horiz-adv-x="231" 
d="M89 0v530h53v-530h-53z" />
    <glyph glyph-name="H.small" horiz-adv-x="579" 
d="M89 0v530h53v-238h295v238h53v-530h-53v246h-295v-246h-53z" />
    <glyph glyph-name="G.small" horiz-adv-x="542" 
d="M463 248v-225q-68 -33 -154 -33q-115 0 -189 75.5t-74 193.5q0 121 74 201t200 80q70 0 130 -28v-49q-58 29 -127 29q-106 0 -163.5 -67t-57.5 -160q0 -105 58.5 -166t146.5 -61q56 0 103 16v194h53z" />
    <glyph glyph-name="F.small" horiz-adv-x="416" 
d="M89 0v530h283l-20 -46h-210v-197h204v-46h-204v-241h-53z" />
    <glyph glyph-name="E.small" horiz-adv-x="427" 
d="M89 0v530h283l-20 -46h-210v-192h204v-46h-204v-200h221v-46h-274z" />
    <glyph glyph-name="D.small" horiz-adv-x="544" 
d="M89 0v530h129q140 0 210 -69t70 -193q0 -123 -72.5 -195.5t-206.5 -72.5h-130zM142 46h82q111 0 164.5 61.5t53.5 162.5t-55 157.5t-166 56.5h-79v-438z" />
    <glyph glyph-name="C.small" horiz-adv-x="474" 
d="M428 74l18 -42q-66 -42 -149 -42q-112 0 -181.5 74.5t-69.5 192.5q0 123 74 203t188 80q64 0 126 -29v-49q-58 30 -122 30q-90 0 -150 -64t-60 -166q0 -103 54.5 -163.5t139.5 -60.5q73 0 132 36z" />
    <glyph glyph-name="B.small" horiz-adv-x="460" 
d="M306 277v-2q46 -10 75.5 -43t29.5 -84q0 -62 -44 -105t-139 -43h-139v530h135q74 0 115 -39.5t41 -97.5q0 -80 -74 -116zM142 46h87q127 0 127 102q0 46 -30 72t-84 26h-100v-200zM142 292h80q49 0 76.5 28t27.5 70q0 40 -27 67t-78 27h-79v-192z" />
    <glyph glyph-name="A.small" horiz-adv-x="470" 
d="M14 0l206 534h30l206 -534h-56l-52 138h-227l-51 -138h-56zM138 184h193l-60 162l-35 96h-2l-36 -97z" />
    <glyph glyph-name="four.OT" horiz-adv-x="505" 
d="M30 0v39l306 447h39v-440h96v-46h-96v-177l-53 -18v195h-292zM89 46h82h151v189q0 87 5 157z" />
    <glyph glyph-name="three.OT" horiz-adv-x="505" 
d="M49 -180l12 47q42 -15 105 -15q89 0 147.5 40t58.5 123q0 121 -171 121h-82v45h15q55 0 98 10q124 31 124 138q0 57 -35.5 87.5t-84.5 30.5q-65 0 -149 -44l-20 41q80 50 170 50q78 0 126.5 -45.5t48.5 -113.5q0 -62 -32.5 -103.5t-78.5 -59.5v-2q63 -11 95 -53.5
t32 -102.5q0 -26 -6 -51.5t-24 -55t-46.5 -51.5t-77.5 -36.5t-112 -14.5q-71 0 -113 15z" />
    <glyph glyph-name="two.OT" horiz-adv-x="505" 
d="M79 0q5 53 23.5 95t43.5 68.5t53.5 47.5t56.5 37.5t50.5 32.5t36.5 38t14 49q0 37 -28.5 58t-76.5 21q-75 0 -145 -44l-19 42q73 49 169 49q75 0 115.5 -35.5t40.5 -92.5q0 -42 -25 -75.5t-62 -57l-75 -47.5t-68.5 -59.5t-37.5 -80.5h277v-46h-343z" />
    <glyph glyph-name="one.OT" horiz-adv-x="505" 
d="M289 0v428l-168 -83l-20 42l194 99h47v-486h-53z" />
    <glyph glyph-name="zero.OT" horiz-adv-x="505" 
d="M252 -10q-91 0 -145.5 70t-54.5 183q0 112 54.5 181.5t145.5 69.5t145.5 -69.5t54.5 -181.5q0 -113 -54.5 -183t-145.5 -70zM252 38q71 0 107.5 56t36.5 149t-36.5 148t-107.5 55t-107.5 -55t-36.5 -148t36.5 -149t107.5 -56z" />
    <glyph glyph-name="yen.OP" horiz-adv-x="505" 
d="M226 0v98h-123v46h123v63h-123v46h99l-135 257h57l128 -247h1l128 247h57l-135 -257h99v-46h-123v-63h123v-46h-123v-98h-53z" />
    <glyph glyph-name="sterling.OP" horiz-adv-x="505" 
d="M90 0v41q66 40 69 198h-62v46h62v73q0 75 45.5 118t114.5 43q49 0 99 -16l-9 -47q-48 16 -88 16q-45 0 -77 -26t-32 -90v-71h177l-18 -46h-159q-2 -125 -49 -191v-2h61h193v-46h-327z" />
    <glyph glyph-name="dollar.OP" horiz-adv-x="505" 
d="M225 -59v73q-71 3 -125 33l17 43q56 -29 120 -29q50 0 83.5 20t33.5 62q0 35 -25 58.5t-60 37l-70.5 28.5t-60.5 43.5t-25 71.5q0 47 32 79t90 39v70h48v-69q54 -2 100 -21v-50q-53 25 -113 25q-43 0 -73 -16t-30 -52q0 -32 25 -53.5t60.5 -35t70.5 -29t60 -46t25 -75.5
q0 -58 -36.5 -91t-97.5 -41v-75h-49z" />
    <glyph glyph-name="Euro.OP" horiz-adv-x="505" 
d="M426 69l21 -43q-60 -36 -129 -36q-77 0 -131.5 45t-73.5 130h-60v46h54q-2 24 -2 38q0 25 3 49h-55v46h63q23 84 79 129.5t128 45.5q67 0 117 -29v-51q-61 32 -116 32q-52 0 -92 -32.5t-59 -94.5h240l-18 -46h-231q-3 -22 -3 -46q0 -25 2 -41h230l-18 -46h-204
q17 -63 57.5 -95t91.5 -32q55 0 106 31z" />
    <glyph glyph-name="nine.OP" horiz-adv-x="521" 
d="M141 -146q36 14 72 36.5t75 57t68.5 84t40.5 105.5l-2 1q-73 -62 -159 -62q-76 0 -130 52t-54 149t57.5 157t148.5 60q84 0 143.5 -67.5t59.5 -193.5q0 -154 -84.5 -263t-216.5 -161zM241 124q86 0 162 72q2 14 2 40q0 101 -44 155.5t-104 54.5q-68 0 -108.5 -46
t-40.5 -121q0 -71 36 -113t97 -42z" />
    <glyph glyph-name="eight.OP" horiz-adv-x="527" 
d="M258 -10q-97 0 -152.5 47.5t-55.5 128.5q0 66 38.5 111t97.5 63v2q-115 45 -115 153q0 74 53 121.5t140 47.5q88 0 138 -48t50 -118q0 -109 -111 -158v-2q136 -47 136 -168q0 -79 -60.5 -129.5t-158.5 -50.5zM260 38q66 0 113.5 34t47.5 96q0 33 -13 57.5t-41 42
t-54 27.5t-68 22q-58 -16 -98.5 -52t-40.5 -92q0 -66 44 -100.5t110 -34.5zM281 361q48 16 81.5 49.5t33.5 85.5t-36 86t-96 34t-98.5 -31t-38.5 -83q0 -31 12.5 -55t36 -40t47.5 -26.5t58 -19.5z" />
    <glyph glyph-name="seven.OP" horiz-adv-x="434" 
d="M80 -195q31 177 103 343.5t162 291.5h-310l-12 46h389v-26q-212 -304 -272 -636z" />
    <glyph glyph-name="six.OP" horiz-adv-x="521" 
d="M261 -10q-85 0 -143 67.5t-58 203.5q0 156 92.5 269t246.5 144l7 -50q-106 -19 -182.5 -91t-98.5 -187l1 -1q73 62 159 62q78 0 131 -51t53 -147q0 -99 -58 -159t-150 -60zM267 38q65 0 105.5 46.5t40.5 123.5q0 68 -36 109.5t-97 41.5q-85 0 -162 -73q-2 -8 -2 -36
q0 -102 43.5 -157t107.5 -55z" />
    <glyph glyph-name="five.OP" horiz-adv-x="453" 
d="M27 -179l12 47q43 -16 97 -16q91 0 147.5 46t56.5 126q0 74 -47 105q-46 31 -153 31h-50l29 326h304l-12 -46h-243l-21 -234h23q95 0 149 -31q77 -45 77 -147q0 -40 -13 -77.5t-41.5 -71t-82 -54t-124.5 -20.5q-68 0 -108 16z" />
    <glyph glyph-name="four.OP" horiz-adv-x="505" 
d="M30 0v39l306 447h39v-440h96v-46h-96v-177l-53 -18v195h-292zM89 46h82h151v189q0 87 5 157z" />
    <glyph glyph-name="three.OP" horiz-adv-x="489" 
d="M33 -180l12 47q42 -15 105 -15q89 0 147.5 40t58.5 123q0 121 -171 121h-82v45h15q55 0 98 10q124 31 124 138q0 57 -35.5 87.5t-84.5 30.5q-65 0 -149 -44l-20 41q80 50 170 50q78 0 126.5 -45.5t48.5 -113.5q0 -62 -32.5 -103.5t-78.5 -59.5v-2q63 -11 95 -53.5
t32 -102.5q0 -26 -6 -51.5t-24 -55t-46.5 -51.5t-77.5 -36.5t-112 -14.5q-71 0 -113 15z" />
    <glyph glyph-name="two.OP" horiz-adv-x="481" 
d="M62 0q5 53 23.5 95t43.5 68.5t53.5 47.5t56.5 37.5t50.5 32.5t36.5 38t14 49q0 37 -28.5 58t-76.5 21q-75 0 -145 -44l-19 42q73 49 169 49q75 0 115.5 -35.5t40.5 -92.5q0 -42 -25 -75.5t-62 -57l-75 -47.5t-68.5 -59.5t-37.5 -80.5h277v-46h-343z" />
    <glyph glyph-name="one.OP" horiz-adv-x="400" 
d="M214 0v428l-144 -74l-20 42l170 90h47v-486h-53z" />
    <glyph glyph-name="zero.OP" horiz-adv-x="504" 
d="M252 -10q-91 0 -145.5 70t-54.5 183q0 112 54.5 181.5t145.5 69.5t145.5 -69.5t54.5 -181.5q0 -113 -54.5 -183t-145.5 -70zM252 38q71 0 107.5 56t36.5 149t-36.5 148t-107.5 55t-107.5 -55t-36.5 -148t36.5 -149t107.5 -56z" />
    <glyph glyph-name="yen.LT" horiz-adv-x="513" 
d="M230 0v128h-155v46h155v89h-155v46h135l-168 350h57l157 -337h1l157 337h57l-168 -350h135v-46h-155v-89h155v-46h-155v-128h-53z" />
    <glyph glyph-name="sterling.LT" horiz-adv-x="513" 
d="M72 0v43q52 31 72 110t20 162h-82v46h82v98q0 62 18.5 105.5t48.5 63.5t57 28t56 8q45 0 99 -16l-10 -45q-48 14 -85 14q-55 0 -93 -36.5t-38 -124.5v-95h192l-18 -46h-174q0 -189 -73 -267v-2h87h211v-46h-370z" />
    <glyph glyph-name="five.OT" horiz-adv-x="505" 
d="M47 -179l12 47q43 -16 97 -16q91 0 147.5 46t56.5 126q0 74 -47 105q-46 31 -153 31h-50l29 326h304l-12 -46h-243l-21 -234h23q95 0 149 -31q77 -45 77 -147q0 -40 -13 -77.5t-41.5 -71t-82 -54t-124.5 -20.5q-68 0 -108 16z" />
    <glyph glyph-name="six.OT" horiz-adv-x="505" 
d="M257 -10q-85 0 -143 67.5t-58 203.5q0 156 92.5 269t246.5 144l7 -50q-106 -19 -182.5 -91t-98.5 -187l1 -1q73 62 159 62q78 0 131 -51t53 -147q0 -99 -58 -159t-150 -60zM263 38q65 0 105.5 46.5t40.5 123.5q0 68 -36 109.5t-97 41.5q-85 0 -162 -73q-2 -8 -2 -36
q0 -102 43.5 -157t107.5 -55z" />
    <glyph glyph-name="seven.OT" horiz-adv-x="505" 
d="M131 -195q31 177 103 343.5t162 291.5h-310l-12 46h389v-26q-212 -304 -272 -636z" />
    <glyph glyph-name="eight.OT" horiz-adv-x="505" 
d="M250 -10q-97 0 -152.5 47.5t-55.5 128.5q0 66 38.5 111t97.5 63v2q-115 45 -115 153q0 74 53 121.5t140 47.5q88 0 138 -48t50 -118q0 -109 -111 -158v-2q136 -47 136 -168q0 -79 -60.5 -129.5t-158.5 -50.5zM252 38q66 0 113.5 34t47.5 96q0 33 -13 57.5t-41 42
t-54 27.5t-68 22q-58 -16 -98.5 -52t-40.5 -92q0 -66 44 -100.5t110 -34.5zM273 361q48 16 81.5 49.5t33.5 85.5t-36 86t-96 34t-98.5 -31t-38.5 -83q0 -31 12.5 -55t36 -40t47.5 -26.5t58 -19.5z" />
    <glyph glyph-name="nine.OT" horiz-adv-x="505" 
d="M129 -146q36 14 72 36.5t75 57t68.5 84t40.5 105.5l-2 1q-73 -62 -159 -62q-76 0 -130 52t-54 149t57.5 157t148.5 60q84 0 143.5 -67.5t59.5 -193.5q0 -154 -84.5 -263t-216.5 -161zM229 124q86 0 162 72q2 14 2 40q0 101 -44 155.5t-104 54.5q-68 0 -108.5 -46
t-40.5 -121q0 -71 36 -113t97 -42z" />
    <glyph glyph-name="Euro.OT" horiz-adv-x="505" 
d="M426 69l21 -43q-60 -36 -129 -36q-77 0 -131.5 45t-73.5 130h-60v46h54q-2 24 -2 38q0 25 3 49h-55v46h63q23 84 79 129.5t128 45.5q67 0 117 -29v-51q-61 32 -116 32q-52 0 -92 -32.5t-59 -94.5h240l-18 -46h-231q-3 -22 -3 -46q0 -25 2 -41h230l-18 -46h-204
q17 -63 57.5 -95t91.5 -32q55 0 106 31z" />
    <glyph glyph-name="dollar.OT" horiz-adv-x="505" 
d="M225 -59v73q-71 3 -125 33l17 43q56 -29 120 -29q50 0 83.5 20t33.5 62q0 35 -25 58.5t-60 37l-70.5 28.5t-60.5 43.5t-25 71.5q0 47 32 79t90 39v70h48v-69q54 -2 100 -21v-50q-53 25 -113 25q-43 0 -73 -16t-30 -52q0 -32 25 -53.5t60.5 -35t70.5 -29t60 -46t25 -75.5
q0 -58 -36.5 -91t-97.5 -41v-75h-49z" />
    <glyph glyph-name="sterling.OT" horiz-adv-x="505" 
d="M90 0v41q66 40 69 198h-62v46h62v73q0 75 45.5 118t114.5 43q49 0 99 -16l-9 -47q-48 16 -88 16q-45 0 -77 -26t-32 -90v-71h177l-18 -46h-159q-2 -125 -49 -191v-2h61h193v-46h-327z" />
    <glyph glyph-name="yen.OT" horiz-adv-x="505" 
d="M226 0v98h-123v46h123v63h-123v46h99l-135 257h57l128 -247h1l128 247h57l-135 -257h99v-46h-123v-63h123v-46h-123v-98h-53z" />
    <glyph glyph-name="zero.small" horiz-adv-x="451" 
d="M223 -10q-80 0 -130.5 73.5t-50.5 201.5t50.5 201.5t130.5 73.5t130.5 -73.5t50.5 -201.5t-50.5 -201.5t-130.5 -73.5zM223 38q57 0 91 61t34 166t-34 166t-91 61t-91 -61t-34 -166t34 -166t91 -61z" />
    <glyph glyph-name="one.small" horiz-adv-x="327" 
d="M172 0v475l-125 -64l-20 44l155 79h43v-534h-53z" />
    <glyph glyph-name="two.small" horiz-adv-x="407" 
d="M349 0h-315q8 81 38 140t67 90t73 55.5t60.5 53.5t24.5 67q0 42 -27.5 64t-70.5 22q-69 0 -129 -37l-20 43q71 42 148 42q74 0 114.5 -38t40.5 -95q0 -46 -23 -79.5t-57 -57l-69.5 -49t-66.5 -70t-41 -105.5h253v-46z" />
    <glyph glyph-name="three.small" horiz-adv-x="426" 
d="M260 275v-2q47 -13 73 -46t26 -78q0 -68 -50.5 -113.5t-148.5 -45.5q-69 0 -133 27l15 46q57 -25 120 -25q67 0 104 30t37 80q0 99 -137 99h-72v48h65q130 0 130 103q0 42 -25 68t-75 26q-65 0 -130 -37l-19 43q73 42 150 42q74 0 114.5 -40t40.5 -99q0 -88 -85 -126z
" />
    <glyph glyph-name="four.small" horiz-adv-x="439" 
d="M40 143v41l254 350h37v-345h78v-46h-78v-143h-53v143h-238zM280 440l-182 -251h71h109v145q0 72 2 106z" />
    <glyph glyph-name="five.small" horiz-adv-x="412" 
d="M39 12l16 45q47 -19 98 -19q63 0 101.5 30.5t38.5 87.5q0 78 -74 100q-31 9 -84 9h-61v265h275l-12 -46h-210v-172h20q57 0 97 -12q105 -32 105 -144q0 -73 -51 -119.5t-148 -46.5q-58 0 -111 22z" />
    <glyph glyph-name="six.small" horiz-adv-x="432" 
d="M229 -10q-92 0 -139.5 71.5t-47.5 181.5q0 126 61.5 211.5t164.5 85.5q51 0 97 -19l-18 -45q-35 16 -77 16q-68 0 -116 -55t-55 -145q64 37 130 37q73 0 119.5 -44.5t46.5 -123.5q0 -78 -46.5 -124.5t-119.5 -46.5zM228 38q52 0 81.5 31.5t29.5 90.5q0 55 -31 88t-80 33
q-65 0 -130 -42q-1 -33 5 -66t20 -64.5t41 -51t64 -19.5z" />
    <glyph glyph-name="seven.small" horiz-adv-x="377" 
d="M123 0h-54q45 249 211 484h-248l-12 46h328v-27q-177 -243 -225 -503z" />
    <glyph glyph-name="eight.small" horiz-adv-x="447" 
d="M294 275v-2q108 -37 108 -133q0 -65 -51.5 -107.5t-131.5 -42.5q-79 0 -126.5 40t-47.5 105q0 99 107 141v2q-90 39 -90 123q0 60 45 99.5t117 39.5q74 0 115.5 -40.5t41.5 -98.5q0 -81 -87 -126zM221 38q50 0 88 26.5t38 73.5q0 46 -36 72.5t-99 43.5q-46 -15 -79 -43
t-33 -72q0 -49 34 -75t87 -26zM117 403q0 -44 31 -68t84 -38q38 10 66 37t28 66t-28.5 65.5t-74.5 26.5q-44 0 -75 -23.5t-31 -65.5z" />
    <glyph glyph-name="nine.small" horiz-adv-x="427" 
d="M51 13l17 46q48 -21 94 -21q74 0 117.5 56t50.5 156q-56 -49 -129 -49q-64 0 -113 41.5t-49 124.5q0 75 46 124t119 49q85 0 133 -65.5t48 -187.5q0 -133 -58.5 -215t-165.5 -82q-60 0 -110 23zM207 249q76 0 122 61q0 83 -34.5 132.5t-91.5 49.5q-50 0 -79 -34.5
t-29 -86.5q0 -56 29 -89t83 -33z" />
    <glyph glyph-name="Euro.small" horiz-adv-x="426" 
d="M384 67l22 -41q-60 -36 -127 -36q-76 0 -129.5 47.5t-71.5 135.5h-59v46h53q-5 45 1 89h-54v46h61q21 90 77 138t124 48q64 0 111 -28v-49q-55 29 -108 29q-50 0 -90 -34.5t-57 -103.5h229l-18 -46h-219q-5 -49 0 -89h215l-18 -46h-190q32 -135 143 -135q54 0 105 29z
" />
    <glyph glyph-name="dollar.small" horiz-adv-x="426" 
d="M179 -62v77q-63 4 -117 36l23 42q51 -32 108 -32q43 0 72 19t29 60q0 33 -23 59t-55 44l-64.5 36.5t-55.5 48.5t-23 70q0 46 31 80t85 41v73h49v-72q55 -4 90 -21v-49q-48 24 -107 24q-41 0 -67.5 -19t-26.5 -55q0 -29 23 -53t55.5 -42.5t65 -39t55.5 -51.5t23 -71
q0 -53 -31.5 -85t-89.5 -42v-78h-49z" />
    <glyph glyph-name="sterling.small" horiz-adv-x="426" 
d="M56 0v42q75 44 75 207h-67v46h67v78q0 79 40 123t111 44q41 0 86 -15l-10 -44q-39 12 -73 12q-50 0 -76 -31t-26 -89v-78h158l-18 -46h-140q0 -136 -58 -201v-2h75h167v-46h-311z" />
    <glyph glyph-name="yen.small" horiz-adv-x="426" 
d="M210 271h2l124 259h56l-137 -276h109v-46h-127v-64h127v-46h-127v-98h-53v98h-126v46h126v64h-126v46h108l-136 276h55z" />
    <glyph glyph-name="six.LT" horiz-adv-x="513" 
d="M273 -10q-96 0 -158.5 79.5t-62.5 231.5t74.5 257.5t199.5 105.5q57 0 108 -23l-16 -46q-43 21 -92 21q-87 0 -146.5 -71.5t-69.5 -192.5q84 52 167 52q86 0 141 -53t55 -149q0 -98 -55.5 -155t-144.5 -57zM271 38q69 0 107.5 41.5t38.5 119.5q0 72 -39.5 114.5
t-102.5 42.5q-82 0 -166 -58q-2 -114 42 -187t120 -73z" />
    <glyph glyph-name="seven.LT" horiz-adv-x="513" 
d="M148 0q57 325 262 613h-309l-12 46h389v-26q-218 -311 -274 -633h-56z" />
    <glyph glyph-name="eight.LT" horiz-adv-x="513" 
d="M263 -10q-97 0 -152.5 47.5t-55.5 128.5q0 66 38.5 111t97.5 63v2q-115 45 -115 153q0 74 53 121.5t140 47.5q88 0 138 -48t50 -118q0 -109 -111 -158v-2q136 -47 136 -168q0 -79 -60.5 -129.5t-158.5 -50.5zM265 38q66 0 113.5 34t47.5 96q0 33 -13 57.5t-41 42
t-54 27.5t-68 22q-58 -16 -98.5 -52t-40.5 -92q0 -66 44 -100.5t110 -34.5zM286 361q48 16 81.5 49.5t33.5 85.5t-36 86t-96 34t-98.5 -31t-38.5 -83q0 -31 12.5 -55t36 -40t47.5 -26.5t58 -19.5z" />
    <glyph glyph-name="nine.LT" horiz-adv-x="513" 
d="M197 -10q-67 0 -128 24l15 47q56 -23 116 -23q94 0 149.5 72.5t61.5 204.5h-2q-72 -65 -164 -65q-77 0 -135.5 50t-58.5 152q0 92 55 152t142 60q102 0 159.5 -80t57.5 -231q0 -168 -69.5 -265.5t-198.5 -97.5zM254 298q45 0 87.5 23.5t66.5 57.5q0 109 -43.5 173.5
t-117.5 64.5q-64 0 -102 -46t-38 -115q0 -73 38 -115.5t109 -42.5z" />
    <glyph glyph-name="Euro.LT" horiz-adv-x="513" 
d="M467 75l22 -43q-67 -42 -148 -42q-105 0 -165.5 61.5t-78.5 166.5h-71v46h65q-2 36 -2 57q0 38 4 69h-67v46h75q23 103 86 165.5t156 62.5q73 0 131 -35v-55q-71 38 -127 38q-75 0 -123 -47.5t-67 -128.5h282l-18 -46h-272q-4 -28 -4 -65q0 -31 3 -61h264l-18 -46h-238
q18 -81 64 -130.5t121 -49.5q61 0 126 37z" />
    <glyph glyph-name="dollar.LT" horiz-adv-x="513" 
d="M223 -78v96q-80 4 -142 43l23 42q57 -38 131 -38q51 0 90.5 25t39.5 78q0 43 -28 77t-68 57l-80 47t-68 62t-28 87q0 57 38 99t105 49v92h49v-91q65 -6 110 -26v-49q-56 29 -126 29q-53 0 -87 -25.5t-34 -75.5q0 -33 20 -61.5t50.5 -46.5l65.5 -40.5t65.5 -44.5t50.5 -57
t20 -79q0 -61 -38.5 -100.5t-109.5 -51.5v-97h-49z" />
    <glyph glyph-name="plusinferior" horiz-adv-x="419" 
d="M187 -151v140h-132v44h132v136h45v-136h132v-44h-132v-140h-45z" />
    <glyph glyph-name="minusinferior" horiz-adv-x="419" 
d="M55 -11v44h309v-44h-309z" />
    <glyph glyph-name="equalinferior" horiz-adv-x="419" 
d="M55 -72v44h309v-44h-309zM55 50v44h309v-44h-309z" />
    <glyph glyph-name="five.LT" horiz-adv-x="513" 
d="M68 14l15 46q49 -22 116 -22q79 0 129.5 40.5t50.5 115.5q0 96 -90 130q-37 14 -112 14h-68v321h324l-12 -46h-259v-228h26q73 0 115 -13q132 -41 132 -178q0 -91 -61 -147.5t-180 -56.5q-73 0 -126 24z" />
    <glyph glyph-name="four.LT" horiz-adv-x="513" 
d="M51 181v44l304 439h37v-437h90v-46h-90v-181h-53v181h-288zM108 227h79h152v187q0 87 5 157z" />
    <glyph glyph-name="three.LT" horiz-adv-x="513" 
d="M56 20l15 46q64 -28 139 -28q76 0 129 36.5t53 108.5q0 97 -105 120q-32 7 -87 7h-65v48h57q183 0 183 136q0 56 -32.5 89t-96.5 33q-79 0 -156 -44l-19 43q85 49 176 49q88 0 135.5 -47.5t47.5 -119.5q0 -114 -109 -157v-2q59 -12 93 -51.5t34 -102.5q0 -84 -62 -139
t-181 -55q-81 0 -149 30z" />
    <glyph glyph-name="two.LT" horiz-adv-x="513" 
d="M61 0q6 72 27.5 130.5t50 95.5t62.5 67.5t66 53t58.5 45t43 51t16.5 63.5q0 55 -35 82.5t-90 27.5q-84 0 -157 -44l-19 43q78 49 176 49q88 0 134.5 -44.5t46.5 -113.5q0 -42 -15.5 -75.5t-41 -57.5t-56.5 -46t-63.5 -47.5t-61 -55.5t-50 -75.5t-28.5 -102.5h312v-46
h-376z" />
    <glyph glyph-name="Amacron.small" horiz-adv-x="470" 
d="M118 611v46h232v-46h-232zM14 0l206 534h30l206 -534h-56l-52 138h-227l-51 -138h-56zM138 184h193l-60 162l-35 96h-2l-36 -97z" />
    <glyph glyph-name="Ccircumflex.small" horiz-adv-x="474" 
d="M428 74l18 -42q-66 -42 -149 -42q-112 0 -181.5 74.5t-69.5 192.5q0 123 74 203t188 80q64 0 126 -29v-49q-58 30 -122 30q-90 0 -150 -64t-60 -166q0 -103 54.5 -163.5t139.5 -60.5q73 0 132 36zM153 566l98 147h57l98 -147h-50l-76 109l-77 -109h-50z" />
    <glyph glyph-name="Abreve.small" horiz-adv-x="470" 
d="M310 695h41q-4 -52 -35 -83t-83 -31q-51 0 -80.5 30.5t-33.5 83.5h41q12 -71 75 -71t75 71zM14 0l206 534h30l206 -534h-56l-52 138h-227l-51 -138h-56zM138 184h193l-60 162l-35 96h-2l-36 -97z" />
    <glyph glyph-name="Ccaron.small" horiz-adv-x="474" 
d="M250 567l-98 147h51l77 -109l76 109h49l-98 -147h-57zM428 74l18 -42q-66 -42 -149 -42q-112 0 -181.5 74.5t-69.5 192.5q0 123 74 203t188 80q64 0 126 -29v-49q-58 30 -122 30q-90 0 -150 -64t-60 -166q0 -103 54.5 -163.5t139.5 -60.5q73 0 132 36z" />
    <glyph glyph-name="Cdotaccent.small" horiz-adv-x="474" 
d="M428 74l18 -42q-66 -42 -149 -42q-112 0 -181.5 74.5t-69.5 192.5q0 123 74 203t188 80q64 0 126 -29v-49q-58 30 -122 30q-90 0 -150 -64t-60 -166q0 -103 54.5 -163.5t139.5 -60.5q73 0 132 36zM284 618q-17 0 -27.5 11.5t-10.5 28.5t10.5 28.5t27.5 11.5
q18 0 28.5 -11t10.5 -29t-11 -29t-28 -11z" />
    <glyph glyph-name="Ccedilla.small" horiz-adv-x="474" 
d="M194 -200l12 38q25 -11 51 -11q55 0 55 42q0 14 -7 22.5t-21.5 12t-26.5 4.5t-32 1l26 85q-94 15 -149.5 86.5t-55.5 176.5q0 123 74 203t188 80q64 0 126 -29v-49q-58 30 -122 30q-90 0 -150 -64t-60 -166q0 -103 54.5 -163.5t139.5 -60.5q73 0 132 36l18 -42
q-66 -42 -149 -42l-15 -46q33 -2 56.5 -19t23.5 -53q0 -40 -30 -62t-75 -22q-32 0 -63 12z" />
    <glyph glyph-name="Dcaron.small" horiz-adv-x="544" 
d="M228 567l-98 147h51l77 -109l76 109h49l-98 -147h-57zM89 0v530h129q140 0 210 -69t70 -193q0 -123 -72.5 -195.5t-206.5 -72.5h-130zM142 46h82q111 0 164.5 61.5t53.5 162.5t-55 157.5t-166 56.5h-79v-438z" />
    <glyph glyph-name="Dcroat.small" horiz-adv-x="544" 
d="M89 0v246h-75v46h75v238h129q140 0 210 -69t70 -193q0 -123 -72.5 -195.5t-206.5 -72.5h-130zM142 46h82q111 0 164.5 61.5t53.5 162.5t-55 157.5t-166 56.5h-79v-192h148v-46h-148v-200z" />
    <glyph glyph-name="Egrave.small" horiz-adv-x="427" 
d="M209 566l-81 147h67l58 -147h-44zM89 0v530h283l-20 -46h-210v-192h204v-46h-204v-200h221v-46h-274z" />
    <glyph glyph-name="Eacute.small" horiz-adv-x="427" 
d="M194 566l59 147h63l-80 -147h-42zM89 0v530h283l-20 -46h-210v-192h204v-46h-204v-200h221v-46h-274z" />
    <glyph glyph-name="Ecircumflex.small" horiz-adv-x="427" 
d="M89 0v530h283l-20 -46h-210v-192h204v-46h-204v-200h221v-46h-274zM99 566l98 147h57l98 -147h-50l-76 109l-77 -109h-50z" />
    <glyph glyph-name="Ecaron.small" horiz-adv-x="427" 
d="M193 567l-98 147h51l77 -109l76 109h49l-98 -147h-57zM89 0v530h283l-20 -46h-210v-192h204v-46h-204v-200h221v-46h-274z" />
    <glyph glyph-name="Edieresis.small" horiz-adv-x="427" 
d="M89 0v530h283l-20 -46h-210v-192h204v-46h-204v-200h221v-46h-274zM139 593q-15 0 -25.5 10.5t-10.5 25.5t10.5 25.5t25.5 10.5t25.5 -10.5t10.5 -25.5t-10.5 -25.5t-25.5 -10.5zM311 593q-15 0 -25.5 10.5t-10.5 25.5t10.5 25.5t25.5 10.5t25.5 -10.5t10.5 -25.5
t-10.5 -25.5t-25.5 -10.5z" />
    <glyph glyph-name="Emacron.small" horiz-adv-x="427" 
d="M111 611v46h232v-46h-232zM89 0v530h283l-20 -46h-210v-192h204v-46h-204v-200h221v-46h-274z" />
    <glyph glyph-name="Aring.small" horiz-adv-x="470" 
d="M70 0h-56l205 532q-36 5 -58.5 30.5t-22.5 63.5q0 42 27 68t70 26t70 -26t27 -68q0 -38 -22.5 -63.5t-58.5 -30.5l205 -532h-56l-52 138h-227zM236 442h-2l-36 -97l-60 -161h193l-60 162zM235 568q24 0 38.5 16t14.5 42t-14.5 42t-38.5 16t-38.5 -16t-14.5 -42t14.5 -42
t38.5 -16z" />
    <glyph glyph-name="Ebreve.small" horiz-adv-x="427" 
d="M301 695h41q-4 -52 -35 -83t-83 -31q-51 0 -80.5 30.5t-33.5 83.5h41q12 -71 75 -71t75 71zM89 0v530h283l-20 -46h-210v-192h204v-46h-204v-200h221v-46h-274z" />
    <glyph glyph-name="Aringacute.small" horiz-adv-x="470" 
d="M14 0l205 532q-36 5 -58.5 30.5t-22.5 63.5q0 41 25.5 66.5t65.5 27.5l47 123h67l-73 -129q28 -9 45 -32.5t17 -55.5q0 -38 -22.5 -63.5t-58.5 -30.5l205 -532h-56l-52 138h-227l-51 -138h-56zM138 184h193l-60 162l-35 96h-2l-36 -97zM182 626q0 -26 14.5 -42t38.5 -16
t38.5 16t14.5 42t-14.5 42t-38.5 16t-38.5 -16t-14.5 -42z" />
    <glyph glyph-name="Aogonek.small" horiz-adv-x="470" 
d="M14 0l206 534h30l206 -534q-50 -24 -81.5 -57t-31.5 -69q0 -44 40 -44q15 0 39 8l9 -40q-29 -10 -54 -10q-40 0 -62 23t-22 55q0 34 20.5 66t38 46t44.5 32l-48 128h-227l-51 -138h-56zM138 184h193l-60 162l-35 96h-2l-36 -97z" />
    <glyph glyph-name="Edotaccent.small" horiz-adv-x="427" 
d="M89 0v530h283l-20 -46h-210v-192h204v-46h-204v-200h221v-46h-274zM223 618q-17 0 -27.5 11.5t-10.5 28.5t10.5 28.5t27.5 11.5q18 0 28.5 -11t10.5 -29t-11 -29t-28 -11z" />
    <glyph glyph-name="Eogonek.small" horiz-adv-x="427" 
d="M363 0h-18q-48 -24 -79.5 -57t-31.5 -69q0 -44 40 -44q15 0 39 8l9 -40q-29 -10 -54 -10q-40 0 -62 23t-22 55q0 77 90 134h-185v530h283l-20 -46h-210v-192h204v-46h-204v-200h221v-46z" />
    <glyph glyph-name="Gcircumflex.small" horiz-adv-x="542" 
d="M463 248v-225q-68 -33 -154 -33q-115 0 -189 75.5t-74 193.5q0 121 74 201t200 80q70 0 130 -28v-49q-58 29 -127 29q-106 0 -163.5 -67t-57.5 -160q0 -105 58.5 -166t146.5 -61q56 0 103 16v194h53zM160 566l98 147h57l98 -147h-50l-76 109l-77 -109h-50z" />
    <glyph glyph-name="Gbreve.small" horiz-adv-x="542" 
d="M360 695h41q-4 -52 -35 -83t-83 -31q-51 0 -80.5 30.5t-33.5 83.5h41q12 -71 75 -71t75 71zM463 248v-225q-68 -33 -154 -33q-115 0 -189 75.5t-74 193.5q0 121 74 201t200 80q70 0 130 -28v-49q-58 29 -127 29q-106 0 -163.5 -67t-57.5 -160q0 -105 58.5 -166t146.5 -61
q56 0 103 16v194h53z" />
    <glyph glyph-name="Gdotaccent.small" horiz-adv-x="542" 
d="M463 248v-225q-68 -33 -154 -33q-115 0 -189 75.5t-74 193.5q0 121 74 201t200 80q70 0 130 -28v-49q-58 29 -127 29q-106 0 -163.5 -67t-57.5 -160q0 -105 58.5 -166t146.5 -61q56 0 103 16v194h53zM292 618q-17 0 -27.5 11.5t-10.5 28.5t10.5 28.5t27.5 11.5
q18 0 28.5 -11t10.5 -29t-11 -29t-28 -11z" />
    <glyph glyph-name="Gcommaaccent.small" horiz-adv-x="542" 
d="M463 248v-225q-68 -33 -154 -33q-115 0 -189 75.5t-74 193.5q0 121 74 201t200 80q70 0 130 -28v-49q-58 29 -127 29q-106 0 -163.5 -67t-57.5 -160q0 -105 58.5 -166t146.5 -61q56 0 103 16v194h53zM237 -237l-17 37q71 22 71 76q0 31 -26 72h51q25 -30 25 -74
q0 -80 -104 -111z" />
    <glyph glyph-name="Hcircumflex.small" horiz-adv-x="579" 
d="M89 0v530h53v-238h295v238h53v-530h-53v246h-295v-246h-53zM164 566l98 147h57l98 -147h-50l-76 109l-77 -109h-50z" />
    <glyph glyph-name="Hbar.small" horiz-adv-x="579" 
d="M89 0v385h-53v46h53v99h53v-99h295v99h53v-99h53v-46h-53v-385h-53v246h-295v-246h-53zM142 292h295v93h-295v-93z" />
    <glyph glyph-name="Igrave.small" horiz-adv-x="231" 
d="M105 566l-81 147h67l58 -147h-44zM89 0v530h53v-530h-53z" />
    <glyph glyph-name="Iacute.small" horiz-adv-x="231" 
d="M82 566l59 147h63l-80 -147h-42zM89 0v530h53v-530h-53z" />
    <glyph glyph-name="Icircumflex.small" horiz-adv-x="231" 
d="M89 0v530h53v-530h-53zM-12 566l98 147h57l98 -147h-50l-76 109l-77 -109h-50z" />
    <glyph glyph-name="Itilde.small" horiz-adv-x="231" 
d="M-15 592v15q0 33 19 53.5t47 20.5q29 0 70 -25t56 -25q29 0 29 44h41v-15q0 -33 -19 -53.5t-47 -20.5t-69.5 25t-56.5 25q-29 0 -29 -44h-41zM89 0v530h53v-530h-53z" />
    <glyph glyph-name="AE.small" horiz-adv-x="695" 
d="M14 0l277 530h349l-20 -46h-287l44 -192h237v-46h-227l46 -200h198v-46h-237l-31 138h-224l-71 -138h-54zM163 184h189l-36 163q-15 68 -19 96h-2q-27 -58 -48 -97z" />
    <glyph glyph-name="Idieresis.small" horiz-adv-x="231" 
d="M89 0v530h53v-530h-53zM29 593q-15 0 -25.5 10.5t-10.5 25.5t10.5 25.5t25.5 10.5t25.5 -10.5t10.5 -25.5t-10.5 -25.5t-25.5 -10.5zM201 593q-15 0 -25.5 10.5t-10.5 25.5t10.5 25.5t25.5 10.5t25.5 -10.5t10.5 -25.5t-10.5 -25.5t-25.5 -10.5z" />
    <glyph glyph-name="Imacron.small" horiz-adv-x="231" 
d="M0 611v46h232v-46h-232zM89 0v530h53v-530h-53z" />
    <glyph glyph-name="AEacute.small" horiz-adv-x="695" 
d="M367 566l59 147h63l-80 -147h-42zM14 0l277 530h349l-20 -46h-287l44 -192h237v-46h-227l46 -200h198v-46h-237l-31 138h-224l-71 -138h-54zM163 184h189l-36 163q-15 68 -19 96h-2q-27 -58 -48 -97z" />
    <glyph glyph-name="Ibreve.small" horiz-adv-x="231" 
d="M190 695h41q-4 -52 -35 -83t-83 -31q-51 0 -80.5 30.5t-33.5 83.5h41q12 -71 75 -71t75 71zM89 0v530h53v-530h-53z" />
    <glyph glyph-name="Iogonek.small" horiz-adv-x="231" 
d="M89 7v523h53v-530q-33 -24 -52.5 -56t-19.5 -63q0 -51 42 -51q15 0 37 8l9 -40q-29 -10 -54 -10q-41 0 -62.5 23t-21.5 61q0 70 69 135z" />
    <glyph glyph-name="IJ.small" horiz-adv-x="481" 
d="M89 0v530h53v-530h-53zM211 -112l9 46q20 -5 37 -5q49 0 65.5 28.5t16.5 83.5v489h53v-501q0 -148 -134 -148q-27 0 -47 7z" />
    <glyph glyph-name="Jcircumflex.small" horiz-adv-x="250" 
d="M-20 -112l9 46q20 -5 37 -5q49 0 65.5 28.5t16.5 83.5v489h53v-501q0 -148 -134 -148q-27 0 -47 7zM7 566l98 147h57l98 -147h-50l-76 109l-77 -109h-50z" />
    <glyph glyph-name="Kcommaaccent.small" horiz-adv-x="444" 
d="M89 0v530h53v-256h2l207 256h59l-216 -268l241 -262h-67l-224 243h-2v-243h-53zM192 -237l-17 37q71 22 71 76q0 31 -26 72h51q25 -30 25 -74q0 -80 -104 -111z" />
    <glyph glyph-name="Lacute.small" 
d="M89 566l59 147h63l-80 -147h-42zM89 0v530h53v-484h212v-46h-265z" />
    <glyph glyph-name="Lcaron.small" 
d="M89 0v530h53v-484h212v-46h-265zM225 373l36 195h56l-51 -195h-41z" />
    <glyph glyph-name="Lcommaaccent.small" 
d="M89 0v530h53v-484h212v-46h-265zM164 -237l-17 37q71 22 71 76q0 31 -26 72h51q25 -30 25 -74q0 -80 -104 -111z" />
    <glyph glyph-name="Lslash.small" 
d="M142 297l120 71v-50l-120 -72v-200h212v-46h-265v218l-48 -30v50l48 29v263h53v-233z" />
    <glyph glyph-name="Ldot.small" 
d="M295 234q-16 0 -27.5 12t-11.5 29t11.5 29t27.5 12t27.5 -12t11.5 -29t-11.5 -29t-27.5 -12zM89 0v530h53v-484h212v-46h-265z" />
    <glyph glyph-name="Nacute.small" horiz-adv-x="621" 
d="M281 566l59 147h63l-80 -147h-42zM479 85h2q-2 56 -2 112v333h53v-530h-44l-258 328q-55 69 -88 119h-1q1 -30 1 -113v-334h-53v530h47l256 -326q49 -61 87 -119z" />
    <glyph glyph-name="Ncaron.small" horiz-adv-x="621" 
d="M279 567l-98 147h51l77 -109l76 109h49l-98 -147h-57zM479 85h2q-2 56 -2 112v333h53v-530h-44l-258 328q-55 69 -88 119h-1q1 -30 1 -113v-334h-53v530h47l256 -326q49 -61 87 -119z" />
    <glyph glyph-name="Cacute.small" horiz-adv-x="474" 
d="M256 566l59 147h63l-80 -147h-42zM428 74l18 -42q-66 -42 -149 -42q-112 0 -181.5 74.5t-69.5 192.5q0 123 74 203t188 80q64 0 126 -29v-49q-58 30 -122 30q-90 0 -150 -64t-60 -166q0 -103 54.5 -163.5t139.5 -60.5q73 0 132 36z" />
    <glyph glyph-name="Ntilde.small" horiz-adv-x="621" 
d="M180 592v15q0 33 19 53.5t47 20.5q29 0 70 -25t56 -25q29 0 29 44h41v-15q0 -33 -19 -53.5t-47 -20.5t-69.5 25t-56.5 25q-29 0 -29 -44h-41zM479 85h2q-2 56 -2 112v333h53v-530h-44l-258 328q-55 69 -88 119h-1q1 -30 1 -113v-334h-53v530h47l256 -326q49 -61 87 -119z
" />
    <glyph glyph-name="Ncommaaccent.small" horiz-adv-x="621" 
d="M479 85h2q-2 56 -2 112v333h53v-530h-44l-258 328q-55 69 -88 119h-1q1 -30 1 -113v-334h-53v530h47l256 -326q49 -61 87 -119zM254 -237l-17 37q71 22 71 76q0 31 -26 72h51q25 -30 25 -74q0 -80 -104 -111z" />
    <glyph glyph-name="Ograve.small" horiz-adv-x="606" 
d="M283 566l-81 147h67l58 -147h-44zM303 38q86 0 143.5 63t57.5 164t-57.5 164t-143.5 63t-143.5 -63t-57.5 -164t57.5 -164t143.5 -63zM303 540q109 0 183 -78t74 -197t-74.5 -197t-182.5 -78t-182.5 78t-74.5 197t74 197t183 78z" />
    <glyph glyph-name="Oacute.small" horiz-adv-x="606" 
d="M281 566l59 147h63l-80 -147h-42zM303 38q86 0 143.5 63t57.5 164t-57.5 164t-143.5 63t-143.5 -63t-57.5 -164t57.5 -164t143.5 -63zM303 540q109 0 183 -78t74 -197t-74.5 -197t-182.5 -78t-182.5 78t-74.5 197t74 197t183 78z" />
    <glyph glyph-name="Ocircumflex.small" horiz-adv-x="606" 
d="M303 38q86 0 143.5 63t57.5 164t-57.5 164t-143.5 63t-143.5 -63t-57.5 -164t57.5 -164t143.5 -63zM303 540q109 0 183 -78t74 -197t-74.5 -197t-182.5 -78t-182.5 78t-74.5 197t74 197t183 78zM176 566l98 147h57l98 -147h-50l-76 109l-77 -109h-50z" />
    <glyph glyph-name="Otilde.small" horiz-adv-x="606" 
d="M171 592v15q0 33 19 53.5t47 20.5q29 0 70 -25t56 -25q29 0 29 44h41v-15q0 -33 -19 -53.5t-47 -20.5t-69.5 25t-56.5 25q-29 0 -29 -44h-41zM303 38q86 0 143.5 63t57.5 164t-57.5 164t-143.5 63t-143.5 -63t-57.5 -164t57.5 -164t143.5 -63zM303 540q109 0 183 -78
t74 -197t-74.5 -197t-182.5 -78t-182.5 78t-74.5 197t74 197t183 78z" />
    <glyph glyph-name="Odieresis.small" horiz-adv-x="606" 
d="M303 38q86 0 143.5 63t57.5 164t-57.5 164t-143.5 63t-143.5 -63t-57.5 -164t57.5 -164t143.5 -63zM303 540q109 0 183 -78t74 -197t-74.5 -197t-182.5 -78t-182.5 78t-74.5 197t74 197t183 78zM215 593q-15 0 -25.5 10.5t-10.5 25.5t10.5 25.5t25.5 10.5t25.5 -10.5
t10.5 -25.5t-10.5 -25.5t-25.5 -10.5zM387 593q-15 0 -25.5 10.5t-10.5 25.5t10.5 25.5t25.5 10.5t25.5 -10.5t10.5 -25.5t-10.5 -25.5t-25.5 -10.5z" />
    <glyph glyph-name="Omacron.small" horiz-adv-x="606" 
d="M188 611v46h232v-46h-232zM303 38q86 0 143.5 63t57.5 164t-57.5 164t-143.5 63t-143.5 -63t-57.5 -164t57.5 -164t143.5 -63zM303 540q109 0 183 -78t74 -197t-74.5 -197t-182.5 -78t-182.5 78t-74.5 197t74 197t183 78z" />
    <glyph glyph-name="Obreve.small" horiz-adv-x="606" 
d="M375 695h41q-4 -52 -35 -83t-83 -31q-51 0 -80.5 30.5t-33.5 83.5h41q12 -71 75 -71t75 71zM303 38q86 0 143.5 63t57.5 164t-57.5 164t-143.5 63t-143.5 -63t-57.5 -164t57.5 -164t143.5 -63zM303 540q109 0 183 -78t74 -197t-74.5 -197t-182.5 -78t-182.5 78t-74.5 197
t74 197t183 78z" />
    <glyph glyph-name="Ohungarumlaut.small" horiz-adv-x="606" 
d="M303 38q86 0 143.5 63t57.5 164t-57.5 164t-143.5 63t-143.5 -63t-57.5 -164t57.5 -164t143.5 -63zM303 540q109 0 183 -78t74 -197t-74.5 -197t-182.5 -78t-182.5 78t-74.5 197t74 197t183 78zM200 566l58 147h67l-81 -147h-44zM355 566l58 147h67l-81 -147h-44z" />
    <glyph glyph-name="Oslash.small" horiz-adv-x="606" 
d="M55 7l58 69q-67 77 -67 189q0 119 74 197t183 78q89 0 157 -55l57 67l34 -29l-58 -69q67 -77 67 -189q0 -119 -74.5 -197t-182.5 -78q-89 0 -158 55l-56 -67zM102 265q0 -87 46 -149l279 330q-54 46 -124 46q-85 0 -143 -63.5t-58 -163.5zM303 38q85 0 143 63.5t58 163.5
q0 86 -46 148l-280 -330q54 -45 125 -45z" />
    <glyph glyph-name="Oslashacute.small" horiz-adv-x="606" 
d="M272 566l59 147h63l-80 -147h-42zM55 7l58 69q-67 77 -67 189q0 119 74 197t183 78q89 0 157 -55l57 67l34 -29l-58 -69q67 -77 67 -189q0 -119 -74.5 -197t-182.5 -78q-89 0 -158 55l-56 -67zM102 265q0 -87 46 -149l279 330q-54 46 -124 46q-85 0 -143 -63.5
t-58 -163.5zM303 38q85 0 143 63.5t58 163.5q0 86 -46 148l-280 -330q54 -45 125 -45z" />
    <glyph glyph-name="OE.small" horiz-adv-x="733" 
d="M669 0h-181q-35 0 -96 -2.5t-85 -2.5q-119 0 -190 75.5t-71 193.5q0 119 72 195t196 76q14 0 68.5 -2.5t93.5 -2.5h202l-20 -46h-210v-192h204v-46h-204v-200h221v-46zM395 44v443q-32 2 -79 2q-101 0 -157.5 -63t-56.5 -162q0 -100 54.5 -161.5t155.5 -61.5q34 0 83 3z
" />
    <glyph glyph-name="Racute.small" horiz-adv-x="455" 
d="M184 566l59 147h63l-80 -147h-42zM281 238v-2q25 -18 69 -87l93 -149h-61l-90 147q-37 62 -65 75h-85v-222h-53v530h118q90 0 134 -43t44 -108q0 -49 -26.5 -87t-77.5 -54zM142 268h80q50 0 79 29.5t29 78.5t-29.5 78.5t-86.5 29.5h-72v-216z" />
    <glyph glyph-name="Rcaron.small" horiz-adv-x="455" 
d="M190 567l-98 147h51l77 -109l76 109h49l-98 -147h-57zM281 238v-2q25 -18 69 -87l93 -149h-61l-90 147q-37 62 -65 75h-85v-222h-53v530h118q90 0 134 -43t44 -108q0 -49 -26.5 -87t-77.5 -54zM142 268h80q50 0 79 29.5t29 78.5t-29.5 78.5t-86.5 29.5h-72v-216z" />
    <glyph glyph-name="Rcommaaccent.small" horiz-adv-x="455" 
d="M281 238v-2q25 -18 69 -87l93 -149h-61l-90 147q-37 62 -65 75h-85v-222h-53v530h118q90 0 134 -43t44 -108q0 -49 -26.5 -87t-77.5 -54zM142 268h80q50 0 79 29.5t29 78.5t-29.5 78.5t-86.5 29.5h-72v-216zM187 -237l-17 37q71 22 71 76q0 31 -26 72h51q25 -30 25 -74
q0 -80 -104 -111z" />
    <glyph glyph-name="Sacute.small" horiz-adv-x="390" 
d="M185 566l59 147h63l-80 -147h-42zM44 24l20 44q50 -30 113 -30q48 0 83 25t35 71q0 40 -24.5 67t-59 43l-69 33.5t-59 49t-24.5 78.5q0 57 40.5 96t110.5 39q65 0 115 -25v-49q-52 26 -112 26q-40 0 -70 -20.5t-30 -61.5q0 -37 24.5 -61.5t59.5 -40t69.5 -33.5t59 -51.5
t24.5 -83.5q0 -72 -49.5 -111t-123.5 -39q-78 0 -133 34z" />
    <glyph glyph-name="Scircumflex.small" horiz-adv-x="390" 
d="M44 24l20 44q50 -30 113 -30q48 0 83 25t35 71q0 40 -24.5 67t-59 43l-69 33.5t-59 49t-24.5 78.5q0 57 40.5 96t110.5 39q65 0 115 -25v-49q-52 26 -112 26q-40 0 -70 -20.5t-30 -61.5q0 -37 24.5 -61.5t59.5 -40t69.5 -33.5t59 -51.5t24.5 -83.5q0 -72 -49.5 -111
t-123.5 -39q-78 0 -133 34zM71 566l98 147h57l98 -147h-50l-76 109l-77 -109h-50z" />
    <glyph glyph-name="Scaron.small" horiz-adv-x="390" 
d="M173 567l-98 147h51l77 -109l76 109h49l-98 -147h-57zM44 24l20 44q50 -30 113 -30q48 0 83 25t35 71q0 40 -24.5 67t-59 43l-69 33.5t-59 49t-24.5 78.5q0 57 40.5 96t110.5 39q65 0 115 -25v-49q-52 26 -112 26q-40 0 -70 -20.5t-30 -61.5q0 -37 24.5 -61.5t59.5 -40
t69.5 -33.5t59 -51.5t24.5 -83.5q0 -72 -49.5 -111t-123.5 -39q-78 0 -133 34z" />
    <glyph glyph-name="Scedilla.small" horiz-adv-x="390" 
d="M97 -200l12 38q25 -11 51 -11q55 0 55 42q0 14 -7 22.5t-21.5 12t-26.5 4.5t-32 1l25 82q-65 6 -109 33l20 44q50 -30 113 -30q48 0 83 25t35 71q0 40 -24.5 67t-59 43l-69 33.5t-59 49t-24.5 78.5q0 57 40.5 96t110.5 39q65 0 115 -25v-49q-52 26 -112 26
q-40 0 -70 -20.5t-30 -61.5q0 -37 24.5 -61.5t59.5 -40t69.5 -33.5t59 -51.5t24.5 -83.5q0 -66 -42 -104.5t-108 -44.5l-15 -47q33 -2 56.5 -19t23.5 -53q0 -40 -30 -62t-75 -22q-32 0 -63 12z" />
    <glyph glyph-name="Scommaaccent.small" horiz-adv-x="390" 
d="M44 24l20 44q50 -30 113 -30q48 0 83 25t35 71q0 40 -24.5 67t-59 43l-69 33.5t-59 49t-24.5 78.5q0 57 40.5 96t110.5 39q65 0 115 -25v-49q-52 26 -112 26q-40 0 -70 -20.5t-30 -61.5q0 -37 24.5 -61.5t59.5 -40t69.5 -33.5t59 -51.5t24.5 -83.5q0 -72 -49.5 -111
t-123.5 -39q-78 0 -133 34zM137 -237l-17 37q71 22 71 76q0 31 -26 72h51q25 -30 25 -74q0 -80 -104 -111z" />
    <glyph glyph-name="Tcaron.small" horiz-adv-x="413" 
d="M182 567l-98 147h51l77 -109l76 109h49l-98 -147h-57zM184 0v484h-167v46h397l-20 -46h-157v-484h-53z" />
    <glyph glyph-name="Tcommaaccent.small" horiz-adv-x="413" 
d="M184 0v484h-167v46h397l-20 -46h-157v-484h-53zM155 -237l-17 37q71 22 71 76q0 31 -26 72h51q25 -30 25 -74q0 -80 -104 -111z" />
    <glyph glyph-name="Tbar.small" horiz-adv-x="413" 
d="M91 246v46h93v192h-167v46h397l-20 -46h-157v-192h93v-46h-93v-246h-53v246h-93z" />
    <glyph glyph-name="Ugrave.small" horiz-adv-x="567" 
d="M269 566l-81 147h67l58 -147h-44zM483 530v-340q0 -101 -55.5 -151t-147.5 -50q-90 0 -143 49.5t-53 150.5v341h53v-340q0 -153 146 -153q147 0 147 153v340h53z" />
    <glyph glyph-name="Uacute.small" horiz-adv-x="567" 
d="M257 566l59 147h63l-80 -147h-42zM483 530v-340q0 -101 -55.5 -151t-147.5 -50q-90 0 -143 49.5t-53 150.5v341h53v-340q0 -153 146 -153q147 0 147 153v340h53z" />
    <glyph glyph-name="Ucircumflex.small" horiz-adv-x="567" 
d="M483 530v-340q0 -101 -55.5 -151t-147.5 -50q-90 0 -143 49.5t-53 150.5v341h53v-340q0 -153 146 -153q147 0 147 153v340h53zM158 566l98 147h57l98 -147h-50l-76 109l-77 -109h-50z" />
    <glyph glyph-name="Utilde.small" horiz-adv-x="567" 
d="M153 592v15q0 33 19 53.5t47 20.5q29 0 70 -25t56 -25q29 0 29 44h41v-15q0 -33 -19 -53.5t-47 -20.5t-69.5 25t-56.5 25q-29 0 -29 -44h-41zM483 530v-340q0 -101 -55.5 -151t-147.5 -50q-90 0 -143 49.5t-53 150.5v341h53v-340q0 -153 146 -153q147 0 147 153v340h53z
" />
    <glyph glyph-name="Udieresis.small" horiz-adv-x="567" 
d="M483 530v-340q0 -101 -55.5 -151t-147.5 -50q-90 0 -143 49.5t-53 150.5v341h53v-340q0 -153 146 -153q147 0 147 153v340h53zM199 593q-15 0 -25.5 10.5t-10.5 25.5t10.5 25.5t25.5 10.5t25.5 -10.5t10.5 -25.5t-10.5 -25.5t-25.5 -10.5zM371 593q-15 0 -25.5 10.5
t-10.5 25.5t10.5 25.5t25.5 10.5t25.5 -10.5t10.5 -25.5t-10.5 -25.5t-25.5 -10.5z" />
    <glyph glyph-name="Umacron.small" horiz-adv-x="567" 
d="M167 611v46h232v-46h-232zM483 530v-340q0 -101 -55.5 -151t-147.5 -50q-90 0 -143 49.5t-53 150.5v341h53v-340q0 -153 146 -153q147 0 147 153v340h53z" />
    </font>
</defs>
</svg>
